SplineFontDB: 3.0
FontName: Coiny-Regular
FullName: Coiny
FamilyName: Coiny Regular
Weight: Regular
Copyright: 2015, Marcelo Magalhaes under SIL license.\n\nThe SIL Open Font License (OFL) is a free, libre and open source license specifically designed for fonts and related software based on our experience in font design and linguistic software engineering. \n\nhttp://scripts.sil.org/cms/scripts/page.php?site_id=nrsi&id=OFL\n
Version: 1.0
ItalicAngle: 0
UnderlinePosition: -140
UnderlineWidth: 50
Ascent: 750
Descent: 250
InvalidEm: 0
UFOAscent: 760
UFODescent: -240
LayerCount: 2
Layer: 0 0 "Back" 1
Layer: 1 0 "Fore" 0
PreferredKerning: 4
FSType: 0
OS2Version: 0
OS2_WeightWidthSlopeOnly: 0
OS2_UseTypoMetrics: 0
CreationTime: 1439837839
ModificationTime: 1448813619
PfmFamily: 33
TTFWeight: 400
TTFWidth: 5
LineGap: 600
VLineGap: 0
Panose: 2 0 9 3 6 5 0 6 0 0
OS2TypoAscent: 750
OS2TypoAOffset: 0
OS2TypoDescent: -250
OS2TypoDOffset: 0
OS2TypoLinegap: 600
OS2WinAscent: 750
OS2WinAOffset: 0
OS2WinDescent: 250
OS2WinDOffset: 0
HheadAscent: 750
HheadAOffset: 0
HheadDescent: 250
HheadDOffset: 0
OS2SubXSize: 650
OS2SubYSize: 700
OS2SubXOff: 0
OS2SubYOff: 140
OS2SupXSize: 650
OS2SupYSize: 700
OS2SupXOff: 0
OS2SupYOff: 480
OS2StrikeYSize: 49
OS2StrikeYPos: 258
OS2CapHeight: 680
OS2XHeight: 515
OS2FamilyClass: 1283
OS2Vendor: 'PfEd'
OS2CodePages: 00000001.00000000
OS2UnicodeRanges: 00000005.00000000.00000000.00000000
Lookup: 4 1 0 "'abvs' Above Base Substitutions lookup 0" { "'abvs' Above Base Substitutions lookup 0-1"  } ['abvs' ('DFLT' <'dflt' > 'deva' <'dflt' > 'grek' <'dflt' > 'latn' <'dflt' > 'taml' <'dflt' > 'tibt' <'dflt' > ) ]
Lookup: 258 0 0 "'kern' Horizontal Kerning lookup 7 TAMIL" { "'kern' Horizontal Kerning lookup 7 TAMIL-1" [45,4,2] } ['kern' ('DFLT' <'dflt' > 'deva' <'dflt' > 'grek' <'dflt' > 'latn' <'dflt' > 'taml' <'dflt' > 'tibt' <'dflt' > ) ]

StartChar: uni0B85
Encoding: 337 2949 0
GlifName: uni0B_85
Width: 1281
VWidth: 0
GlyphClass: 2
Flags: W
HStem: -239.25 187.57<277.913 526.562> -220.064 742.48<1010.91 1151.56> 35.5996 126.5<236.95 623.025 871.863 972> 255.364 62.498<398.37 450.648> 436.949 85.4668<401.842 559.208>
VStem: 245.761 146.185<321.198 431.847> 459.052 145.982<320.828 414.165> 675.078 197.524<162.421 265.38> 972 219<-176.368 35.5996 162.1 482.622>
LayerCount: 2
Back
Fore
SplineSet
623.025390625 35.599609375 m 1xa780
 232.728515625 35.599609375 l 1
 232.728515625 -31.7119140625 312.913085938 -51.6796875 396.029296875 -51.6796875 c 0
 505.254882812 -51.6796875 578.936523438 -18.5146484375 623.025390625 35.599609375 c 1xa780
29.888671875 -3.5 m 0
 29.888671875 118.399414062 122.329101562 162.099609375 270.678710938 162.099609375 c 2
 674.33203125 162.099609375 l 1
 674.831054688 168.961914062 675.078125 175.932617188 675.078125 183 c 0
 675.078125 276.419921875 650.083007812 364.60546875 593.65625 414.879882812 c 1
 601.047851562 403.071289062 605.034179688 389.79296875 605.034179688 375.215820312 c 0
 605.034179688 298.099609375 525.759765625 255.364257812 425.928710938 255.364257812 c 0
 326.206054688 255.364257812 245.760742188 298.099609375 245.760742188 375.215820312 c 1
 245.095703125 375.215820312 l 1
 245.095703125 471.538085938 326 522.416015625 454.678710938 522.416015625 c 0
 663.736715292 522.416015625 859.6796875 400.747070312 872.602539062 162.099609375 c 1
 972 162.099609375 l 5xbf80
 972 402.466796875 l 4
 972 489.275390625 1018.97265625 522.416015625 1081.03808594 522.416015625 c 0
 1143.88476562 522.416015625 1191 508.598632812 1191 411.453125 c 0
 1191 -69.759765625 l 0
 1191 -181.197265625 1152.78613281 -220.064453125 1081.03808594 -220.064453125 c 0x4780
 1009.2890625 -220.064453125 972 -187.864257812 972 -77.4072265625 c 4
 972 35.599609375 l 5
 863.145507812 35.599609375 l 1
 827.020507812 -132.716796875 693.284179688 -239.25 445.478515625 -239.25 c 0
 224.678710938 -239.25 29.888671875 -143.685546875 29.888671875 -3.5 c 0
459.051757812 378 m 0
 459.051757812 406.962890626 448.928710938 436.94921875 426.48828125 436.94921875 c 0
 405.829101562 436.94921875 391.9453125 405.220806566 391.9453125 378 c 0
 391.9453125 347.385742188 401.344789857 317.862304688 426.205078125 317.862304688 c 0
 449.640625 317.862304688 459.051757812 349.081054688 459.051757812 378 c 0
EndSplineSet
PickledDataWithLists: "(dp1
S'com.fontlab.hintData'
p2
(dp3
S'vhints'
p4
(lp5
(dp6
S'position'
p7
I349
sS'width'
p8
I127
sa(dp9
g7
I535
sg8
I127
sa(dp10
g7
I749
sg8
I183
sa(dp11
g7
I1026
sg8
I190
sa(dp12
g7
I1026
sg8
I8
sasS'hhints'
p13
(lp14
(dp15
g7
I-239
sg8
I184
sa(dp16
g7
I-222
sg8
I570
sa(dp17
g7
I0
sg8
I82
sa(dp18
g7
I116
sg8
I54
sa(dp19
g7
I274
sg8
I74
sa(dp20
g7
I292
sg8
I17
sass."
EndChar

StartChar: uni0B86
Encoding: 338 2950 1
GlifName: uni0B_86
Width: 1546
VWidth: 0
GlyphClass: 2
Flags: W
HStem: -545.65 208.944<918.391 1149.03> -255.851 77.0508<897.572 962.016> -238.1 187.57<278.107 526.756> -32.4707 157.671<1216.7 1365.23> 36.75 126.5<237.145 623.22 872.058 972> 256.515 62.498<398.797 450.842> 438.1 85.4668<403.834 452.347>
VStem: 245.29 146.85<322.348 433.025> 459.246 145.982<321.951 415.643> 675.272 197.524<163.572 266.505> 724.851 171.35<-387.701 -260.098> 972 219<-175.218 -39.9792 163.25 483.772> 1277.75 253.253<-220.84 -36.5494>
LayerCount: 2
Back
Fore
SplineSet
623.219726562 36.75 m 1xaf98
 232.922851562 36.75 l 1
 232.922851562 -30.5615234375 313.107421875 -50.529296875 396.223632812 -50.529296875 c 0
 505.44921875 -50.529296875 579.130859375 -17.3642578125 623.219726562 36.75 c 1xaf98
459.24609375 378 m 0
 459.24609375 407.452959694 449.123046875 438.099609375 426.682617188 438.099609375 c 0
 406.0234375 438.099609375 392.139648438 405.685445589 392.139648438 378 c 0
 392.139648438 349.905145816 401.538113551 319.012695312 426.399414062 319.012695312 c 0
 449.834960938 319.012695312 459.24609375 349.563139112 459.24609375 378 c 0
1152.65039062 -315.650390625 m 0
 1234.18554688 -284.088867188 1277.74707031 -225.950195312 1277.74707031 -96 c 0
 1277.74707031 -59.2001953125 1269.95019531 -32.470703125 1239.29101562 -32.470703125 c 0xd7b8
 1213.13378906 -32.470703125 1194.4921875 -48.4462890625 1190.94726562 -83.6767578125 c 0
 1187.69482784 -179.80189143 1151.04278351 -218.9140625 1081.23242188 -218.9140625 c 0
 1009.48339844 -218.9140625 973.201171875 -186.713867188 973.201171875 -76.2568359375 c 0
 973.201171875 -45.4794921875 973.063476562 -6.2744140625 972.856445312 36.75 c 1
 863.33984375 36.75 l 1
 827.21484375 -131.56640625 693.478515625 -238.099609375 445.672851562 -238.099609375 c 0
 224.873046875 -238.099609375 30.0830078125 -142.53515625 30.0830078125 -2.349609375 c 0
 30.0830078125 119.549804688 122.5234375 163.25 270.873046875 163.25 c 2
 674.526367188 163.25 l 1
 675.025390625 170.112304688 675.271484375 177.083007812 675.272460938 184.150390625 c 0
 675.272460938 277.5703125 650.27734375 365.755859375 593.850585938 416.030273438 c 1
 601.2421875 404.221679688 605.228515625 390.943359375 605.228515625 376.366210938 c 0
 605.228515625 299.25 525.954101562 256.514648438 426.123046875 256.514648438 c 0
 326.400390625 256.514648438 245.955078125 299.25 245.955078125 376.366210938 c 1
 245.290039062 376.366210938 l 1
 245.290039062 472.688476562 327.223632812 523.811523438 454.873046875 523.56640625 c 0
 663.930664062 523.1640625 859.874023438 401.897460938 872.796875 163.25 c 1
 972 163.25 l 5xafd8
 972 403.6171875 l 4
 972 490.42578125 1019.16699219 523.56640625 1081.23242188 523.56640625 c 0
 1144.07910156 523.56640625 1191 509.749023438 1191 412.603515625 c 0
 1191 85.8056640625 l 1
 1221.6484375 111.913085938 1260.83007812 125.200195312 1304.45019531 125.200195312 c 0
 1426.015625 125.200195312 1531 79.43359375 1531 -145.450195312 c 0
 1531 -380.049804688 1340.21484375 -545.650390625 1072.15039062 -545.650390625 c 0
 874.350585938 -545.650390625 724.850585938 -460.549804688 724.850585938 -314.5 c 0
 724.850585938 -223.650390625 800.75 -178.799804688 874.350585938 -178.799804688 c 0
 937.600585938 -178.799804688 974.731445312 -198.350585938 974.731445312 -224.799804688 c 0
 974.731445312 -252.400390625 954.850585938 -255.850585938 939.900390625 -255.850585938 c 0
 908.850585938 -255.850585938 896.200195312 -268.5 896.200195312 -288.049804688 c 0xd7b8
 896.200195312 -316.227539062 958.109375 -336.706054688 1030.75 -336.706054688 c 0
 1070.98828125 -336.706054688 1114.52734375 -330.407226562 1152.65039062 -315.650390625 c 0
EndSplineSet
PickledDataWithLists: "(dp1
S'com.fontlab.hintData'
p2
(dp3
S'vhints'
p4
(lp5
(dp6
S'position'
p7
I267
sS'width'
p8
I127
sa(dp9
g7
I453
sg8
I127
sa(dp10
g7
I667
sg8
I183
sa(dp11
g7
I708
sg8
I149
sa(dp12
g7
I944
sg8
I8
sa(dp13
g7
I944
sg8
I190
sa(dp14
g7
I1037
sg8
I76
sa(dp15
g7
I1189
sg8
I201
sasS'hhints'
p16
(lp17
(dp18
g7
I-515
sg8
I182
sa(dp19
g7
I-263
sg8
I67
sa(dp20
g7
I-244
sg8
I184
sa(dp21
g7
I-227
sg8
I570
sa(dp22
g7
I-69
sg8
I134
sa(dp23
g7
I-5
sg8
I82
sa(dp24
g7
I111
sg8
I54
sa(dp25
g7
I269
sg8
I74
sa(dp26
g7
I287
sg8
I17
sass."
EndChar

StartChar: uni0B87
Encoding: 339 2951 2
GlifName: uni0B_87
Width: 1397
VWidth: 0
GlyphClass: 2
Flags: W
HStem: -227.65 132.563<260.889 393.109 714.605 832.394> 110.7 124.798<446.009 667.43> 289.948 71.4297<537.409 584.506> 462.601 94.3994<538.16 700.231> 640 139.5<436.502 800.592>
VStem: 35.3369 166.149<-47.4315 32.7692> 96.1865 187.75<312.563 515.48> 380.913 151.081<364.215 459.152> 589.16 151.026<363.23 428.782> 764.337 182.85<242.021 401.402> 875.236 176.358<-55.7076 33.5933> 1110 192<-154.438 372.078>
LayerCount: 2
Back
Fore
SplineSet
841.263671875 43.5634765625 m 1xf9b0
 806.390625 -4.154296875 763.577148438 -50.693359375 713.8359375 -91.3662109375 c 1
 728.400390625 -93.07421875 742.788085938 -93.8564453125 756.786132812 -93.8564453125 c 0
 821.874023438 -93.8564453125 875.236328125 -54.7197265625 875.236328125 -6.150390625 c 0
 875.236328125 13.0107421875 862.859375 29.5009765625 841.263671875 43.5634765625 c 1xf9b0
669.07421875 105.7265625 m 1
 632.934570312 109.129882812 595.6640625 110.700195312 559.930664062 110.700195312 c 0
 523.517578125 110.700195312 483.883789062 109.109375 444.415039062 105.778320312 c 1
 480.015625 62.3369140625 518.947265625 22.103515625 558.637695312 -12.779296875 c 1
 599.991210938 23.943359375 637.268554688 64.1240234375 669.07421875 105.7265625 c 1
394.110351562 -92.78515625 m 1
 339.061523438 -51.8505859375 288.912109375 -3.708984375 246.108398438 48.607421875 c 1
 218.099609375 32.8271484375 201.486328125 14.1337890625 201.486328125 -7.7001953125 c 0xfd90
 201.486328125 -45.775390625 267.329101562 -95.0869140625 350.986328125 -95.0869140625 c 0
 365.061523438 -95.0869140625 379.467773438 -94.3515625 394.110351562 -92.78515625 c 1
1302 224.349609375 m 0
 1302 -42.896484375 l 0
 1302 -154.333984375 1268.31347656 -193.200195312 1205.04882812 -193.200195312 c 0
 1142.58886719 -193.200195312 1110 -161 1110 -50.54296875 c 4
 1110 220.799804688 l 4
 1110 481.360509112 979.803710938 640 596.436523438 640 c 0
 398.8984375 640 283.936523438 567.016274101 283.936523438 425.899414062 c 0
 283.936523438 360.889648438 308.736328125 290.143554688 348.0234375 221.872070312 c 1
 416.111328125 231.13671875 488.032226562 235.498046875 558.486328125 235.498046875 c 0
 618.266601562 235.498046875 678.595703125 232.030273438 735.48046875 224.350585938 c 1
 754.0859375 266.553710938 764.336914062 307.790039062 764.336914062 345.399414062 c 0
 764.336914062 377.489257812 753.84375 406.518554688 737.717773438 429.055664062 c 1
 739.344726562 422.922851562 740.186523438 416.498046875 740.186523438 409.799804688 c 0
 740.186523438 332.682617188 660.911132812 289.948242188 561.081054688 289.948242188 c 0
 461.357421875 289.948242188 380.913085938 332.682617188 380.913085938 409.799804688 c 1
 380.248046875 409.799804688 l 1
 380.248046875 506.12109375 462.180664062 557 589.831054688 557 c 0
 810.630859375 557 947.186523438 458.099609375 947.186523438 301.700195312 c 0xfbd0
 947.186523438 266.852539062 937.038085938 223.845703125 917.7890625 177.53125 c 1
 1006.50976562 140.8359375 1051.59472656 81 1051.59472656 -6.51953125 c 0
 1051.59472656 -162.352539062 895.561523438 -227.650390625 763.481445312 -227.650390625 c 0
 694.032226562 -227.650390625 624.595703125 -212.44140625 558.172851562 -185.743164062 c 1
 495.157226562 -212.01953125 425.90234375 -227.650390625 351.486328125 -227.650390625 c 0
 123.806640625 -227.650390625 35.3369140625 -114.736328125 35.3369140625 -12.650390625 c 0xfdb0
 35.3369140625 83.4102315544 90.3717608913 128.575329769 166.958984375 165.198242188 c 1
 122.196289062 246.702148438 96.1865234375 332.385742188 96.1865234375 413.25 c 0xfb90
 96.1865234375 637.373046875 267.536132812 779.5 637.836914062 779.5 c 0
 1108.26757812 779.5 1302 557.8828125 1302 224.349609375 c 0
589.16015625 412 m 0
 589.16015625 435.67890119 580.5546875 462.600585938 561.481445312 462.600585938 c 0
 542.749023438 462.600585938 531.994140625 435.352949956 531.994140625 412 c 0
 531.994140625 386.756144831 541.424804688 361.377929688 561.241210938 361.377929688 c 0
 581.161132812 361.377929688 589.16015625 386.409475161 589.16015625 412 c 0
EndSplineSet
PickledDataWithLists: "(dp1
S'com.fontlab.hintData'
p2
(dp3
S'vhints'
p4
(lp5
(dp6
S'position'
p7
I144
sS'width'
p8
I155
sa(dp9
g7
I197
sg8
I185
sa(dp10
g7
I445
sg8
I131
sa(dp11
g7
I626
sg8
I131
sa(dp12
g7
I796
sg8
I141
sa(dp13
g7
I864
sg8
I164
sa(dp14
g7
I1063
sg8
I190
sasS'hhints'
p15
(lp16
(dp17
g7
I-363
sg8
I134
sa(dp18
g7
I-34
sg8
I107
sa(dp19
g7
I116
sg8
I62
sa(dp20
g7
I266
sg8
I82
sa(dp21
g7
I292
sg8
I17
sa(dp22
g7
I398
sg8
I160
sass."
EndChar

StartChar: uni0B88
Encoding: 340 2952 3
GlifName: uni0B_88
Width: 1158
VWidth: 0
GlyphClass: 2
Flags: W
HStem: 0.509766 21G<161.776 233.526 704.576 776.327> 133.942 151.983<383.271 548.695 921.471 1086.9> 377 125<307 631 850 1125.43>
VStem: 89.6221 217.378<44.6975 377> 355.399 217.54<159.525 258.813> 631 219<44.2054 377> 893.6 217.54<159.525 258.813>
LayerCount: 2
Back
Fore
SplineSet
893.599609375 210.025390625 m 0
 893.599609375 152.837890625 946.430664062 133.942382812 1001.88964844 133.942382812 c 0
 1067.71191406 133.942382812 1111.13964844 149.889648438 1111.13964844 210.025390625 c 0
 1111.13964844 261.643554688 1074.0390625 285.92578125 1001.88964844 285.92578125 c 0
 930.720703125 285.92578125 893.599609375 253.16796875 893.599609375 210.025390625 c 0
355.399414062 210.025390625 m 0
 355.399414062 152.837890625 408.23046875 133.942382812 463.689453125 133.942382812 c 0
 529.51171875 133.942382812 572.939453125 149.889648438 572.939453125 210.025390625 c 0
 572.939453125 261.643554688 535.83984375 285.92578125 463.689453125 285.92578125 c 0
 392.520507812 285.92578125 355.399414062 253.16796875 355.399414062 210.025390625 c 0
307 150.813476562 m 0
 307 39.3759765625 269.401367188 0.509765625 197.651367188 0.509765625 c 0
 125.901367188 0.509765625 89.6220703125 25.701171875 89.6220703125 136.158203125 c 2
 90.1181640625 432.014648438 l 2
 90.1181640625 483.994727575 125.262824946 502 177.447265625 502 c 2
 1044.05078125 502 l 2
 1116.65429688 502 1138 484.717773438 1138 433.828125 c 0
 1138 387.0078125 1112 377 1032.55078125 377 c 2
 850 377 l 1
 850 150.813476562 l 0
 850 39.3759765625 812.202148438 0.509765625 740.451171875 0.509765625 c 0
 668.701171875 0.509765625 631 32.708984375 631 143.166992188 c 0
 631 377 l 1
 307 377 l 1
 307 150.813476562 l 0
EndSplineSet
PickledDataWithLists: "(dp1
S'com.fontlab.hintData'
p2
(dp3
S'vhints'
p4
(lp5
(dp6
S'position'
p7
I55
sS'width'
p8
I190
sa(dp9
g7
I286
sg8
I189
sa(dp10
g7
I527
sg8
I190
sa(dp11
g7
I754
sg8
I189
sasS'hhints'
p12
(lp13
(dp14
g7
I0
sg8
I21
sa(dp15
g7
I99
sg8
I132
sa(dp16
g7
I300
sg8
I110
sass."
EndChar

StartChar: uni0B8E
Encoding: 343 2958 4
GlifName: uni0B_8E_
Width: 1094
VWidth: 0
GlyphClass: 2
Flags: W
HStem: -4.81738 77.8975<324.184 504.988> 236.777 73.3584<458.566 504.588> 378 124<345.831 716.325 931.375 1065.86>
VStem: 44.75 218.5<161.229 308.783> 306.502 140.905<127.921 230.254> 514.641 140.843<78.1309 232.713> 716.325 215.05<28.2639 378>
LayerCount: 2
Back
Fore
SplineSet
931.375 106.961914062 m 2
 931.375 26.2001953125 901.475585938 0.2744140625 817.922851562 0.2744140625 c 0
 735.875 0.2744140625 716.325195312 38.4638671875 716.325195312 118.034179688 c 2
 716.325195312 378 l 1
 459.900390625 378 l 2
 335.375 378 263.25 337.008789062 263.25 227.866210938 c 0
 263.25 187.865234375 279.337890625 153.299804688 308.487304688 127.004882812 c 1
 307.1796875 135.315429688 306.501953125 144.005859375 306.501953125 153.064453125 c 0
 306.501953125 251.010742188 381.247070312 310.135742188 481.586914062 310.135742188 c 0
 581.951171875 310.135742188 655.483398438 251.010742188 655.483398438 153.064453125 c 0
 655.483398438 46.4282256368 571.664900976 -4.8173828125 458.75 -4.8173828125 c 4
 190.799804688 -4.8173828125 44.75 103.68359375 44.75 255 c 0
 44.75 421.352539062 160.375 502 481.75 502 c 2
 998.5 502 l 2
 1056 502 1079 484.868164062 1079 438.166015625 c 0
 1079 398.415039062 1054.87597656 378 991.375 378 c 2
 931.375 378 l 1
 931.375 106.961914062 l 2
514.640625 154 m 0
 514.640625 193.583007813 504.315429688 236.77734375 482.208007812 236.77734375 c 0
 459.37109375 236.77734375 447.407226562 193.037109376 447.407226562 154 c 0
 447.407226562 114.978515626 458.526367188 73.080078125 481.891601562 73.080078125 c 0
 505.256835938 73.080078125 514.640625 114.4375 514.640625 154 c 0
EndSplineSet
PickledDataWithLists: "(dp1
S'com.fontlab.hintData'
p2
(dp3
S'vhints'
p4
(lp5
(dp6
S'position'
p7
I68
sS'width'
p8
I189
sa(dp9
g7
I296
sg8
I123
sa(dp10
g7
I477
sg8
I122
sa(dp11
g7
I632
sg8
I189
sasS'hhints'
p12
(lp13
(dp14
g7
I-5
sg8
I63
sa(dp15
g7
I-5
sg8
I44
sa(dp16
g7
I-1
sg8
I415
sa(dp17
g7
I200
sg8
I64
sa(dp18
g7
I312
sg8
I103
sass."
EndChar

StartChar: uni0B8F
Encoding: 344 2959 5
GlifName: uni0B_8F_
Width: 1094
VWidth: 0
GlyphClass: 2
Flags: W
HStem: -4.81738 77.8975<324.184 504.988> 236.777 73.3584<458.566 504.588> 378 124<345.831 716 931.375 1065.86>
VStem: 44.75 218.5<161.229 308.783> 306.502 140.905<128.019 230.267> 514.641 140.843<78.138 232.721> 716 215.05<11.151 378>
LayerCount: 2
Back
Fore
SplineSet
514.640625 154.180664062 m 0
 514.640625 193.763671875 504.315429688 236.77734375 482.208007812 236.77734375 c 0
 459.37109375 236.77734375 447.407226562 193.260742188 447.407226562 154.223632812 c 0
 447.407226562 115.202148438 458.526367188 73.080078125 481.891601562 73.080078125 c 0
 505.256835938 73.080078125 514.640625 114.618164062 514.640625 154.180664062 c 0
588.349609375 -56.2412109375 m 0
 694.150390625 1.2724609375 716 15.30859375 716 63.3876953125 c 2
 716 378 l 1
 459.900390625 378 l 2
 335.375 378 263.25 337.008789062 263.25 227.866210938 c 0
 263.25 187.865234375 279.337890625 153.299804688 308.487304688 127.004882812 c 1
 307.1796875 135.315429688 306.501953125 144.005859375 306.501953125 153.064453125 c 0
 306.501953125 251.010742188 381.247070312 310.135742188 481.586914062 310.135742188 c 0
 581.951171875 310.135742188 655.483398438 251.010742188 655.483398438 153.064453125 c 0
 655.483398438 46.4282256368 571.664900976 -4.8173828125 458.75 -4.8173828125 c 4
 190.799804688 -4.8173828125 44.75 103.68359375 44.75 255 c 0
 44.75 421.352539062 160.375 502 481.75 502 c 2
 998.5 502 l 2
 1056 502 1079 484.868164062 1079 438.166015625 c 0
 1079 398.415039062 1054.87597656 378 991.375 378 c 2
 931.375 378 l 1
 931.049804688 88.693359375 l 2
 931.049804688 9.6611328125 929.64453125 -43.3056640625 920.700195312 -63.142578125 c 0
 894.25 -121.807617188 836.75 -154.013671875 665.57421875 -235.008789062 c 0
 625.814453125 -253.822265625 593.7890625 -262.614257812 567.650390625 -262.614257812 c 0
 527.564453125 -262.614257812 501.323242188 -241.181640625 482.264648438 -202.146484375 c 0
 474.993164062 -187.25390625 471.577148438 -174.099609375 471.577148438 -162.06640625 c 0
 471.577148438 -122.001953125 513.71484375 -96.8134765625 588.349609375 -56.2412109375 c 0
EndSplineSet
PickledDataWithLists: "(dp1
S'com.fontlab.hintData'
p2
(dp3
S'vhints'
p4
(lp5
(dp6
S'position'
p7
I68
sS'width'
p8
I189
sa(dp9
g7
I296
sg8
I123
sa(dp10
g7
I477
sg8
I122
sa(dp11
g7
I650
sg8
I189
sa(dp12
g7
I651
sg8
I190
sa(dp13
g7
I1009
sg8
I189
sasS'hhints'
p14
(lp15
(dp16
g7
I-5
sg8
I63
sa(dp17
g7
I-5
sg8
I44
sa(dp18
g7
I0
sg8
I415
sa(dp19
g7
I200
sg8
I64
sa(dp20
g7
I306
sg8
I109
sa(dp21
g7
I312
sg8
I103
sass."
EndChar

StartChar: uni0BBE
Encoding: 372 3006 6
GlifName: uni0B_B_E_
Width: 851
VWidth: 0
GlyphClass: 2
Flags: W
HStem: 0.0175781 21G<150.802 233.602 563.652 646.452> 376.006 125.2<305.111 503.499 717.934 819.491>
VStem: 90.2275 215.051<28.0065 376.006> 503.078 215.051<28.0065 376.303>
AnchorPoint: "Anchor-0" 459.228 0 basechar 0
LayerCount: 2
Back
Fore
SplineSet
718.12890625 106.704101562 m 2
 718.12890625 25.9423828125 688.228515625 0.017578125 604.67578125 0.017578125 c 0
 522.62890625 0.017578125 503.078125 38.2060546875 503.078125 117.776367188 c 2
 503.499023438 376.302734375 l 1
 305.111328125 376.005859375 l 1
 305.278320312 106.704101562 l 2
 305.278320312 25.9423828125 275.377929688 0.017578125 191.825195312 0.017578125 c 0
 109.778320312 0.017578125 90.2275390625 38.2060546875 90.2275390625 117.776367188 c 2
 91.404296875 384.104492188 l 2
 94.0947265625 455.561523438 132.021484375 501.206054688 194.750976562 501.206054688 c 2
 757.750976562 502.1484375 l 2
 814.357421875 502.1484375 831 485.821289062 831 437.748046875 c 0
 831 387.6953125 801.451171875 376.797851562 752.000976562 376.797851562 c 2
 717.93359375 376.721679688 l 1
 718.12890625 106.704101562 l 2
EndSplineSet
PickledDataWithLists: "(dp1
S'com.fontlab.hintData'
p2
(dp3
S'vhints'
p4
(lp5
(dp6
S'position'
p7
I54
sS'width'
p8
I189
sa(dp9
g7
I413
sg8
I189
sasS'hhints'
p10
(lp11
(dp12
g7
I0
sg8
I415
sa(dp13
g7
I306
sg8
I109
sass."
EndChar

StartChar: period
Encoding: 14 46 8
GlifName: period
Width: 283
VWidth: 0
GlyphClass: 2
Flags: W
HStem: -6.9834 151.983<58.3317 223.756>
VStem: 30.46 217.54<18.5996 117.887>
LayerCount: 2
Back
Fore
SplineSet
30.4599609375 69.099609375 m 0
 30.4599609375 11.912109375 83.2919921875 -6.9833984375 138.75 -6.9833984375 c 0
 204.573242188 -6.9833984375 248 8.9638671875 248 69.099609375 c 0
 248 120.717773438 210.900390625 145 138.75 145 c 0
 67.5810546875 145 30.4599609375 112.241210938 30.4599609375 69.099609375 c 0
EndSplineSet
PickledDataWithLists: "(dp1
S'com.fontlab.hintData'
p2
(dp3
S'vhints'
p4
(lp5
(dp6
S'position'
p7
I19
sS'width'
p8
I189
sasS'hhints'
p9
(lp10
(dp11
g7
I-5
sg8
I132
sass."
EndChar

StartChar: a
Encoding: 65 97 9
GlifName: a
Width: 624
VWidth: 0
GlyphClass: 2
Flags: W
HStem: -6.25391 123.49<174.518 336.391> -0.0439453 476.987<398.434 542.538> 360.283 123.803<172.423 319.763>
VStem: 42.2354 216.776<141.793 333.31> 360.95 215.05<122.889 354.18>
LayerCount: 2
Back
Fore
SplineSet
360.950195312 331.256835938 m 1xb8
 350.427734375 348.9140625 335.837890625 360.283203125 316.79296875 360.283203125 c 0
 280.220703125 360.283203125 259.01171875 295.419921875 259.01171875 235.225585938 c 0
 259.01171875 179.513671875 277.342773438 117.236328125 316.049804688 117.236328125 c 0
 335.65234375 117.236328125 350.403320312 127.7578125 360.950195312 144.154296875 c 1
 360.950195312 331.256835938 l 1xb8
224.969726562 -6.25390625 m 0
 124.06640625 -6.25390625 42.2353515625 80.666015625 42.2353515625 235.225585938 c 0
 42.2353515625 390.409179688 120.216796875 484.0859375 224.629882812 484.0859375 c 0xb8
 282.3828125 484.0859375 333.954101562 460.858398438 375.135742188 427.018554688 c 1
 391.74609375 458.313476562 422.127929688 476.943359375 461.942382812 476.943359375 c 0
 524.786132812 476.943359375 576 457.555664062 576 367.21484375 c 2
 576 106.643554688 l 2
 576 25.8818359375 546.100585938 -0.0439453125 462.547851562 -0.0439453125 c 0x58
 416.353515625 -0.0439453125 389.969726562 12.0615234375 375.733398438 36.8427734375 c 1
 333.94921875 8.5556640625 281.885742188 -6.25390625 224.969726562 -6.25390625 c 0
EndSplineSet
PickledDataWithLists: "(dp1
S'com.fontlab.hintData'
p2
(dp3
S'vhints'
p4
(lp5
(dp6
S'position'
p7
I44
sS'width'
p8
I189
sa(dp9
g7
I327
sg8
I189
sa(dp10
g7
I339
sg8
I82
sasS'hhints'
p11
(lp12
(dp13
g7
I-5
sg8
I107
sa(dp14
g7
I0
sg8
I415
sa(dp15
g7
I313
sg8
I108
sass."
EndChar

StartChar: b
Encoding: 66 98 10
GlifName: b
Width: 629
VWidth: 0
GlyphClass: 2
Flags: W
HStem: -6.51953 125.58<278.142 353.203> 360.957 123.803<312.777 461.755>
VStem: 50.2266 217.999<132.302 351.86 435.95 647.226> 375.279 216.774<140.663 330.751>
LayerCount: 2
Back
Fore
SplineSet
268.225585938 153.265625 m 1
 278.913085938 132.842773438 295.236328125 119.060546875 318.239257812 119.060546875 c 0
 356.9453125 119.060546875 375.279296875 178.302734375 375.279296875 231.30078125 c 0
 375.279296875 293.708984375 353.7734375 360.95703125 317.495117188 360.95703125 c 0
 295.033203125 360.95703125 278.767578125 345.87890625 268.064453125 323.900390625 c 1
 268.064453125 290.209960938 268.225585938 215.237304688 268.225585938 153.265625 c 1
267 435.950195312 m 1
 306.77734375 465.483398438 355.591796875 484.759765625 409.65625 484.759765625 c 0
 513.854492188 484.759765625 592.053710938 387.237304688 592.053710938 251.538085938 c 0
 592.053710938 84.4482421875 471.396484375 -6.51953125 308.46484375 -6.51953125 c 0
 154.649414062 -6.51953125 50.9716796875 60.8876953125 50.2265625 187.139648438 c 2
 48 564.473632812 l 2
 48 651.28125 95.412109375 684.422851562 158.255859375 684.422851562 c 0
 232.106445312 684.422851562 267 650 267 573.459960938 c 2
 267 435.950195312 l 1
EndSplineSet
PickledDataWithLists: "(dp1
S'com.fontlab.hintData'
p2
(dp3
S'vhints'
p4
(lp5
(dp6
S'position'
p7
I44
sS'width'
p8
I190
sa(dp9
g7
I327
sg8
I188
sasS'hhints'
p10
(lp11
(dp12
g7
I-4
sg8
I107
sa(dp13
g7
I313
sg8
I108
sass."
EndChar

StartChar: c
Encoding: 67 99 11
GlifName: c
Width: 599
VWidth: 0
GlyphClass: 2
Flags: W
HStem: -7.02344 153.51<294.446 431.983> 396.662 87.8047<284.701 341.218>
VStem: 40.5166 210.687<189.972 344.448> 342.48 208.584<282.385 396.228>
LayerCount: 2
Back
Fore
SplineSet
342.48046875 374 m 0
 342.48046875 388.31640625 334.21484375 396.662109375 316.307617188 396.662109375 c 0
 276.522460938 396.662109375 251.203125 325.506835938 251.203125 257.686523438 c 0
 251.203125 192.483398438 294.522460938 146.486328125 363.763671875 146.486328125 c 0
 395.07421875 146.486328125 427.244140625 150.166992188 452.46875 157.573242188 c 0
 484.333984375 166.9296875 501.674804688 184.125976562 519 184.125976562 c 0
 548.442382812 184.125976562 558.024414062 166.673828125 558.024414062 152.486328125 c 0
 558.024414062 105.900390625 475.5625 -7.0234375 324.953125 -7.0234375 c 0
 165.708007812 -7.0234375 40.5166015625 82.7978515625 40.5166015625 242.333007812 c 0
 40.5166015625 393.387695312 160.212890625 484.466796875 324.953125 484.466796875 c 0
 488.174804688 484.466796875 551.064453125 425.126953125 551.064453125 341.8671875 c 0
 551.064453125 296.249023438 518.153320312 218.01953125 405.163085938 218.01953125 c 0
 364.807617188 218.01953125 326.549804688 223.35546875 326.549804688 288 c 0
 326.549804688 325.03125 342.48046875 351.62890625 342.48046875 374 c 0
EndSplineSet
PickledDataWithLists: "(dp1
S'com.fontlab.hintData'
p2
(dp3
S'vhints'
p4
(lp5
(dp6
S'position'
p7
I41
sS'width'
p8
I192
sa(dp9
g7
I303
sg8
I182
sasS'hhints'
p10
(lp11
(dp12
g7
I-5
sg8
I141
sa(dp13
g7
I322
sg8
I100
sass."
EndChar

StartChar: d
Encoding: 68 100 12
GlifName: d
Width: 625
VWidth: 0
GlyphClass: 2
Flags: W
HStem: -7.41016 123.49<173.886 335.644> -0.158203 684.812<398.421 539.567> 359.128 123.803<171.792 319.018>
VStem: 41.6025 216.776<140.637 332.154> 361.003 217.997<125.34 352.716 437.409 647.157>
LayerCount: 2
Back
Fore
SplineSet
361.003377524 144.080706466 m 1xb8
 360.019754548 330.597624753 l 1
 349.520282623 347.97179189 335.025961858 359.127929688 316.161132812 359.127929688 c 0
 279.588867188 359.127929688 258.37890625 294.263671875 258.37890625 234.069335938 c 0
 258.37890625 178.357421875 276.711914062 116.080078125 315.41796875 116.080078125 c 0
 335.448325102 116.080078125 350.413894465 127.065794041 361.003377524 144.080706466 c 1xb8
579 150.145507812 m 2
 579 38.7080078125 540.791015625 -0.158203125 469.041015625 -0.158203125 c 0x58
 428.107141378 -0.158203125 398.717885914 10.3225434375 381.023945203 39.8365315314 c 1
 338.284554529 8.84966298105 283.974923452 -7.41015625 224.337890625 -7.41015625 c 0
 123.43359375 -7.41015625 41.6025390625 79.5107421875 41.6025390625 234.069335938 c 0
 41.6025390625 389.25390625 119.5859375 482.930664062 223.999023438 482.930664062 c 0xb8
 274.917914306 482.930664062 321.031892795 464.875133285 359.456469363 437.409095738 c 1
 358.78515625 564.705078125 l 2
 358.78515625 651.512695312 406.975585938 684.654296875 469.041015625 684.654296875 c 0x58
 531.885742188 684.654296875 578.6796875 670.8359375 578.6796875 573.69140625 c 2
 579 150.145507812 l 2
EndSplineSet
PickledDataWithLists: "(dp1
S'com.fontlab.hintData'
p2
(dp3
S'vhints'
p4
(lp5
(dp6
S'position'
p7
I37
sS'width'
p8
I189
sa(dp9
g7
I319
sg8
I190
sa(dp10
g7
I333
sg8
I82
sasS'hhints'
p11
(lp12
(dp13
g7
I-5
sg8
I107
sa(dp14
g7
I1
sg8
I595
sa(dp15
g7
I313
sg8
I108
sass."
EndChar

StartChar: e
Encoding: 69 101 13
GlifName: e
Width: 595
VWidth: 0
GlyphClass: 2
Flags: W
HStem: -6.25391 153.16<291.062 429.454> 215.878 63.8311<258.243 350.676> 398.031 86.0547<287.872 346.245>
VStem: 355.12 191.919<281.629 394.683>
LayerCount: 2
Back
Fore
SplineSet
253.037109375 279.708984375 m 1
 290.056640625 280.346679688 323.6328125 280.90234375 328.346679688 280.90234375 c 0
 338.915039062 280.90234375 345.001953125 286.745117188 349.580078125 298.739257812 c 0
 353.081054688 307.370117188 355.120117188 319.73046875 355.120117188 334.97265625 c 0
 355.120117188 372.715820312 346.80859375 398.03125 317.282226562 398.03125 c 0
 289.094726562 398.03125 258.505859375 348.153320312 253.037109375 279.708984375 c 1
320.927734375 -6.25390625 m 0
 163.612304688 -6.25390625 39.9404296875 78.5966796875 39.9404296875 229.302734375 c 0
 39.9404296875 388.249023438 158.184570312 484.0859375 320.927734375 484.0859375 c 0
 484.1484375 484.0859375 547.0390625 419.482421875 547.0390625 328.8359375 c 0
 547.0390625 275.618164062 504.169921875 217.8125 398.836914062 216.99609375 c 2
 258.243164062 215.877929688 l 1
 271.245117188 174.534179688 305.133789062 146.90625 359.736328125 146.90625 c 0
 391.046875 146.90625 422.91015625 151.724609375 448.443359375 157.9921875 c 0
 486.559570312 167.348632812 501.623046875 184.544921875 522.34765625 184.544921875 c 0
 546.326171875 184.544921875 557.997070312 167.904296875 557.997070312 150.35546875 c 0
 557.997070312 105.736328125 474.120117188 -6.25390625 320.927734375 -6.25390625 c 0
EndSplineSet
PickledDataWithLists: "(dp1
S'com.fontlab.hintData'
p2
(dp3
S'vhints'
p4
(lp5
(dp6
S'position'
p7
I300
sS'width'
p8
I176
sasS'hhints'
p9
(lp10
(dp11
g7
I-5
sg8
I133
sa(dp12
g7
I184
sg8
I64
sa(dp13
g7
I346
sg8
I75
sass."
EndChar

StartChar: f
Encoding: 70 102 14
GlifName: f
Width: 470
VWidth: 0
GlyphClass: 2
Flags: W
HStem: 324.826 121.473<41.2963 100.954 318.056 423.404> 543.316 140.347<334.206 386.621>
VStem: 100.152 217.988<41.1067 150.224 446.622 522.415>
LayerCount: 2
Back
Fore
SplineSet
338.64453125 526.06640625 m 0
 351.001953125 536.364257812 366.965820312 543.31640625 408.2265625 543.31640625 c 0
 440.359375 543.31640625 456 561.634765625 456 580.954101562 c 0
 456 619.262695312 403.484375 683.663085938 280.494140625 683.663085938 c 0
 135.08203125 683.663085938 102.944335938 608.879882812 101.83203125 446.298828125 c 1
 42.6806640625 443.115234375 27.0224609375 416.784179688 27.0224609375 383.484375 c 0
 27.0224609375 347.561523438 46.0380859375 326.4765625 100.954101562 324.826171875 c 1
 100.15234375 142.577148438 l 2
 100.15234375 32.12109375 136.43359375 -0.0791015625 208.18359375 -0.0791015625 c 0
 279.932617188 -0.0791015625 318.140625 32.12109375 318.140625 150.223632812 c 2
 318.055664062 324.721679688 l 1
 393.099609375 324.721679688 437.201171875 330.892578125 437.201171875 379.603515625 c 0
 437.201171875 440.03515625 398.71484375 446.622070312 317.958984375 446.622070312 c 1
 317.958984375 488 321.641601562 511.8984375 338.64453125 526.06640625 c 0
EndSplineSet
PickledDataWithLists: "(dp1
S'com.fontlab.hintData'
p2
(dp3
S'vhints'
p4
(lp5
(dp6
S'position'
p7
I86
sS'width'
p8
I190
sasS'hhints'
p9
(lp10
(dp11
g7
I283
sg8
I106
sa(dp12
g7
I473
sg8
I122
sass."
EndChar

StartChar: g
Encoding: 71 103 15
GlifName: g
Width: 624
VWidth: 0
GlyphClass: 2
Flags: W
HStem: -210.279 126.835<189.806 328.429> -5.86523 123.49<177.314 346.033> 360.673 123.802<175.221 322.272>
VStem: 45.0312 216.776<142.182 333.699> 363.557 214.443<-16.7521 22.0723 123.212 354.799>
LayerCount: 2
Back
Fore
SplineSet
363.556814562 144.24817271 m 1
 363.123686602 332.675913757 l 1
 352.650795698 349.744702044 338.260915727 360.672851562 319.58984375 360.672851562 c 0
 283.017578125 360.672851562 261.807617188 295.80859375 261.807617188 235.614257812 c 0
 261.807617188 179.90234375 280.140625 117.625 318.846679688 117.625 c 0
 338.331319095 117.625 353.023387239 128.020102907 363.556814562 144.24817271 c 1
227.766601562 -5.865234375 m 0
 126.862304688 -5.865234375 45.03125 81.0556640625 45.03125 235.614257812 c 0
 45.03125 390.797851562 123.014648438 484.474609375 227.427734375 484.474609375 c 0
 284.832988187 484.474609375 336.131118223 461.525880997 377.188895006 428.01607227 c 1
 393.346219961 458.514246833 422.864704313 476.62109375 463.212890625 476.62109375 c 0
 526.057617188 476.62109375 578 457.226073949 578 366.89453125 c 2
 578 184 l 2
 578 -62.6750678525 519.652289349 -210.279296875 307 -210.279296875 c 0
 153.807617187 -210.279296875 77.4892578125 -115.616406691 77.4892578125 -76.0673828125 c 0
 77.4892578125 -51.2514095997 91.5326320809 -31 119 -31 c 0
 148.189238499 -31 204.48997738 -83.4443359375 258.381835938 -83.4443359375 c 0
 328 -83.4443359375 360 -47.2990750471 360 22.072265625 c 1
 322.115846925 3.70140170114 276.703635369 -5.865234375 227.766601562 -5.865234375 c 0
EndSplineSet
PickledDataWithLists: "(dp1
S'com.fontlab.hintData'
p2
(dp3
S'vhints'
p4
(lp5
(dp6
S'position'
p7
I39
sS'width'
p8
I189
sa(dp9
g7
I323
sg8
I187
sa(dp10
g7
I335
sg8
I82
sasS'hhints'
p11
(lp12
(dp13
g7
I-196
sg8
I122
sa(dp14
g7
I-4
sg8
I107
sa(dp15
g7
I314
sg8
I108
sass."
EndChar

StartChar: h
Encoding: 72 104 16
GlifName: h
Width: 624
VWidth: 0
GlyphClass: 2
Flags: W
HStem: 0.698242 689.729<86.6364 227.704> 324.759 153.821<313.691 494.419>
VStem: 49.2266 217.773<44.7075 316.368 433.883 652.661> 362.817 218.163<44.1113 317.812>
LayerCount: 2
Back
Fore
SplineSet
361.612304688 268.418945312 m 2x70
 361.612304688 313.227539062 342.700195312 324.758789062 317.861328125 324.758789062 c 0x70
 287.670898438 324.758789062 267 305.48828125 267 262 c 2
 267 152.080078125 l 2
 267 39.855374603 229.005859375 0.6982421875 157.256835938 0.6982421875 c 0
 85.5068359375 0.6982421875 49.2265625 33.12890625 49.2265625 144.37890625 c 2
 47 569.6171875 l 2
 47 657.047851562 95.19140625 690.426757812 157.256835938 690.426757812 c 0xb0
 220.100585938 690.426757812 266.895507812 676.510742188 266.895507812 578.66796875 c 2
 267.00390625 433.8828125 l 1
 321.244140625 466.685546875 378.65234375 478.580078125 447.41796875 478.580078125 c 0
 541.419921875 478.580078125 580.98046875 409.581054688 580.98046875 238.459960938 c 0
 580.98046875 37.9013671875 561.829101562 0.181640625 467.818359375 0.181640625 c 0
 390.850585938 0.181640625 362.817382812 29.62109375 362.817382812 82.7646484375 c 2
 361.612304688 268.418945312 l 2x70
EndSplineSet
PickledDataWithLists: "(dp1
S'com.fontlab.hintData'
p2
(dp3
S'vhints'
p4
(lp5
(dp6
S'position'
p7
I49
sS'width'
p8
I190
sa(dp9
g7
I162
sg8
I76
sa(dp10
g7
I321
sg8
I190
sasS'hhints'
p11
(lp12
(dp13
g7
I0
sg8
I21
sa(dp14
g7
I1
sg8
I600
sa(dp15
g7
I282
sg8
I134
sass."
EndChar

StartChar: i
Encoding: 73 105 17
GlifName: i
Width: 305
VWidth: 0
GlyphClass: 2
Flags: W
HStem: 0.0175781 476.986<83.1436 226.792> 540.016 151.983<71.3317 236.756>
VStem: 45.2041 215.051<28.0065 437.382 564.172 666.267>
LayerCount: 2
Back
Fore
SplineSet
260.254882812 106.704101562 m 2
 260.254882812 25.9423828125 230.354492188 0.017578125 146.801757812 0.017578125 c 0
 64.7548828125 0.017578125 45.2041015625 38.2060546875 45.2041015625 117.776367188 c 2
 45.2041015625 364.350585938 l 2
 45.2041015625 431.982421875 84.3046875 477.00390625 146.196289062 477.00390625 c 0
 209.040039062 477.00390625 260.254882812 457.616210938 260.254882812 367.276367188 c 2
 260.254882812 106.704101562 l 2
43.4599609375 616.098632812 m 4
 43.4599609375 558.911132812 96.2919921875 540.015625 151.75 540.015625 c 4
 217.573242188 540.015625 261 555.962890625 261 616.098632812 c 4
 261 667.716796875 223.900390625 691.999023438 151.75 691.999023438 c 4
 80.5810546875 691.999023438 43.4599609375 659.240234375 43.4599609375 616.098632812 c 4
EndSplineSet
PickledDataWithLists: "(dp1
S'com.fontlab.hintData'
p2
(dp3
S'vhints'
p4
(lp5
(dp6
S'position'
p7
I42
sS'width'
p8
I199
sa(dp9
g7
I49
sg8
I189
sasS'hhints'
p10
(lp11
(dp12
g7
I0
sg8
I415
sa(dp13
g7
I451
sg8
I132
sass."
EndChar

StartChar: j
Encoding: 74 106 18
GlifName: j
Width: 340
VWidth: 0
GlyphClass: 2
Flags: W
HStem: -204.472 150.028<-34.1111 47.096> 540.016 151.983<96.3317 261.756>
VStem: 71 217<-27.2842 48.46 356.742 435.127 564.172 666.267>
LayerCount: 2
Back
Fore
SplineSet
68.4599609375 616.098632812 m 0
 68.4599609375 558.911132812 121.291992188 540.015625 176.75 540.015625 c 0
 242.573242188 540.015625 286 555.962890625 286 616.098632812 c 0
 286 667.716796875 248.900390625 691.999023438 176.75 691.999023438 c 0
 105.581054688 691.999023438 68.4599609375 659.240234375 68.4599609375 616.098632812 c 0
288 372.299804688 m 6
 287.677606212 429.338021502 244.91796875 476.690429688 182.07421875 476.690429688 c 4
 119.514648438 476.690429688 71 443.549804688 71 356.7421875 c 6
 71 48.4599609375 l 6
 71 -47.8592241459 25.0830078125 -54.443359375 -37.345703125 -54.443359375 c 4
 -105.196289062 -54.443359375 -128.849609375 -67.6728515625 -128.849609375 -104.2109375 c 4
 -128.849609375 -145.873046875 -44.97265625 -204.471679688 108.220703125 -204.471679688 c 4
 241.383789062 -204.471679688 288 -90 288 46.6201171875 c 4
 288 173.809251753 288 372.299804688 288 372.299804688 c 6
EndSplineSet
PickledDataWithLists: "(dp1
S'com.fontlab.hintData'
p2
(dp3
S'vhints'
p4
(lp5
(dp6
S'position'
p7
I51
sS'width'
p8
I199
sa(dp9
g7
I55
sg8
I190
sasS'hhints'
p10
(lp11
(dp12
g7
I-171
sg8
I130
sa(dp13
g7
I451
sg8
I132
sass."
EndChar

StartChar: k
Encoding: 75 107 19
GlifName: k
Width: 583
VWidth: 0
GlyphClass: 2
Flags: W
HStem: 0.30957 673.465<83.7771 213.23> 0.310547 235.521<430.181 502.345> 141.991 185.84<265.892 333.515>
VStem: 47 212.638<49.2887 141.991 351.911 632.715> 336.795 213.205<24.6671 140.224 331.357 445.516>
LayerCount: 2
Back
Fore
SplineSet
302.21484375 141.991210938 m 2x38
 265.891601562 141.991210938 l 1x38
 265.891601562 80.3515625 227.68359375 0.3095703125 155.932617188 0.3095703125 c 0
 84.1826171875 0.3095703125 47 32.509765625 47 142.967773438 c 2
 47 553.823242188 l 2
 47 643.391601562 88.7734375 670.20703125 155.932617188 673.774414062 c 0x98
 242.4140625 673.774414062 259.637695312 618.551757812 259.637695312 488.831054688 c 0
 259.637695312 441.098632812 256.5859375 388.717773438 251.05078125 350.090820312 c 1
 255.62109375 335.505859375 267.18359375 327.831054688 296.4375 327.831054688 c 0x38
 327.053710938 327.831054688 336.794921875 337.952148438 336.794921875 381.458007812 c 0
 336.794921875 440.991210938 363.465820312 470.430664062 444.796875 470.430664062 c 0
 530.287109375 470.430664062 550 442.831054688 550 366.471679688 c 0
 550 276.310546875 483.454101562 235.831054688 430.094726562 235.831054688 c 1
 483.454101562 235.831054688 550 204.551757812 550 121.751953125 c 0
 550 20.2626953125 530.287109375 0.310546875 444.796875 0.310546875 c 0x58
 363.465820312 0.310546875 336.794921875 29.751953125 336.794921875 89.2841796875 c 0
 336.794921875 134.630859375 327.311523438 141.991210938 302.21484375 141.991210938 c 2x38
EndSplineSet
PickledDataWithLists: "(dp1
S'com.fontlab.hintData'
p2
(dp3
S'vhints'
p4
(lp5
(dp6
S'position'
p7
I43
sS'width'
p8
I186
sa(dp9
g7
I296
sg8
I185
sasS'hhints'
p10
(lp11
(dp12
g7
I0
sg8
I586
sa(dp13
g7
I0
sg8
I205
sa(dp14
g7
I123
sg8
I162
sass."
EndChar

StartChar: l
Encoding: 76 108 20
GlifName: l
Width: 312
VWidth: 0
GlyphClass: 2
Flags: W
HStem: 0.368164 684.813<85.4226 226.567>
VStem: 48.0127 217.987<44.0642 647.684>
LayerCount: 2
Back
Fore
SplineSet
266 150.672851562 m 2
 266 39.2353515625 227.791992188 0.3681640625 156.04296875 0.3681640625 c 0
 84.29296875 0.3681640625 48.0126953125 32.568359375 48.0126953125 143.025390625 c 2
 45.787109375 565.232421875 l 2
 45.787109375 652.040039062 93.9765625 685.181640625 156.04296875 685.181640625 c 0
 218.88671875 685.181640625 265.681640625 671.36328125 265.681640625 574.21875 c 2
 266 150.672851562 l 2
EndSplineSet
PickledDataWithLists: "(dp1
S'com.fontlab.hintData'
p2
(dp3
S'vhints'
p4
(lp5
(dp6
S'position'
p7
I46
sS'width'
p8
I190
sasS'hhints'
p9
(lp10
(dp11
g7
I0
sg8
I595
sass."
EndChar

StartChar: m
Encoding: 77 109 21
GlifName: m
Width: 905
VWidth: 0
GlyphClass: 2
Flags: W
HStem: 0.479492 473.799<87.2119 237.317 375.632 488.63 662.802 796.562> 320.458 153.82<305.702 406.674 581.81 725.258>
VStem: 53 215<28.0065 312.77> 354 199.893<41.248 313.084> 639 218.492<44.4094 311.317>
LayerCount: 2
Back
Fore
SplineSet
639 264.118164062 m 2xb8
 639 308.92578125 619.211914062 320.458007812 594.374023438 320.458007812 c 0x78
 565.747134176 320.458007812 553.892578125 282.866932282 553.892578125 238.759765625 c 0
 553.892578125 38.19921875 536.298828125 0.4794921875 449.931640625 0.4794921875 c 0xb8
 379.70703125 0.4794921875 354 29.9189453125 354 83.0634765625 c 2
 354 264.118164062 l 2
 354 308.92578125 334.01171875 320.458007812 309.173828125 320.458007812 c 0x78
 284.529296875 320.458007812 268 289.572265625 268 246.084960938 c 2
 268 106.704101562 l 2
 268 25.9423828125 238.150390625 0.017578125 154.59765625 0.017578125 c 0
 72.5498046875 0.017578125 53 38.2060546875 53 117.776367188 c 2
 53 364.350585938 l 2
 53 431.982421875 92.099609375 477.00390625 153.9921875 477.00390625 c 0
 200.444335938 477.00390625 240.54296875 466.411132812 258.299804688 424.399414062 c 1
 308.6484375 461.140625 352.479492188 474.278320312 418.033203125 474.278320312 c 0
 465.818359375 474.278320312 501.921875 455.083007812 524.856445312 409.8046875 c 1
 528.141601562 412.73828125 531.596679688 415.541015625 535.229492188 418.19921875 c 0
 591.913085938 459.673828125 651.275390625 474.278320312 723.932617188 474.278320312 c 0
 817.932617188 474.278320312 857.4921875 409.879882812 857.4921875 238.759765625 c 0
 857.4921875 38.19921875 838.341796875 0.4794921875 744.33203125 0.4794921875 c 0
 667.362304688 0.4794921875 639 29.9189453125 639 83.0634765625 c 2
 639 264.118164062 l 2xb8
EndSplineSet
PickledDataWithLists: "(dp1
S'com.fontlab.hintData'
p2
(dp3
S'vhints'
p4
(lp5
(dp6
S'position'
p7
I38
sS'width'
p8
I189
sa(dp9
g7
I148
sg8
I76
sa(dp10
g7
I299
sg8
I174
sa(dp11
g7
I396
sg8
I76
sa(dp12
g7
I547
sg8
I190
sasS'hhints'
p13
(lp14
(dp15
g7
I0
sg8
I415
sa(dp16
g7
I0
sg8
I21
sa(dp17
g7
I279
sg8
I134
sass."
EndChar

StartChar: n
Encoding: 78 110 22
GlifName: n
Width: 616
VWidth: 0
GlyphClass: 2
Flags: W
HStem: -0.105469 21G<104.696 187.496 420.355 505.845> 324.939 153.82<305.304 485.44>
VStem: 44.1221 215.05<27.884 313.87> 353.837 218.163<44.2903 317.992>
LayerCount: 2
Back
Fore
SplineSet
352.631835938 268.598632812 m 2
 352.631835938 313.40625 333.719726562 324.939453125 308.881835938 324.939453125 c 0
 281.170202153 324.939453125 262.114253644 298.915625216 259.171875 261.011894722 c 2
 259.171875 106.58203125 l 2
 259.171875 25.8203125 229.272460938 -0.10546875 145.719726562 -0.10546875 c 0
 63.671875 -0.10546875 44.1220703125 38.083984375 44.1220703125 117.654296875 c 2
 44.1220703125 364.227539062 l 2
 44.1220703125 431.860351562 83.2216796875 476.881835938 145.114257812 476.881835938 c 0
 190.288091286 476.881835938 229.452608687 466.863449734 247.905212473 427.674924472 c 1
 305.142202753 465.33396603 365.381346185 478.759765625 438.439453125 478.759765625 c 0
 532.440429688 478.759765625 572 409.760742188 572 238.640625 c 0
 572 38.080078125 552.849609375 0.3603515625 458.83984375 0.3603515625 c 0
 381.870117188 0.3603515625 353.836914062 29.7998046875 353.836914062 82.9443359375 c 2
 352.631835938 268.598632812 l 2
EndSplineSet
PickledDataWithLists: "(dp1
S'com.fontlab.hintData'
p2
(dp3
S'vhints'
p4
(lp5
(dp6
S'position'
p7
I42
sS'width'
p8
I189
sa(dp9
g7
I153
sg8
I76
sa(dp10
g7
I312
sg8
I190
sasS'hhints'
p11
(lp12
(dp13
g7
I0
sg8
I415
sa(dp14
g7
I0
sg8
I21
sa(dp15
g7
I283
sg8
I134
sass."
EndChar

StartChar: o
Encoding: 79 111 23
GlifName: o
Width: 631
VWidth: 0
GlyphClass: 2
Flags: W
HStem: -6.86816 115.439<287.262 346.776> 368.408 115.292<287.184 346.967>
VStem: 39.0596 223.658<132.753 340.613> 369.438 223.559<132.629 340.722>
LayerCount: 2
Back
Fore
SplineSet
316.965820312 -6.8681640625 m 0
 163.145507812 -6.8681640625 39.0595703125 81.119140625 39.0595703125 235.53125 c 0
 39.0595703125 391.000976562 157.702148438 483.700195312 316.971679688 483.700195312 c 0
 476.279296875 483.700195312 592.99609375 391.000976562 592.99609375 235.53125 c 0
 592.99609375 81.119140625 470.823242188 -6.8681640625 316.965820312 -6.8681640625 c 0
369.4375 237.302734375 m 0
 369.4375 300.1328125 353.047851562 368.408203125 317.95703125 368.408203125 c 0
 281.708984375 368.408203125 262.717773438 299.334960938 262.717773438 237.369140625 c 0
 262.717773438 175.432617188 280.368164062 108.571289062 317.456054688 108.571289062 c 0
 354.54296875 108.571289062 369.4375 174.502929688 369.4375 237.302734375 c 0
EndSplineSet
PickledDataWithLists: "(dp1
S'com.fontlab.hintData'
p2
(dp3
S'vhints'
p4
(lp5
(dp6
S'position'
p7
I35
sS'width'
p8
I194
sa(dp9
g7
I323
sg8
I194
sasS'hhints'
p10
(lp11
(dp12
g7
I-5
sg8
I99
sa(dp13
g7
I320
sg8
I101
sass."
EndChar

StartChar: p
Encoding: 80 112 24
GlifName: p
Width: 621
VWidth: 0
GlyphClass: 2
Flags: W
HStem: -207.91 684.812<86.631 227.776> -6.0918 123.49<291.553 453.718> 360.445 123.803<308.496 455.812>
VStem: 49.2207 217.989<-164.214 27.8809 123.13 354.203> 369.224 216.776<141.956 333.472>
LayerCount: 2
Back
Fore
SplineSet
267.056640625 144.673828125 m 1x78
 277.618164062 128.072265625 292.44140625 117.3984375 312.185546875 117.3984375 c 0
 350.892578125 117.3984375 369.223632812 179.67578125 369.223632812 235.387695312 c 0
 369.223632812 295.58203125 348.015625 360.4453125 311.442382812 360.4453125 c 0
 292.173828125 360.4453125 277.465820312 348.807617188 266.916015625 330.79296875 c 1
 267.056640625 144.673828125 l 1x78
267.209960938 -57.6064453125 m 2
 267.209960938 -169.043945312 229 -207.91015625 157.250976562 -207.91015625 c 0
 85.501953125 -207.91015625 49.220703125 -175.709960938 49.220703125 -65.2529296875 c 2
 46.9951171875 356.953125 l 2
 46.9951171875 443.760742188 95.185546875 476.90234375 157.250976562 476.90234375 c 0x98
 202.356445312 476.90234375 239.193359375 469.784179688 256.395507812 429.848632812 c 1
 297.01953125 462.236328125 347.3828125 484.248046875 403.60546875 484.248046875 c 0
 508.017578125 484.248046875 586 390.571289062 586 235.387695312 c 0
 586 80.828125 504.170898438 -6.091796875 403.265625 -6.091796875 c 0
 352.821289062 -6.091796875 306.188476562 5.5419921875 267.145507812 27.880859375 c 1
 267.209960938 -57.6064453125 l 2
EndSplineSet
PickledDataWithLists: "(dp1
S'com.fontlab.hintData'
p2
(dp3
S'vhints'
p4
(lp5
(dp6
S'position'
p7
I47
sS'width'
p8
I190
sa(dp9
g7
I141
sg8
I82
sa(dp10
g7
I330
sg8
I189
sasS'hhints'
p11
(lp12
(dp13
g7
I-181
sg8
I595
sa(dp14
g7
I-5
sg8
I107
sa(dp15
g7
I313
sg8
I108
sass."
EndChar

StartChar: q
Encoding: 81 113 25
GlifName: q
Width: 626
VWidth: 0
GlyphClass: 2
Flags: W
HStem: -5.75195 123.802<171.298 320.277> 359.946 123.28<287.39 354.084>
VStem: 41 222.524<144.528 333.145> 364.989 217.838<-167.317 43.0576 126.577 350.999>
LayerCount: 2
Back
Fore
SplineSet
364.828125 325.7421875 m 1
 354.6328125 346.165039062 339.059570312 359.946289062 317.114257812 359.946289062 c 0
 280.75 359.946289062 263.524414062 300.705078125 263.524414062 247.70703125 c 0
 263.524414062 185.297851562 283.74609375 118.049804688 317.858398438 118.049804688 c 0
 339.275390625 118.049804688 354.783203125 133.127929688 364.989257812 155.107421875 c 1
 364.828125 325.7421875 l 1
365.883789062 43.0576171875 m 1
 326.106445312 13.5234375 277.461914062 -5.751953125 223.397460938 -5.751953125 c 0
 119.19921875 -5.751953125 41 91.76953125 41 227.469726562 c 0
 41 393.069335938 167.0390625 483.2265625 337.239257812 483.2265625 c 0
 483.51953125 483.2265625 582.827148438 416.625976562 582.827148438 291.8671875 c 2
 585.053710938 -85.4658203125 l 2
 585.053710938 -172.274414062 537.641601562 -205.415039062 474.797851562 -205.415039062 c 0
 400.947265625 -205.415039062 365.299804688 -161.23046875 365.299804688 -94.453125 c 2
 365.883789062 43.0576171875 l 1
EndSplineSet
PickledDataWithLists: "(dp1
S'com.fontlab.hintData'
p2
(dp3
S'vhints'
p4
(lp5
(dp6
S'position'
p7
I34
sS'width'
p8
I188
sa(dp9
g7
I315
sg8
I190
sasS'hhints'
p10
(lp11
(dp12
g7
I-4
sg8
I108
sa(dp13
g7
I314
sg8
I107
sass."
EndChar

StartChar: r
Encoding: 82 114 26
GlifName: r
Width: 472
VWidth: 0
GlyphClass: 2
Flags: W
HStem: 0.0175781 476.986<83.7858 228.077> 322.762 154.232<282.166 394.541>
VStem: 45.8467 215.05<28.0065 321.623>
LayerCount: 2
Back
Fore
SplineSet
260.896484375 106.704101562 m 2x60
 260.896484375 25.9423828125 230.99609375 0.017578125 147.443359375 0.017578125 c 0
 65.396484375 0.017578125 45.8466796875 38.2060546875 45.8466796875 117.776367188 c 2
 45.8466796875 364.350585938 l 2
 45.8466796875 431.982421875 84.9462890625 477.00390625 146.838867188 477.00390625 c 0xa0
 190.071289062 477.00390625 227.799804688 467.829101562 247.137695312 432.690429688 c 1
 278.255859375 456.491210938 319.33984375 476.994140625 359.350585938 476.994140625 c 0
 429.731445312 476.994140625 464 444.958007812 464 377.108398438 c 0
 464 324.208007812 430.650390625 287.408203125 381.200195312 287.408203125 c 0
 329.450195312 287.408203125 331.75 322.76171875 294.032226562 322.76171875 c 0
 278.405273438 322.76171875 267.862304688 317.260742188 260.896484375 307.634765625 c 1
 260.896484375 106.704101562 l 2x60
EndSplineSet
PickledDataWithLists: "(dp1
S'com.fontlab.hintData'
p2
(dp3
S'vhints'
p4
(lp5
(dp6
S'position'
p7
I37
sS'width'
p8
I189
sa(dp9
g7
I128
sg8
I76
sasS'hhints'
p10
(lp11
(dp12
g7
I0
sg8
I415
sa(dp13
g7
I281
sg8
I134
sass."
EndChar

StartChar: s
Encoding: 83 115 27
GlifName: s
Width: 562
VWidth: 0
GlyphClass: 2
Flags: W
HStem: -7.10938 115.324<160.702 299.506> 393.339 90.8311<258.878 371.384>
VStem: 42.3809 213.87<299.861 390.419>
LayerCount: 2
Back
Fore
SplineSet
280.8359375 484.169921875 m 0
 412.349636476 484.169921875 498.046875 418.665039062 498.046875 363.305664062 c 0
 498.046875 347.060737276 482.172227676 328.201516235 458.999998801 328.201516235 c 0
 413.145505782 328.201516235 380.796451148 393.338867188 295.028320312 393.338867188 c 0
 272.892578125 393.338867188 256.250976562 387.16796875 256.250976562 368.555664062 c 0
 256.250976562 331.548828125 334.696289062 328.534179688 393.360351562 300.291015625 c 1
 496.630859375 260.493164062 524 218.75390625 524 149.405273438 c 0
 524 80.2236328125 449.076171875 -7.109375 265.297851562 -7.109375 c 0
 123.816324091 -7.109375 40.6303733429 56.178848684 40.6303733429 112.000002248 c 0
 40.6303733429 137.890129815 59.0981978471 153.214284745 89.0000023814 153.214284745 c 0
 140.316170663 153.214284745 171.841725082 108.21484375 245.578125 108.21484375 c 0
 275.716796875 108.21484375 301.177734375 114.353515625 301.177734375 135.260742188 c 0
 301.177734375 167.342773438 189.581054688 165.004882812 120.581054688 207.819335938 c 1
 58.8232421875 235.5 42.380859375 274.94140625 42.380859375 324.780273438 c 0
 42.380859375 418.215820312 139.92578125 484.169921875 280.8359375 484.169921875 c 0
EndSplineSet
PickledDataWithLists: "(dp1
S'com.fontlab.hintData'
p2
(dp3
S'vhints'
p4
(lp5
(dp6
S'position'
p7
I39
sS'width'
p8
I186
sasS'hhints'
p9
(lp10
(dp11
g7
I-5
sg8
I104
sa(dp12
g7
I340
sg8
I81
sass."
EndChar

StartChar: t
Encoding: 84 116 28
GlifName: t
Width: 501
VWidth: 0
GlyphClass: 2
Flags: W
HStem: 0.148438 167.698<210.649 360.963> 331.259 121.9<314.825 424.902>
VStem: 95.54 219.404<173.708 331.259 453.159 587.087>
LayerCount: 2
Back
Fore
SplineSet
95.5400390625 213.80078125 m 0
 95.959487889 331.631490952 l 1
 45.679762301 334.618591623 28.0673828125 355.447807139 28.0673828125 390.020507812 c 0
 28.0673828125 422.126951083 42.6218779341 447.754810763 96.678831764 452.404815766 c 1
 96.90625 545.229492188 l 0
 96.90625 597.775390625 193.963867188 643.533203125 260.6640625 643.533203125 c 0
 310.063476562 643.533203125 314.483398438 610.893554688 314.483398438 568.229492188 c 0
 314.588809813 453.159179688 l 1
 342.16015625 453.159179688 l 2
 414.765625 452.767578125 438.247070312 437.05859375 438.247070312 386.140625 c 0
 438.247070312 342.348632812 404.682617188 331.258789062 332.796875 331.258789062 c 2
 314.825394474 331.258789062 l 1
 314.944335938 221.16015625 l 0
 314.944335938 177.919921875 321.364257812 167.846679688 343.444335938 167.846679688 c 0
 376.654296875 167.846679688 375.64453125 223 405.2265625 223 c 0
 437.359375 223 453 204.681640625 453 185.361328125 c 0
 453 116.280273438 400.484375 0.1484375 277.494140625 0.1484375 c 0
 143.803710938 0.1484375 95.5400390625 63.0927734375 95.5400390625 213.80078125 c 0
EndSplineSet
PickledDataWithLists: "(dp1
S'com.fontlab.hintData'
p2
(dp3
S'hhints'
p4
(lp5
(dp6
S'position'
p7
I-5
sS'width'
p8
I146
sa(dp9
g7
I283
sg8
I106
sass."
EndChar

StartChar: u
Encoding: 85 117 29
GlifName: u
Width: 625
VWidth: 0
GlyphClass: 2
Flags: W
HStem: 0.510742 153.82<132.262 313.086>
VStem: 45.7031 219.368<160.218 433.83> 358.95 215.05<166.397 228.705 228.705 436.259>
LayerCount: 2
Back
Fore
SplineSet
265.071289062 210.670898438 m 2
 265.071289062 165.86328125 283.983398438 154.331054688 308.821289062 154.331054688 c 0
 339.01171875 154.331054688 358.928710938 185.217773438 358.928710938 228.705078125 c 1
 358.950195312 228.705287773 l 1
 358.950195312 363.227539062 l 2
 358.950195312 430.860351562 398.049804688 475.881835938 459.942382812 475.881835938 c 0
 522.786132812 475.881835938 574 456.493164062 574 366.153320312 c 2
 574 105.58203125 l 2
 574 24.8203125 544.099609375 -1.10546875 460.547851562 -1.10546875 c 0
 406.255511829 -1.10546875 379.329034219 15.6164507514 367.324435219 49.9849796772 c 1
 310.824504788 13.5529548915 251.26864922 0.5107421875 179.262695312 0.5107421875 c 0
 85.26171875 0.5107421875 45.703125 68.359375 45.703125 239.479492188 c 0
 45.703125 440.040039062 64.8525390625 477.759765625 158.862304688 477.759765625 c 0
 235.833007812 477.759765625 263.865234375 447.169921875 263.865234375 394.02734375 c 2
 265.071289062 210.670898438 l 2
EndSplineSet
PickledDataWithLists: "(dp1
S'com.fontlab.hintData'
p2
(dp3
S'vhints'
p4
(lp5
(dp6
S'position'
p7
I45
sS'width'
p8
I191
sa(dp9
g7
I317
sg8
I189
sa(dp10
g7
I318
sg8
I76
sasS'hhints'
p11
(lp12
(dp13
g7
I-1
sg8
I415
sa(dp14
g7
I0
sg8
I134
sass."
EndChar

StartChar: v
Encoding: 86 118 30
GlifName: v
Width: 617
VWidth: 0
GlyphClass: 2
Flags: W
HStem: 0.0195312 150.142<269.779 346.2>
VStem: 44.3516 219.368<154.816 436.737> 351.632 219.368<154.816 436.737>
LayerCount: 2
Back
Fore
SplineSet
306.958984375 150.161132812 m 0
 349.194335938 150.161132812 351.631835938 175.3125 351.631835938 227.12890625 c 2
 352.837890625 388.06640625 l 2
 352.837890625 447.598632812 380.87109375 477.040039062 466.360351562 477.040039062 c 0
 551.850585938 477.040039062 571 438.155273438 571 246.579101562 c 0
 571 60.7392578125 419.618164062 0.01953125 308.595703125 0.01953125 c 0
 197.6328125 0.01953125 44.3515625 60.7392578125 44.3515625 246.579101562 c 0
 44.3515625 438.155273438 63.501953125 477.040039062 148.991210938 477.040039062 c 0
 234.481445312 477.040039062 262.513671875 447.598632812 262.513671875 388.06640625 c 2
 263.719726562 228.048828125 l 2
 263.719726562 177.629882812 263.72265625 150.161132812 306.958984375 150.161132812 c 0
EndSplineSet
PickledDataWithLists: "(dp1
S'com.fontlab.hintData'
p2
(dp3
S'vhints'
p4
(lp5
(dp6
S'position'
p7
I39
sS'width'
p8
I191
sa(dp9
g7
I306
sg8
I191
sasS'hhints'
p10
(lp11
(dp12
g7
I0
sg8
I131
sass."
EndChar

StartChar: w
Encoding: 87 119 31
GlifName: w
Width: 890
VWidth: 0
GlyphClass: 2
Flags: W
HStem: -0.0800781 150.142<266.07 346.246 544.914 626.28>
VStem: 43.1201 219.368<154.716 436.638> 338.44 214.768<175.113 445.365> 629.16 219.368<154.716 436.638>
LayerCount: 2
Back
Fore
SplineSet
590.0078125 150.061523438 m 0
 627.0234375 150.061523438 629.16015625 169.200195312 629.16015625 208.629882812 c 2
 630.365234375 387.966796875 l 2
 630.365234375 447.499023438 658.399414062 476.940429688 743.888671875 476.940429688 c 0
 829.37890625 476.940429688 848.528320312 438.055664062 848.528320312 246.479492188 c 0
 848.528320312 60.6396484375 702.454101562 -0.080078125 595.32421875 -0.080078125 c 0
 548.442382812 -0.080078125 494.4453125 14.9150390625 446.422851562 51.234375 c 1
 398.771484375 14.9150390625 345.07421875 -0.080078125 298.1640625 -0.080078125 c 0
 191.064453125 -0.080078125 43.1201171875 60.6396484375 43.1201171875 246.479492188 c 0
 43.1201171875 438.055664062 62.2705078125 476.940429688 147.759765625 476.940429688 c 0
 233.249023438 476.940429688 261.283203125 447.499023438 261.283203125 387.966796875 c 2
 262.48828125 209.549804688 l 2
 262.48828125 171.041015625 262.491210938 150.061523438 300.208007812 150.061523438 c 0
 330.012695312 150.061523438 342.057617188 157.713867188 346.885742188 173.309570312 c 1
 341.44140625 211.7109375 338.440429688 254.385742188 338.440429688 301.6796875 c 0
 338.440429688 451.623046875 356.645507812 476.794921875 449.504882812 476.794921875 c 0
 534.916015625 476.526367188 553.208007812 451.62109375 553.208007812 301.6796875 c 0
 553.208007812 253.948242188 550.157226562 210.947265625 544.622070312 172.3203125 c 1
 549.19140625 157.735351562 560.754882812 150.061523438 590.0078125 150.061523438 c 0
EndSplineSet
PickledDataWithLists: "(dp1
S'com.fontlab.hintData'
p2
(dp3
S'vhints'
p4
(lp5
(dp6
S'position'
p7
I43
sS'width'
p8
I191
sa(dp9
g7
I299
sg8
I187
sa(dp10
g7
I552
sg8
I191
sasS'hhints'
p11
(lp12
(dp13
g7
I0
sg8
I131
sass."
EndChar

StartChar: x
Encoding: 88 120 32
GlifName: x
Width: 602
VWidth: 0
GlyphClass: 2
Flags: W
HStem: 0.0322266 21G<130.535 186.475 416.851 472.785>
LayerCount: 2
Back
Fore
SplineSet
302.119140625 98.87890625 m 1
 263.278320312 57.955078125 214.075195312 0.0322265625 158.875 0.0322265625 c 0
 102.194335938 0.0322265625 35.3193359375 56.5458984375 35.3193359375 113.39453125 c 0
 35.3193359375 145.57421875 121.52734375 207.829101562 152.720703125 233.6015625 c 1
 110.803710938 271.997070312 42.4501953125 313.327148438 42.4501953125 384.079101562 c 0
 42.4501953125 429.250976562 96.40234375 476.049804688 143.419921875 476.049804688 c 0
 209.630859375 476.049804688 255.390625 398.521484375 302.401367188 352.684570312 c 1
 347.665039062 398.647460938 394.147460938 476.049804688 459.899414062 476.049804688 c 0
 508.421875 476.049804688 561.4453125 426.165039062 561.4453125 382.928710938 c 0
 561.4453125 323.489257812 489.143554688 268.909179688 450.598632812 233.6015625 c 1
 481.793945312 207.829101562 568 145.57421875 568 113.39453125 c 0
 568 56.5458984375 501.125 0.0322265625 444.444335938 0.0322265625 c 0
 389.256835938 0.0322265625 340.758789062 58.16796875 302.119140625 98.87890625 c 1
EndSplineSet
PickledDataWithLists: "(dp1
S'com.fontlab.hintData'
p2
(dp3
S'hhints'
p4
(lp5
(dp6
S'position'
p7
I0
sS'width'
p8
I21
sass."
EndChar

StartChar: y
Encoding: 89 121 33
GlifName: y
Width: 607
VWidth: 0
GlyphClass: 2
Flags: W
HStem: -210.279 127.134<173.101 313.735> -4.29816 153.473<163.432 335.366>
VStem: 45 215.918<154.829 431.33> 344 219.598<152.285 438.983>
LayerCount: 2
Back
Fore
SplineSet
563.59765625 282.395507812 m 0
 563.59765625 180.131835938 563.181452287 107.653456763 554.3984375 43.1953125 c 0
 533.166992188 -112.621294672 468 -210.279296875 287.783203125 -210.279296875 c 0
 136.593232873 -210.279296875 61.271484375 -113.994726792 61.271484375 -73.7685546875 c 0
 61.271484375 -54.7215595082 73.62596028 -30.9609375 100 -30.9609375 c 0
 139.08877276 -30.9609375 183.231373454 -83.1455078125 245.165039062 -83.1455078125 c 0
 320.814997375 -83.1455078125 344 -41.6233230756 344 21 c 1
 298.913214098 2.33284659438 259.317910693 -4.29815518464 224.999991317 -4.29815518464 c 0
 101.863350248 -4.29815518464 45 107.628072684 45 214.884765625 c 0
 45 432.944335938 63.5185546875 477.203125 146.189453125 477.203125 c 0
 231.6796875 477.203125 259.711914062 447.763671875 259.711914062 388.231445312 c 2
 260.91796875 227.063476562 l 2
 260.91796875 176.64453125 260.919921875 149.174804688 304.157226562 149.174804688 c 0
 346.391601562 149.174804688 348.830078125 174.328125 348.830078125 226.143554688 c 2
 350.036132812 388.231445312 l 2
 350.036132812 447.763671875 378.068359375 477.203125 463.557617188 477.203125 c 0
 553.869140625 477.203125 563.59765625 411.948242188 563.59765625 282.395507812 c 0
EndSplineSet
PickledDataWithLists: "(dp1
S'com.fontlab.hintData'
p2
(dp3
S'vhints'
p4
(lp5
(dp6
S'position'
p7
I38
sS'width'
p8
I191
sa(dp9
g7
I305
sg8
I191
sasS'hhints'
p10
(lp11
(dp12
g7
I-176
sg8
I122
sass."
EndChar

StartChar: z
Encoding: 90 122 34
GlifName: z
Width: 557
VWidth: 0
GlyphClass: 2
Flags: W
HStem: 0 125.279<319.192 513.668> 350.98 126.02<69.9335 229.156>
LayerCount: 2
Back
Fore
SplineSet
452.400390625 125.536132812 m 2
 509.900390625 125.536132812 525.190429688 103.041015625 525.190429688 54.0771484375 c 0
 525.190429688 7.2587890625 493.51171875 0 422.9609375 0 c 2
 127.640625 0 l 2
 86.240234375 0 36.560546875 31.2802734375 36.560546875 84.640625 c 0
 36.560546875 140.745117188 45.1171875 160.080078125 98.1943359375 213.158203125 c 2
 229.15625 350.897460938 l 1
 155.995117188 350.98046875 l 2
 85.4453125 350.98046875 53.7666015625 368.358398438 53.7666015625 415.176757812 c 0
 53.7666015625 464.140625 69.42578125 477 142.032226562 477 c 2
 445.9609375 477 l 2
 494 477 526 449 526 399.741210938 c 0
 526 355 520 344 470.291015625 287.485351562 c 2
 319.192382812 125.279296875 l 1
 452.400390625 125.536132812 l 2
EndSplineSet
PickledDataWithLists: "(dp1
S'com.fontlab.hintData'
p2
(dp3
S'hhints'
p4
(lp5
(dp6
S'position'
p7
I0
sS'width'
p8
I109
sa(dp9
g7
I305
sg8
I109
sass."
EndChar

StartChar: dotlessi
Encoding: 237 305 35
GlifName: dotlessi
Width: 283
VWidth: 0
GlyphClass: 2
Flags: W
HStem: 0.0175781 476.986<71.8888 215.537>
VStem: 33.9492 215.051<28.0065 437.382>
LayerCount: 2
Back
Fore
SplineSet
249 106.704101562 m 2
 249 25.9423828125 219.099609375 0.017578125 135.546875 0.017578125 c 0
 53.5 0.017578125 33.94921875 38.2060546875 33.94921875 117.776367188 c 2
 33.94921875 364.350585938 l 2
 33.94921875 431.982421875 73.0498046875 477.00390625 134.94140625 477.00390625 c 0
 197.78515625 477.00390625 249 457.616210938 249 367.276367188 c 2
 249 106.704101562 l 2
EndSplineSet
PickledDataWithLists: "(dp1
S'com.fontlab.hintData'
p2
(dp3
S'vhints'
p4
(lp5
(dp6
S'position'
p7
I102
sS'width'
p8
I189
sasS'hhints'
p9
(lp10
(dp11
g7
I0
sg8
I415
sass."
EndChar

StartChar: Tamil.socks
Encoding: 506 -1 37
GlifName: _notdef
Width: 264
VWidth: 0
Flags: W
LayerCount: 2
Back
Fore
SplineSet
-105.650390625 -36.2919921875 m 0
 0.150390625 21.2080078125 22 35.2412109375 22 83.30859375 c 2
 22 133.908203125 l 1
 237.049804688 133.908203125 l 1
 237.049804688 108.608398438 l 2
 237.049804688 29.5947265625 235.64453125 -23.3583984375 226.700195312 -43.19140625 c 0
 200.25 -101.841796875 142.75 -134.041015625 -28.42578125 -215.016601562 c 0
 -68.185546875 -233.825195312 -100.2109375 -242.615234375 -126.349609375 -242.615234375 c 0
 -166.435546875 -242.615234375 -192.676757812 -221.1875 -211.735351562 -182.162109375 c 0
 -219.006835938 -167.272460938 -222.422851562 -154.122070312 -222.422851562 -142.091796875 c 0
 -222.422851562 -102.036132812 -180.28515625 -76.853515625 -105.650390625 -36.2919921875 c 0
EndSplineSet
PickledDataWithLists: "(dp1
S'com.fontlab.hintData'
p2
(dp3
S'vhints'
p4
(lp5
(dp6
S'position'
p7
I48
sS'width'
p8
I189
sa(dp9
g7
I276
sg8
I123
sa(dp10
g7
I457
sg8
I122
sasS'hhints'
p11
(lp12
(dp13
g7
I-5
sg8
I63
sa(dp14
g7
I-5
sg8
I44
sa(dp15
g7
I200
sg8
I64
sa(dp16
g7
I312
sg8
I103
sass."
EndChar

StartChar: uni0082
Encoding: -1 130 38
GlifName: uni0082
Width: 560
VWidth: 0
GlyphClass: 2
Flags: W
HStem: 502.966 167.697<372.905 523.219>
VStem: 259.408 217.988<28.1067 137.225 449.651 497.104>
LayerCount: 2
Back
Fore
SplineSet
477.200195312 449.651367188 m 2
 477.200195312 492.891601562 483.620117188 502.965820312 505.700195312 502.965820312 c 0
 538.91015625 502.965820312 537.900390625 447.811523438 567.483398438 447.811523438 c 0
 599.615234375 447.811523438 615.256835938 466.130859375 615.256835938 485.450195312 c 0
 615.256835938 554.53125 562.740234375 670.663085938 439.75 670.663085938 c 0
 306.060546875 670.663085938 262.228515625 607.715820312 261.24609375 457.01171875 c 2
 259.408203125 129.577148438 l 2
 259.408203125 19.12109375 295.689453125 -13.0791015625 367.439453125 -13.0791015625 c 0
 439.188476562 -13.0791015625 477.396484375 19.12109375 477.396484375 137.224609375 c 2
 477.200195312 449.651367188 l 2
EndSplineSet
PickledDataWithLists: "(dp1
S'com.fontlab.hintData'
p2
(dp3
S'vhints'
p4
(lp5
(dp6
S'position'
p7
I235
sS'width'
p8
I190
sasS'hhints'
p9
(lp10
(dp11
g7
I449
sg8
I146
sass."
EndChar

StartChar: uni0083
Encoding: -1 131 39
GlifName: uni0083
Width: 698
VWidth: 0
GlyphClass: 2
Flags: W
VStem: 242.449 86.4805<271.694 341.691>
LayerCount: 2
Back
Fore
SplineSet
581.201171875 380.713867188 m 0
 581.201171875 306.544921875 545.662109375 247.709960938 461.20703125 247.709960938 c 0
 376.751953125 247.709960938 391.176757812 343.389648438 361.38671875 343.389648438 c 0
 331.59765625 343.389648438 328.081054688 321.04296875 328.9296875 271.694335938 c 1
 242.44921875 271.169921875 l 1
 242.44921875 330.590820312 267.170898438 396.068359375 312.899414062 435.967773438 c 0
 358.626953125 475.868164062 393.7734375 493.284179688 469.51953125 493.284179688 c 0
 545.265625 493.284179688 581.201171875 444.709960938 581.201171875 380.713867188 c 0
EndSplineSet
PickledDataWithLists: "(dp1
S'com.fontlab.hintData'
p2
(dp3
S'vhints'
p4
(lp5
(dp6
S'position'
p7
I217
sS'width'
p8
I75
sass."
EndChar

StartChar: uni0084
Encoding: -1 132 40
GlifName: uni0084
Width: 778
VWidth: 0
GlyphClass: 2
Flags: W
HStem: 0.405273 153.82<207.546 387.518>
VStem: 120.986 219.369<160.113 433.724> 434.212 87.668<166.033 228.6>
LayerCount: 2
Back
Fore
SplineSet
340.35546875 210.565429688 m 0
 340.35546875 165.7578125 359.266601562 154.225585938 384.10546875 154.225585938 c 0
 414.295898438 154.225585938 434.211914062 185.112304688 434.211914062 228.599609375 c 1
 521.879882812 229.455078125 l 1
 521.879882812 171.174804688 506.861328125 98.2958984375 452.450195312 56.484375 c 0
 393.001953125 15.0107421875 330.747070312 0.4052734375 254.546875 0.4052734375 c 0
 160.545898438 0.4052734375 120.986328125 68.25390625 120.986328125 239.374023438 c 0
 120.986328125 439.934570312 140.13671875 477.654296875 234.146484375 477.654296875 c 0
 311.116210938 477.654296875 339.1484375 447.064453125 339.1484375 393.921875 c 0
 339.1484375 327.999023438 340.35546875 256.3046875 340.35546875 210.565429688 c 0
EndSplineSet
PickledDataWithLists: "(dp1
S'com.fontlab.hintData'
p2
(dp3
S'vhints'
p4
(lp5
(dp6
S'position'
p7
I99
sS'width'
p8
I191
sa(dp9
g7
I372
sg8
I76
sasS'hhints'
p10
(lp11
(dp12
g7
I0
sg8
I134
sass."
EndChar

StartChar: uni0085
Encoding: -1 133 41
GlifName: uni0085
Width: 456
VWidth: 0
GlyphClass: 2
Flags: W
HStem: -13.6318 684.812<173.369 314.515>
VStem: 135.96 217.988<30.0644 633.684>
LayerCount: 2
Back
Fore
SplineSet
353.948242188 136.672851562 m 2
 353.948242188 25.2353515625 315.739257812 -13.6318359375 243.989257812 -13.6318359375 c 0
 172.240234375 -13.6318359375 135.959960938 18.568359375 135.959960938 129.026367188 c 2
 133.733398438 551.232421875 l 2
 133.733398438 638.040039062 181.923828125 671.180664062 243.989257812 671.180664062 c 0
 306.833007812 671.180664062 353.627929688 657.36328125 353.627929688 560.21875 c 2
 353.948242188 136.672851562 l 2
EndSplineSet
PickledDataWithLists: "(dp1
S'com.fontlab.hintData'
p2
(dp3
S'vhints'
p4
(lp5
(dp6
S'position'
p7
I102
sS'width'
p8
I190
sasS'hhints'
p9
(lp10
(dp11
g7
I0
sg8
I595
sass."
EndChar

StartChar: uni0087
Encoding: -1 135 42
GlifName: uni0087
Width: 778
VWidth: 0
GlyphClass: 2
Flags: W
HStem: -0.669922 21G<479.925 565.414> 323.908 153.821<365.039 545.01>
VStem: 230.676 87.6689<249.535 312.101> 413.407 218.163<43.26 316.962>
LayerCount: 2
Back
Fore
SplineSet
412.202148438 267.567382812 m 2
 412.202148438 312.375976562 393.290039062 323.908203125 368.451171875 323.908203125 c 0
 338.26171875 323.908203125 318.344726562 293.021484375 318.344726562 249.53515625 c 1
 230.67578125 248.678710938 l 1
 230.67578125 306.959960938 245.696289062 379.83984375 300.10546875 421.649414062 c 0
 359.5546875 463.124023438 421.809570312 477.729492188 498.009765625 477.729492188 c 0
 592.010742188 477.729492188 631.5703125 408.73046875 631.5703125 237.610351562 c 0
 631.5703125 37.0498046875 612.418945312 -0.669921875 518.409179688 -0.669921875 c 0
 441.440429688 -0.669921875 413.407226562 28.76953125 413.407226562 81.9130859375 c 2
 412.202148438 267.567382812 l 2
EndSplineSet
PickledDataWithLists: "(dp1
S'com.fontlab.hintData'
p2
(dp3
S'vhints'
p4
(lp5
(dp6
S'position'
p7
I209
sS'width'
p8
I76
sa(dp9
g7
I368
sg8
I190
sasS'hhints'
p10
(lp11
(dp12
g7
I0
sg8
I21
sa(dp13
g7
I282
sg8
I134
sass."
EndChar

StartChar: uni0089
Encoding: -1 137 43
GlifName: uni0089
Width: 804
VWidth: 0
GlyphClass: 2
Flags: W
HStem: -6.25391 123.49<249.041 409.871> 360.284 123.802<246.948 418.949>
VStem: 116.758 216.777<141.793 333.31> 456.814 93.8389<146.98 326.308>
LayerCount: 2
Back
Fore
SplineSet
299.493164062 -6.25390625 m 0
 198.588867188 -6.25390625 116.7578125 80.666015625 116.7578125 235.225585938 c 0
 116.7578125 390.409179688 194.741210938 484.0859375 299.154296875 484.0859375 c 0
 444.471679688 484.0859375 550.653320312 337.028320312 550.653320312 243.861328125 c 0
 550.653320312 83.7734375 439.822265625 -6.25390625 299.493164062 -6.25390625 c 0
456.814453125 235.225585938 m 0
 456.814453125 295.63671875 436.728515625 360.284179688 391.31640625 360.284179688 c 0
 354.744140625 360.284179688 333.53515625 295.420898438 333.53515625 235.225585938 c 0
 333.53515625 179.512695312 351.8671875 117.236328125 390.573242188 117.236328125 c 0
 437.729492188 117.236328125 456.814453125 178.123046875 456.814453125 235.225585938 c 0
EndSplineSet
PickledDataWithLists: "(dp1
S'com.fontlab.hintData'
p2
(dp3
S'vhints'
p4
(lp5
(dp6
S'position'
p7
I97
sS'width'
p8
I189
sa(dp9
g7
I393
sg8
I82
sasS'hhints'
p10
(lp11
(dp12
g7
I-5
sg8
I107
sa(dp13
g7
I313
sg8
I108
sass."
EndChar

StartChar: uni008A
Encoding: -1 138 44
GlifName: uni008A_
Width: 804
VWidth: 0
GlyphClass: 2
Flags: W
HStem: -6.25391 123.49<257.541 418.371> 360.284 123.802<248.463 420.464>
VStem: 116.758 93.8398<146.98 326.308> 333.877 216.776<141.793 333.31>
LayerCount: 2
Back
Fore
SplineSet
367.918945312 -6.25390625 m 0
 227.58984375 -6.25390625 116.7578125 83.7734375 116.7578125 243.861328125 c 0
 116.7578125 337.028320312 222.940429688 484.0859375 368.2578125 484.0859375 c 0
 472.670898438 484.0859375 550.653320312 390.409179688 550.653320312 235.225585938 c 0
 550.653320312 80.666015625 468.823242188 -6.25390625 367.918945312 -6.25390625 c 0
210.59765625 235.225585938 m 0
 210.59765625 178.123046875 229.682617188 117.236328125 276.838867188 117.236328125 c 0
 315.544921875 117.236328125 333.876953125 179.512695312 333.876953125 235.225585938 c 0
 333.876953125 295.420898438 312.66796875 360.284179688 276.095703125 360.284179688 c 0
 230.68359375 360.284179688 210.59765625 295.63671875 210.59765625 235.225585938 c 0
EndSplineSet
PickledDataWithLists: "(dp1
S'com.fontlab.hintData'
p2
(dp3
S'vhints'
p4
(lp5
(dp6
S'position'
p7
I97
sS'width'
p8
I82
sa(dp9
g7
I286
sg8
I189
sasS'hhints'
p10
(lp11
(dp12
g7
I-5
sg8
I107
sa(dp13
g7
I313
sg8
I108
sass."
EndChar

StartChar: uni008B
Encoding: -1 139 45
GlifName: uni008B_
Width: 628
VWidth: 0
GlyphClass: 2
Flags: W
HStem: 371.08 121.9<91.2437 164.072 381.473 473.577>
VStem: 76.7422 410.18<384.599 477.431>
LayerCount: 2
Back
Fore
SplineSet
390.8359375 492.98046875 m 6
 164.072265625 492.98046875 l 6
 94.5751953125 492.98046875 76.7421875 465.379882812 76.7421875 429.842773438 c 4
 76.7421875 392.40234375 97.3974609375 371.080078125 157.825195312 371.080078125 c 6
 381.47265625 371.080078125 l 6
 453.358398438 371.080078125 486.921875 382.170898438 486.921875 425.962890625 c 4
 486.921875 476.879882812 463.44140625 492.588867188 390.8359375 492.98046875 c 6
EndSplineSet
PickledDataWithLists: "(dp1
S'com.fontlab.hintData'
p2
(dp3
S'hhints'
p4
(lp5
(dp6
S'position'
p7
I348
sS'width'
p8
I106
sass."
EndChar

StartChar: H
Encoding: 40 72 46
GlifName: H_
Width: 780
GlyphClass: 2
Flags: W
HStem: 0 21G<134.739 212.143 568.739 644.267> 256.351 150<288.914 492>
VStem: 57.2832 231.527<43.6965 256.351 406.351 642.633> 492 231<46.2946 256.351 406.351 643.249>
LayerCount: 2
Back
Fore
SplineSet
723 150.3046875 m 2
 723 38.8671875 682.392578125 0 606.140625 0 c 0
 531.336914062 0 494.09375 32.203125 493.510742188 142.657226562 c 2
 492.874023438 256.350585938 l 1
 288.9140625 256.350585938 l 1
 289 150.3046875 l 2
 289 38.8671875 252.14453125 0 172.140625 0 c 0
 97.3369140625 0 59.5107421875 32.201171875 59.5107421875 142.657226562 c 2
 57.283203125 564.864257812 l 2
 57.283203125 651.670898438 107.486328125 684.813476562 172.140625 684.813476562 c 0
 242.236328125 684.813476562 288.606445312 670.995117188 288.6796875 573.850585938 c 2
 288.810546875 406.350585938 l 1
 492 406.350585938 l 1
 492 564.864257812 l 2
 492 651.670898438 541.486328125 684.813476562 606.140625 684.813476562 c 0
 672.939453125 684.813476562 723 670.995117188 723 573.850585938 c 2
 723 150.3046875 l 2
EndSplineSet
PickledDataWithLists: "(dp1
S'com.fontlab.hintData'
p2
(dp3
S'vhints'
p4
(lp5
(dp6
S'position'
p7
I69
sS'width'
p8
I210
sa(dp9
g7
I182
sg8
I357
sa(dp10
g7
I429
sg8
I210
sasS'hhints'
p11
(lp12
(dp13
g7
I0
sg8
I595
sa(dp14
g7
I229
sg8
I120
sass."
EndChar

StartChar: grave
Encoding: 64 96 47
GlifName: grave
Width: 371
VWidth: 0
GlyphClass: 2
Flags: W
HStem: 555.007 219.663
VStem: 36.5508 297.907<628.678 663.519>
LayerCount: 2
Back
Fore
SplineSet
163.083984375 762.00390625 m 0
 156.388476562 765.906280088 136.660546875 774.669921875 115.473632812 774.669921875 c 0
 64.1026321002 774.669921875 36.55078125 718.583880045 36.55078125 678.16796875 c 0
 36.55078125 634.502552496 72.3420897216 614.483890082 99.166015625 604.293945312 c 4
 221.04296875 563.284179688 l 4
 233.098176129 559.264609446 250.300313691 555.006835938 266.583984375 555.006835938 c 0
 308.336185491 555.006835938 334.458007812 582.050210315 334.458007812 615.034179688 c 0
 334.458007812 654.757949297 305.201330606 671.399094811 277.96875 689.553710938 c 0
 163.083984375 762.00390625 l 0
EndSplineSet
EndChar

StartChar: A
Encoding: 33 65 48
GlifName: A_
Width: 712
VWidth: 0
GlyphClass: 2
Flags: W
HStem: 0.480469 21G<109.828 199.267 515.039 604.872> 152.28 138<274 440> 521.807 163.463<299.909 414.011>
VStem: 43.3047 230.695<297.339 459.144> 440 231<58.6073 152.28 290.28 459.144>
LayerCount: 2
Back
Fore
SplineSet
440 152.280273438 m 1
 274 152.280273438 l 1
 274 99.3486328125 l 0
 274 33.1953125 244.09375 0.48046875 154.440429688 0.48046875 c 0
 65.21484375 0.48046875 43.3046875 52.572265625 43.3046875 309.219726562 c 0
 43.3046875 592.661132812 227.8984375 685.26953125 359.935546875 685.26953125 c 0
 491.081054688 685.26953125 671 592.661132812 671 309.219726562 c 0
 671 52.572265625 649.87890625 0.48046875 559.864257812 0.48046875 c 0
 470.213867188 0.48046875 440 33.1953125 440 99.3486328125 c 0
 440 152.280273438 l 1
357.741210938 521.806640625 m 0
 302.946289062 521.806640625 274 496.41015625 274 407.854492188 c 0
 274 290.280273438 l 1
 440 290.280273438 l 5
 440 410.326171875 l 4
 440 496.541015625 409.831054688 521.806640625 357.741210938 521.806640625 c 0
EndSplineSet
EndChar

StartChar: L
Encoding: 44 76 49
GlifName: L_
Width: 608
VWidth: 0
GlyphClass: 2
Flags: W
HStem: 0 172.743<292.194 547.195>
VStem: 62 230.194<172.743 638.592>
LayerCount: 2
Back
Fore
SplineSet
192 0 m 2
 102.12911666 2.8603515625 62 36.9326171875 62 142.41015625 c 2
 62 564.6171875 l 2
 62 636 106.400390625 684.56640625 175.365234375 684.56640625 c 0
 245.459960938 684.56640625 291.832794852 670.749023283 291.903320312 573.603515625 c 2
 292.194335938 172.743164062 l 1
 462.713867188 172.571289062 l 2
 535.318369279 172.498107423 568 160.510742188 568 86.0029296875 c 0
 568 8.2578125 524.274414062 0 453.349609375 0 c 2
 192 0 l 2
EndSplineSet
PickledDataWithLists: "(dp1
S'com.fontlab.hintData'
p2
(dp3
S'vhints'
p4
(lp5
(dp6
S'position'
p7
I93
sS'width'
p8
I210
sasS'hhints'
p9
(lp10
(dp11
g7
I0
sg8
I595
sass."
PairPos2: "'kern' Horizontal Kerning lookup 6 Pontuacao-1" ? dx=0 dy=0 dh=-20 dv=0 dx=0 dy=0 dh=0 dv=0
EndChar

StartChar: O
Encoding: 47 79 50
GlifName: O_
Width: 805
VWidth: 0
GlyphClass: 2
Flags: W
HStem: -6.04102 146.191<354.742 450.122> 543.619 146.947<355.58 449.269>
VStem: 51.5098 246.945<215.18 461.465> 506 247<213.338 463.424>
LayerCount: 2
Back
Fore
SplineSet
402 -6.041015625 m 0
 207.119140624 -6.041015625 51.509765625 118.735351562 51.509765625 338 c 0
 51.509765625 558.767578124 200.213867187 690.56640625 402 690.56640625 c 0
 603.651367187 690.56640625 753 558.767578124 753 338 c 0
 753 118.735351562 596.751953124 -6.041015625 402 -6.041015625 c 0
402 140.150390625 m 0
 473.827228114 140.150390625 506 242.263671874 506 338 c 0
 506 434.65234375 472.187904066 543.619140625 402 543.619140625 c 0
 335.620082492 543.619140625 298.455078125 434.65234375 298.455078125 338 c 0
 298.455078125 242.263671875 333.973826674 140.150390625 402 140.150390625 c 0
EndSplineSet
PickledDataWithLists: "(dp1
S'com.fontlab.hintData'
p2
(dp3
S'vhints'
p4
(lp5
(dp6
S'position'
p7
I22
sS'width'
p8
I226
sa(dp9
g7
I459
sg8
I226
sasS'hhints'
p10
(lp11
(dp12
g7
I-5
sg8
I111
sa(dp13
g7
I487
sg8
I114
sass."
EndChar

StartChar: tilde.case
Encoding: 507 -1 51
GlifName: _notdef000000000000001
Width: 478
VWidth: 0
Flags: W
HStem: 749.068 195.306<71.4995 159.962 317.207 405.771>
LayerCount: 2
Back
Fore
SplineSet
178.0703125 810.547851562 m 5
 178.0703125 776.315571234 145.684674002 749.068359375 104.64453125 749.068359375 c 4
 43.8730465486 749.068359375 32.849609375 783.758569307 32.849609375 832.3359375 c 4
 32.849609375 886.137843601 65.2655392944 944.374023438 129.421875 944.374023438 c 4
 195 944.374023438 259 911 299.466796875 882.89453125 c 5
 299.466796875 915.286644248 331.851512521 944.374023438 372.892578125 944.374023438 c 4
 432.999236147 944.374023438 444.682617188 910.233830806 444.682617188 862.499023438 c 4
 444.682617188 808.313211641 412.8256991 749.068359375 348.114257812 749.068359375 c 4
 259.635739766 749.068359375 219.417812084 810.547851562 178.0703125 810.547851562 c 5
EndSplineSet
PickledDataWithLists: "(dp1
S'com.fontlab.hintData'
p2
(dp3
S'vhints'
p4
(lp5
(dp6
S'position'
p7
I68
sS'width'
p8
I189
sa(dp9
g7
I296
sg8
I123
sa(dp10
g7
I477
sg8
I122
sa(dp11
g7
I632
sg8
I189
sasS'hhints'
p12
(lp13
(dp14
g7
I-5
sg8
I63
sa(dp15
g7
I-5
sg8
I44
sa(dp16
g7
I-1
sg8
I415
sa(dp17
g7
I200
sg8
I64
sa(dp18
g7
I312
sg8
I103
sass."
EndChar

StartChar: tm_NYA
Encoding: 353 2974 52
GlifName: uni0B_9E_
Width: 1611
VWidth: 0
GlyphClass: 2
Flags: W
HStem: -338.051 184.164<674.176 1055.8> -4.81738 77.8975<657.421 838.22> 160.18 153.82<1303.3 1462.17> 236.777 73.3584<791.803 837.826> 378 124<679.069 1049.56 1264.61 1399.09>
VStem: 70.1562 219.862<104.179 304.566> 377.987 218.5<161.229 308.783> 639.739 140.905<128.019 230.267> 847.878 140.843<78.15 232.721> 1049.56 215.05<27.9506 152.861 271.056 378> 1351.7 229.305<23.6137 154.857>
AnchorPoint: "Anchor-1" 1399 0 basechar 0
AnchorPoint: "Anchor-0" 941 0 basechar 0
LayerCount: 2
Back
Fore
SplineSet
847.877929688 154.180664062 m 0xdfe0
 847.877929688 193.763671875 837.552734375 236.77734375 815.4453125 236.77734375 c 0
 792.608398438 236.77734375 780.64453125 193.260742188 780.64453125 154.223632812 c 0
 780.64453125 115.202148438 791.763671875 73.080078125 815.12890625 73.080078125 c 0
 838.494140625 73.080078125 847.877929688 114.618164062 847.877929688 154.180664062 c 0xdfe0
319.982421875 322.63671875 m 0
 299.452148438 281.575195312 290.018554688 239.836914062 290.018554688 199 c 0
 290.018554688 13.236328125 513.360351562 -153.88671875 882.744140625 -153.88671875 c 0
 1064.47949219 -153.88671875 1351.6953125 -72.400390625 1351.6953125 96.6494140625 c 0
 1351.6953125 133.44921875 1343.89355469 160.1796875 1313.23535156 160.1796875 c 0xefe0
 1286.28515625 160.1796875 1264.75488281 143.31640625 1264.61035156 105.711914062 c 0
 1264.30175781 25.9326171875 1234.28027344 0.2744140625 1151.16015625 0.2744140625 c 0
 1069.11230469 0.2744140625 1049.5625 38.4638671875 1049.5625 118.034179688 c 2
 1049.5625 378 l 1
 793.137695312 378 l 2
 668.612304688 378 596.487304688 337.008789062 596.487304688 227.866210938 c 0
 596.487304688 187.865234375 612.575195312 153.299804688 641.724609375 127.004882812 c 1
 640.416992188 135.315429688 639.739257812 144.005859375 639.739257812 153.064453125 c 0
 639.739257812 251.010742188 714.484375 310.135742188 814.82421875 310.135742188 c 0xdfe0
 915.188476562 310.135742188 988.720703125 251.010742188 988.720703125 153.064453125 c 0
 988.720703125 46.4842678454 904.867195349 -4.8173828125 791.987304688 -4.8173828125 c 0
 524.037109375 -4.8173828125 377.987304688 103.68359375 377.987304688 255 c 0
 377.987304688 421.352539062 493.612304688 502 814.987304688 502 c 2
 1331.73730469 502 l 2
 1389.23730469 502 1412.23730469 484.868164062 1412.23730469 438.166015625 c 0
 1412.23730469 398.415039062 1388.11328125 378 1324.61230469 378 c 2
 1264.61230469 378 l 1
 1264.61230469 271.055664062 l 1
 1314.49316406 302.530273438 1355.71679688 314 1423.24414062 314 c 0xefe0
 1501.09863281 314 1581 266.611328125 1581 120.799804688 c 0
 1581 98.6064453125 1579.25195312 74.1328125 1575.04394531 47.19921875 c 0
 1534.79394531 -210.400390625 1218.54394531 -338.05078125 848.244140625 -338.05078125 c 0
 350.751953125 -338.05078125 70.15625 -72.009765625 70.15625 205.899414062 c 0
 70.15625 275.499023438 85.732421875 345.844726562 119.28125 412.938476562 c 0
 141.155273438 456.68359375 178.24609375 482.637695312 217.244140625 482.637695312 c 0
 235.375976562 482.637695312 253.922851562 479.725585938 271.541992188 470.916015625 c 0
 308.666015625 452.354492188 339.1640625 431.532226562 339.1640625 394.5 c 0
 339.1640625 375.461914062 334.733398438 352.139648438 319.982421875 322.63671875 c 0
EndSplineSet
PickledDataWithLists: "(dp1
S'com.fontlab.hintData'
p2
(dp3
S'vhints'
p4
(lp5
(dp6
S'position'
p7
I-190
sS'width'
p8
I191
sa(dp9
g7
I68
sg8
I189
sa(dp10
g7
I296
sg8
I123
sa(dp11
g7
I477
sg8
I122
sa(dp12
g7
I632
sg8
I189
sa(dp13
g7
I744
sg8
I76
sa(dp14
g7
I896
sg8
I199
sasS'hhints'
p15
(lp16
(dp17
g7
I-299
sg8
I160
sa(dp18
g7
I-5
sg8
I63
sa(dp19
g7
I-5
sg8
I44
sa(dp20
g7
I-1
sg8
I415
sa(dp21
g7
I134
sg8
I134
sa(dp22
g7
I200
sg8
I64
sa(dp23
g7
I312
sg8
I103
sass."
EndChar

StartChar: comma
Encoding: 12 44 53
GlifName: comma
Width: 311
VWidth: 0
GlyphClass: 2
Flags: W
HStem: -6.9834 151.983<67.682 148.444>
VStem: 39.8105 230.189<19.1995 112.074>
LayerCount: 2
Back
Fore
SplineSet
39.810546875 69.099609375 m 4
 39.810546875 112.241210938 76.931640625 145 148.100585938 145 c 4
 211.443359375 145 270 123.32421875 270 49.3662109375 c 4
 270 -84.5400390625 129.287109375 -151.973632812 68.75 -151.973632812 c 4
 45.4130859375 -151.973632812 30.232421875 -136.5 30.232421875 -115.083007812 c 4
 30.232421875 -105.39453125 32.55078125 -92.677734375 44.818359375 -86.6767578125 c 4
 102.70703125 -58.359375 125.201171875 -43.130859375 148.444335938 -6.9833984375 c 5
 148.329101562 -6.9833984375 148.21484375 -6.9833984375 148.100585938 -6.9833984375 c 4
 92.6416015625 -6.9833984375 39.810546875 11.912109375 39.810546875 69.099609375 c 4
EndSplineSet
PickledDataWithLists: "(dp1
S'com.fontlab.hintData'
p2
(dp3
S'vhints'
p4
(lp5
(dp6
S'position'
p7
I126
sS'width'
p8
I88
sasS'hhints'
p9
(lp10
(dp11
g7
I-6
sg8
I132
sass."
EndChar

StartChar: plus
Encoding: 11 43 54
GlifName: plus
Width: 552
VWidth: 0
GlyphClass: 2
Flags: W
HStem: 154.691 159.391<63.7424 192.437 351.826 484.946>
VStem: 192.437 159.39<24.8531 154.691 314.082 444.672>
LayerCount: 2
Back
Fore
SplineSet
400.890625 314.08203125 m 2
 480.756493041 314.08203125 506.584960938 290.449272192 506.584960938 227.712890625 c 0
 506.584960938 172.474118564 469.665167802 154.69140625 390.58984375 154.69140625 c 2
 351.826171875 154.69140625 l 1
 351.826171875 91.654296875 l 2
 351.826171875 25.1837162836 321.363822974 2.462890625 274.538085938 2.462890625 c 0
 230.46176398 2.462890625 192.436523438 22.0790995096 192.436523438 98.5244140625 c 2
 192.436523438 154.69140625 l 1
 131.928710938 154.69140625 l 2
 65.4581303459 154.69140625 42.7373046875 185.155214273 42.7373046875 231.98046875 c 0
 42.7373046875 276.056790709 58.5583482024 314.08203125 135.004882812 314.08203125 c 2
 192.436523438 314.08203125 l 1
 192.436523438 360.616210938 l 2
 192.436523438 440.482078978 216.069255775 466.310546875 278.806640625 466.310546875 c 0
 334.042599387 466.310546875 351.826171875 429.390753739 351.826171875 350.315429688 c 2
 351.826171875 314.08203125 l 1
 400.890625 314.08203125 l 2
EndSplineSet
EndChar

StartChar: hyphen
Encoding: 13 45 55
GlifName: hyphen
Width: 393
VWidth: 0
GlyphClass: 2
Flags: W
HStem: 201.58 144.9<54.5178 341.058>
VStem: 35.417 322.583<219.01 327.416>
LayerCount: 2
Back
Fore
SplineSet
261.9140625 346.48046875 m 2
 334.50390625 346.48046875 358 324.99609375 358 267.962890625 c 0
 358 217.74609375 324.419921875 201.580078125 252.55078125 201.580078125 c 2
 116.5 201.580078125 l 2
 56.0859375 201.580078125 35.4169921875 229.274414062 35.4169921875 271.842773438 c 0
 35.4169921875 311.912109375 53.2646484375 346.48046875 122.74609375 346.48046875 c 2
 261.9140625 346.48046875 l 2
EndSplineSet
EndChar

StartChar: tm_RA
Encoding: 362 2992 56
GlifName: uni0B_B_0
Width: 851
VWidth: 0
Flags: W
HStem: 376.006 125.2<305.111 503.499 717.934 819.491>
VStem: 90.2275 215.051<28.0065 376.006> 503.386 215.05<32.5191 376.303>
AnchorPoint: "Anchor-1" 828 0 basechar 0
AnchorPoint: "Anchor-0" 419 -8.51953 basechar 0
LayerCount: 2
Back
Fore
SplineSet
375.735351562 -33.9384765625 m 0
 481.53515625 23.5615234375 503.385742188 37.59375 503.385742188 85.6611328125 c 2
 503.499023438 376.302734375 l 1
 305.111328125 376.005859375 l 1
 305.278320312 106.704101562 l 2
 305.278320312 25.9423828125 275.377929688 0.017578125 191.825195312 0.017578125 c 0
 109.778320312 0.017578125 90.2275390625 38.2060546875 90.2275390625 117.776367188 c 2
 91.404296875 384.104492188 l 2
 94.0947265625 455.561523438 132.021484375 501.206054688 194.750976562 501.206054688 c 2
 757.750976562 502.1484375 l 2
 814.357421875 502.1484375 831 485.821289062 831 437.748046875 c 0
 831 387.6953125 801.451171875 376.797851562 752.000976562 376.797851562 c 2
 717.93359375 376.721679688 l 1
 718.435546875 120.9609375 l 2
 718.435546875 47.1533203125 717.029296875 -2.3125 708.0859375 -20.8388671875 c 0
 681.635742188 -82.90234375 624.135742188 -116.975585938 452.959960938 -202.6640625 c 0
 413.200195312 -221.47265625 381.174804688 -230.262695312 355.03515625 -230.262695312 c 0
 314.94921875 -230.262695312 288.708007812 -212.379882812 269.650390625 -179.809570312 c 0
 262.37890625 -164.919921875 258.961914062 -151.768554688 258.961914062 -139.739257812 c 0
 258.961914062 -99.6826171875 301.100585938 -74.5009765625 375.735351562 -33.9384765625 c 0
EndSplineSet
EndChar

StartChar: uni0B89
Encoding: 341 2953 57
GlifName: uni0B_89
Width: 1095
VWidth: 0
Flags: W
HStem: -0.548828 126.85<67.0096 351.641 627.513 1068.86> 212 61.7422<158.227 200.041> 414.112 108.638<159.714 328.716>
VStem: 24.6748 124.349<277.1 411.18> 208.356 124.295<276.649 412.086> 405.007 229.747<196.342 356.579>
LayerCount: 2
Back
Fore
SplineSet
208.356445312 343.286132812 m 0
 208.356445312 377.227539062 199.245117188 414.112304688 179.735351562 414.112304688 c 0
 159.581054688 414.112304688 149.0234375 376.796875 149.0234375 343.323242188 c 0
 149.0234375 309.862304688 158.8359375 273.7421875 179.456054688 273.7421875 c 0
 200.075195312 273.7421875 208.356445312 309.361328125 208.356445312 343.286132812 c 0
999.556640625 126.30078125 m 2
 1050.15625 126.30078125 1080 114.741210938 1080 63.8515625 c 0
 1080 17.03125 1060.50683594 -0.548828125 1000.70703125 -0.548828125 c 2
 133.201171875 -0.548828125 l 2
 72.7568359375 -0.548828125 52.1181640625 26.4111328125 52.1181640625 63.8515625 c 0
 52.1181640625 112.151367188 86.1044921875 126.30078125 142.8984375 126.30078125 c 2
 331.255859375 126.30078125 l 1
 355.834960938 147.85546875 405.006835938 202.421875 405.006835938 294 c 0
 405.006835938 346.491210938 373.814453125 394.790039062 311.918945312 415.538085938 c 1
 325.206054688 395.405273438 332.651367188 370.776367188 332.651367188 342.329101562 c 0
 332.651367188 258.911132812 264.725585938 212 179.184570312 212 c 0
 93.6640625 212 24.6748046875 258.911132812 24.6748046875 342.329101562 c 0
 24.6748046875 428.579101562 83.0068359375 522.75 308.40625 522.75 c 0
 532.657226562 522.75 634.75390625 408.8359375 634.75390625 227.135742188 c 0
 634.75390625 192.84765625 632.408203125 158.920898438 627.512695312 126.30078125 c 1
 999.556640625 126.30078125 l 2
EndSplineSet
EndChar

StartChar: uni0B8A
Encoding: 342 2954 58
GlifName: uni0B_8A_
Width: 1705
VWidth: 0
Flags: W
HStem: -0.548828 126.85<49.6052 352.414 628.285 1678.47> 154.392 59.7568<874.982 1008.62> 212 61.7422<159 200.813> 339.726 56.2744<970.938 1008.35> 413 88.625<1602.65 1660.89> 414.112 108.638<160.487 329.489> 429 93.7041<871.993 1110.3>
VStem: 25.4473 124.349<277.1 411.18> 209.129 124.295<276.649 412.086> 405.779 229.747<196.342 356.579> 676.447 145.758<270.432 386.971> 855.385 108.093<256.12 337.807> 1015.05 108.044<215.519 339.322> 1172.45 149.833<170.331 248.859 380.916 392.531> 1444.27 149.04<170.331 248.859>
LayerCount: 2
Back
Fore
SplineSet
209.12890625 343.286132812 m 0xb5fe
 209.12890625 377.227539062 200.017578125 414.112304688 180.5078125 414.112304688 c 0
 160.353515625 414.112304688 149.795898438 376.796875 149.795898438 343.323242188 c 0
 149.795898438 309.862304688 159.608398438 273.7421875 180.228515625 273.7421875 c 0
 200.84765625 273.7421875 209.12890625 309.361328125 209.12890625 343.286132812 c 0xb5fe
1588.00097656 126.30078125 m 2
 1668.80371094 126.30078125 1690 114.741210938 1690 63.8515625 c 0
 1690 17.03125 1671.40429688 -0.548828125 1599.50097656 -0.548828125 c 2
 115.794921875 -0.548828125 l 2
 55.361328125 -0.548828125 34.7119140625 26.4111328125 34.7119140625 63.8515625 c 0
 34.7119140625 112.151367188 68.705078125 126.30078125 125.4921875 126.30078125 c 2
 332.028320312 126.30078125 l 1
 356.607421875 147.85546875 405.779296875 202.421875 405.779296875 294 c 0
 405.779296875 346.491210938 374.586914062 394.790039062 312.69140625 415.538085938 c 1
 325.978515625 395.405273438 333.423828125 370.776367188 333.423828125 342.329101562 c 0
 333.423828125 258.911132812 265.498046875 212 179.95703125 212 c 0
 94.4365234375 212 25.447265625 258.911132812 25.447265625 342.329101562 c 0
 25.447265625 428.579101562 83.779296875 522.75 309.178710938 522.75 c 0
 533.4296875 522.75 635.526367188 408.8359375 635.526367188 227.135742188 c 0
 635.526367188 192.84765625 633.180664062 158.920898438 628.28515625 126.30078125 c 1
 1588.00097656 126.30078125 l 2
1172.44726562 380.916015625 m 1
 1172.44726562 248.859375 l 2
 1172.44726562 184.529296875 1187.82128906 153.651367188 1249.01757812 153.651367188 c 0
 1302.97167969 153.651367188 1322.28027344 174.634765625 1322.28027344 240.001953125 c 2
 1322.28027344 413 l 1
 1444.27929688 413 l 1
 1444.27246094 248.859375 l 2
 1444.27246094 184.526367188 1458.85449219 153.651367188 1520.05078125 153.651367188 c 0
 1574.00488281 153.651367188 1593.3125 174.634765625 1593.3125 240.001953125 c 2
 1593.3125 413 l 1
 1602.65136719 413 l 2
 1642.2109375 413 1665.85058594 421.270507812 1665.85058594 459.259765625 c 0
 1665.85058594 491 1652.53710938 501.780273438 1607.25097656 501.780273438 c 2
 1240.34960938 501.625 l 2x99fe
 1213.66796875 499.9765625 1191.58105469 492.96875 1173.23144531 477.928710938 c 1
 1131.65527344 497.258789062 1056.60449219 522.704101562 949.592773438 522.704101562 c 0
 788.677734375 522.704101562 676.447265625 460.631835938 676.447265625 346.12109375 c 0
 676.447265625 239.596679688 780.774414062 154.391601562 972.178710938 154.391601562 c 0
 1058.82856237 154.391601562 1123.09765625 193.773319568 1123.09765625 275.506835938 c 4
 1123.09765625 350.643554688 1066.68945312 396 989.697265625 396 c 0
 912.723632812 396 855.384765625 350.643554688 855.384765625 275.506835938 c 0
 855.384765625 268.556640625 855.905273438 261.889648438 856.909179688 255.514648438 c 1
 834.546875 275.686523438 822.205078125 302.202148438 822.205078125 332.887695312 c 0
 822.205078125 405.500976562 903.8046875 429 981.587890625 429 c 0xd3fe
 1071.953125 429 1135.15820312 403.092773438 1172.44726562 380.916015625 c 1
1015.05371094 276 m 0
 1015.05371094 245.650390624 1007.85449219 214.1484375 989.930664062 214.1484375 c 0xd1fe
 972.0078125 214.1484375 963.477539062 246.065429688 963.477539062 276 c 0
 963.477539062 305.946289063 972.655273438 339.725585938 990.173828125 339.725585938 c 0
 1007.1328125 339.725585938 1015.05371094 306.366210937 1015.05371094 276 c 0
EndSplineSet
EndChar

StartChar: tm_NA
Encoding: 357 2984 59
GlifName: uni0B_A_8
Width: 1036
VWidth: 0
Flags: W
HStem: -248.572 174.192<334.9 708.505> -228.16 170.45<232.073 601.603> 0.0175781 21G<151.671 234.471 515.641 596.568> 146.325 153.675<708.113 880.119> 376.568 125.432<306.147 455.066 670.117 886.998>
VStem: 91.0967 215.051<28.0089 375.879> 455.066 215.051<27.2619 142.142 258.917 376.119> 756.694 229.306<-27.339 133.422>
AnchorPoint: "Anchor-1" 779 0 basechar 0
AnchorPoint: "Anchor-0" 437 0 basechar 0
LayerCount: 2
Back
Fore
SplineSet
306.147460938 106.704101562 m 2xbf
 306.147460938 25.9482421875 276.247070312 0.017578125 192.694335938 0.017578125 c 0
 110.647460938 0.017578125 91.0966796875 38.2119140625 91.0966796875 117.776367188 c 2
 91.0966796875 389.202148438 l 2
 91.0966796875 456.833984375 130.197265625 502 192.088867188 502 c 2
 824.75 502 l 2
 881.833007813 502 897.999023438 485.672851562 897.999023438 437.599609375 c 0
 897.999023438 387.546875 868.450317797 376.676335774 819 376.649414062 c 2
 670.1171875 376.568359375 l 1
 670.1171875 258.916992188 l 1
 712.391601562 286.438476562 767.112304688 300 828.243164062 300 c 0
 931.994140625 300 986 233.30078125 986 56.2001953125 c 0
 986 -106.524414062 915.89453125 -248.572265625 619.194335938 -248.572265625 c 0xbf
 555.200195312 -248.572265625 419.395507812 -228.16015625 381.225585938 -228.16015625 c 0
 256.982421875 -228.16015625 236.856445312 -257.63671875 178.299804688 -257.63671875 c 0
 127.176757812 -257.63671875 89.822265625 -220.029296875 89.822265625 -170.94140625 c 0
 89.822265625 -103.526367188 139.196289062 -57.7099609375 282.822265625 -57.7099609375 c 0x7f
 365.092773438 -57.7099609375 495.450195312 -74.3798828125 591.594726562 -74.3798828125 c 0
 731.5390625 -74.3798828125 756.694335938 -26.5205078125 756.694335938 66.55078125 c 0
 756.694335938 104.899414062 742.706054688 146.325195312 709.822265625 146.325195312 c 0
 686.0625 146.325195312 671.252377123 128.499006195 669.887695312 94.9462890625 c 0
 667.013671875 24.2841796875 636.47265625 0.017578125 556.6640625 0.017578125 c 0
 474.6171875 0.017578125 455.06640625 38.2119140625 455.06640625 117.776367188 c 2
 455.06640625 376.119140625 l 1
 306.147460938 375.87890625 l 1
 306.147460938 106.704101562 l 2xbf
EndSplineSet
EndChar

StartChar: tm_PA
Encoding: 359 2986 60
GlifName: uni0B_A_A_
Width: 843
VWidth: 0
Flags: W
HStem: 0 125.126<305.149 537.95>
VStem: 90.0996 215.05<125.126 474.011> 537.95 215.05<125.317 474.011>
AnchorPoint: "Anchor-1" 752.1 0 basechar 0
AnchorPoint: "Anchor-0" 424 -2 basechar 0
LayerCount: 2
Back
Fore
SplineSet
753 395.3125 m 2
 753 109.896484375 l 2
 753 19.556640625 701.785132347 0.037554065319 638.942382812 0 c 2
 199.349609375 0 l 2
 126 0 90.099609375 45.189453125 90.099609375 112.822265625 c 2
 90.099609375 384.240234375 l 2
 90.099609375 463.810546875 109.649414062 502 191.697265625 502 c 0
 275.25 502 305.149414062 476.07421875 305.149414062 395.3125 c 2
 305.149414062 125.125976562 l 1
 537.950195312 125.317382812 l 1
 537.950195312 384.240234375 l 2
 537.950195312 463.810546875 557.5 502 639.547851562 502 c 0
 723.099609375 502 753 476.07421875 753 395.3125 c 2
EndSplineSet
EndChar

StartChar: tm_TTA
Encoding: 354 2975 61
GlifName: uni0B_9F_
Width: 771
VWidth: 0
Flags: W
HStem: -0.0947266 126.85<304.8 739.696>
VStem: 89.75 215.05<126.755 474.011>
AnchorPoint: "Anchor-0" 424 0 basechar 0
LayerCount: 2
Back
Fore
SplineSet
199 -0.0947265625 m 2
 136.899414062 -0.0947265625 89.75 45.1943359375 89.75 112.822265625 c 2
 89.75 384.240234375 l 2
 89.75 463.810546875 109.299804688 502 191.34765625 502 c 0
 274.899414062 502 304.799804688 476.07421875 304.799804688 395.3125 c 2
 304.799804688 126.754882812 l 1
 645.875 126.754882812 l 2
 729.153320312 126.754882812 751 115.1953125 751 64.3056640625 c 0
 751 17.4853515625 731.875 -0.0947265625 667.430664062 -0.0947265625 c 2
 199 -0.0947265625 l 2
EndSplineSet
EndChar

StartChar: uni0B82
Encoding: 335 2946 62
GlifName: uni0B_82
Width: 0
VWidth: 0
Flags: W
HStem: 515.58 64.8027<-20.6271 21.7637> 727.71 66.0234<-20.7609 21.6925>
VStem: -157.08 126.815<583.907 724.338> 30.2451 126.758<583.651 724.873>
AnchorPoint: "Anchor-0" 300 0 basechar 0
LayerCount: 2
Back
Fore
SplineSet
30.2451171875 653.374023438 m 0
 30.2451171875 688.998046875 20.9521484375 727.709960938 1.0556640625 727.709960938 c 0
 -19.498046875 727.709960938 -30.2646484375 688.544921875 -30.2646484375 653.412109375 c 0
 -30.2646484375 618.29296875 -20.2587890625 580.3828125 0.7705078125 580.3828125 c 0
 21.798828125 580.3828125 30.2451171875 617.767578125 30.2451171875 653.374023438 c 0
0.4931640625 515.580078125 m 0
 -86.72265625 515.580078125 -157.080078125 564.817382812 -157.080078125 652.368164062 c 0
 -157.080078125 740.520507812 -89.80859375 793.733398438 0.49609375 793.733398438 c 0
 90.82421875 793.733398438 157.002929688 740.520507812 157.002929688 652.368164062 c 0
 157.002929688 564.817382812 87.73046875 515.580078125 0.4931640625 515.580078125 c 0
EndSplineSet
EndChar

StartChar: uni0B83
Encoding: 336 2947 63
GlifName: uni0B_83
Width: 779
VWidth: 0
Flags: W
HStem: -70.1953 64.8027<181.47 223.86 556.37 598.761> 141.935 66.0234<181.336 223.789 556.236 598.69> 198.904 64.8027<368.92 411.311> 411.034 66.0234<368.786 411.239>
VStem: 45.0166 126.815<-1.86864 138.562> 232.342 126.758<-2.12483 139.098 267.497 407.662> 419.917 126.815<-1.86864 138.562 266.975 408.198> 607.242 126.758<-2.12483 139.098>
LayerCount: 2
Back
Fore
SplineSet
419.791992188 336.698242188 m 0xbf
 419.791992188 372.322265625 410.499023438 411.034179688 390.602539062 411.034179688 c 0
 370.048828125 411.034179688 359.282226562 371.869140625 359.282226562 336.736328125 c 0
 359.282226562 301.6171875 369.288085938 263.70703125 390.317382812 263.70703125 c 0
 411.345703125 263.70703125 419.791992188 301.091796875 419.791992188 336.698242188 c 0xbf
390.040039062 198.904296875 m 0
 302.82421875 198.904296875 232.466796875 248.141601562 232.466796875 335.692382812 c 0
 232.466796875 423.844726562 299.73828125 477.057617188 390.04296875 477.057617188 c 0
 480.37109375 477.057617188 546.549804688 423.844726562 546.549804688 335.692382812 c 0
 546.549804688 248.141601562 477.27734375 198.904296875 390.040039062 198.904296875 c 0
232.341796875 67.5986328125 m 0
 232.341796875 103.22265625 223.048828125 141.934570312 203.15234375 141.934570312 c 0xdf
 182.598632812 141.934570312 171.83203125 102.76953125 171.83203125 67.63671875 c 0
 171.83203125 32.517578125 181.837890625 -5.392578125 202.8671875 -5.392578125 c 0
 223.895507812 -5.392578125 232.341796875 31.9921875 232.341796875 67.5986328125 c 0
202.58984375 -70.1953125 m 0
 115.374023438 -70.1953125 45.0166015625 -20.9580078125 45.0166015625 66.5927734375 c 0
 45.0166015625 154.745117188 112.288085938 207.958007812 202.592773438 207.958007812 c 0
 292.920898438 207.958007812 359.099609375 154.745117188 359.099609375 66.5927734375 c 0
 359.099609375 -20.9580078125 289.827148438 -70.1953125 202.58984375 -70.1953125 c 0
607.2421875 67.5986328125 m 0
 607.2421875 103.22265625 597.94921875 141.934570312 578.052734375 141.934570312 c 0
 557.499023438 141.934570312 546.732421875 102.76953125 546.732421875 67.63671875 c 0
 546.732421875 32.517578125 556.73828125 -5.392578125 577.767578125 -5.392578125 c 0
 598.795898438 -5.392578125 607.2421875 31.9921875 607.2421875 67.5986328125 c 0
577.490234375 -70.1953125 m 0
 490.274414062 -70.1953125 419.916992188 -20.9580078125 419.916992188 66.5927734375 c 0
 419.916992188 154.745117188 487.188476562 207.958007812 577.493164062 207.958007812 c 0
 667.821289062 207.958007812 734 154.745117188 734 66.5927734375 c 0
 734 -20.9580078125 664.727539062 -70.1953125 577.490234375 -70.1953125 c 0
EndSplineSet
EndChar

StartChar: I
Encoding: 41 73 64
GlifName: I_
Width: 364
VWidth: 0
Flags: W
HStem: -0.24707 684.813<108.327 255.96>
VStem: 70 230<48.7331 644.772>
LayerCount: 2
Back
Fore
SplineSet
300 150.057617188 m 2
 300 44 259.504882812 -0.2470703125 183.252929688 -0.2470703125 c 0
 108.448242188 -0.2470703125 70.5830078125 31.9560546875 70 142.41015625 c 2
 70 564.6171875 l 2
 70 654 118.598632812 684.56640625 183.252929688 684.56640625 c 0
 250.051757812 684.56640625 299.926757812 670.748046875 300 573.603515625 c 2
 300 150.057617188 l 2
EndSplineSet
EndChar

StartChar: E
Encoding: 37 69 65
GlifName: E_
Width: 672
VWidth: 0
Flags: W
HStem: 0 161.518<299.618 596.584> 268.266 138<299.54 550.028> 523.047 161.953<299.353 596.604>
VStem: 69 230.438<161.518 268.266 406.266 523.047>
LayerCount: 2
Back
Fore
SplineSet
470.87890625 406.265625 m 2
 543.484375 406.265625 566.965820312 384.174804688 566.965820312 331.198242188 c 0
 566.965820312 285.185546875 533.401367188 268.265625 461.514648438 268.265625 c 2
 299.540039062 268.265625 l 1
 299.618164062 161.517578125 l 1
 516.71484375 161.31640625 l 2
 589.318363997 161.249128453 622 143.28125 622 86.248046875 c 0
 622 17.6494140625 578.274414062 0 507.349609375 0 c 2
 182.776367188 0 l 2
 107.973632812 0 69 32.51953125 69 142.973632812 c 2
 69 565.1796875 l 2
 69 654 118.122070312 685 182.776367188 685 c 2
 507.349609375 685 l 2
 578.274414062 685 622 667.62109375 622 601.765625 c 0
 622 542.112304688 589.318364067 523.315242456 516.71484375 523.248046875 c 2
 299.352539062 523.046875 l 1
 299.438476562 406.265625 l 1
 470.87890625 406.265625 l 2
EndSplineSet
EndChar

StartChar: T
Encoding: 52 84 66
GlifName: T_
Width: 737
VWidth: 0
Flags: W
HStem: 0 21G<337.489 413.017> 512.137 172.677<78.874 260.312 491.546 674.256>
VStem: 49 650.546<540.719 661.625> 262.261 229.285<43.6977 512.112>
LayerCount: 2
Back
Fore
SplineSet
491.545898438 150.3046875 m 2xd0
 491.545898438 34 451.142578125 0 374.891601562 0 c 0
 300.0859375 0 262.842773438 32.2041015625 262.260742188 142.657226562 c 2xd0
 260.3125 512.112304688 l 1
 175.150390625 512.313476562 l 2
 97.205078125 512.498046875 49 530.452148438 49 602.733398438 c 0
 49 665.02734375 83.94140625 684.813476562 165.78515625 684.813476562 c 0
 594.260742188 684.813476562 l 0
 666.991210938 684.813476562 699.545898438 663.57421875 699.545898438 595.833007812 c 0xe0
 699.545898438 529.063476562 656.134765625 512.448242188 584.895507812 512.313476562 c 2
 491.545898438 512.13671875 l 1
 491.545898438 150.3046875 l 2xd0
EndSplineSet
EndChar

StartChar: F
Encoding: 38 70 67
GlifName: F_
Width: 645
Flags: W
HStem: 268.267 138<292 547.177> 523.049 161.951<291.502 592.604>
VStem: 61 231<47.3076 268.267 406.267 523.049>
LayerCount: 2
Back
Fore
SplineSet
292 139.12109375 m 2
 292 48 251.177734375 0.31640625 174.92578125 0.31640625 c 0
 107.857858857 0.31640625 61.5805053994 32.896569496 61 142.973632812 c 2
 61 565.180664062 l 2
 61 651.986328125 110.271484375 685 174.92578125 685 c 2
 503.348632812 685 l 2
 574.2734375 685 618 667.622070312 618 601.766601562 c 0
 618 542.11328125 585.317382812 523.321289062 512.713867188 523.249023438 c 2
 291.501953125 523.048828125 l 1
 291.587890625 406.266601562 l 1
 468.028320312 406.266601562 l 2
 540.633789062 406.266601562 564.114257812 384.17578125 564.114257812 331.19921875 c 0
 564.114257812 285.186523438 530.549804688 268.266601562 458.6640625 268.266601562 c 2
 292 268.266601562 l 1
 292 139.12109375 l 2
EndSplineSet
EndChar

StartChar: J
Encoding: 42 74 68
GlifName: J_
Width: 658
Flags: W
HStem: -7.08203 142.886<282.921 360.048>
VStem: 51 215.185<148.734 307.377> 368 230<144.851 648.823>
LayerCount: 2
Back
Fore
SplineSet
266.184570312 199.053710938 m 0
 266.184570312 157.860351562 295 135.803710938 320.556640625 135.803710938 c 0
 352.755859375 135.803710938 368 150 368 199.053710938 c 2
 368 564.6171875 l 2
 368 644.904296875 399.14453125 684.56640625 481.705078125 684.56640625 c 0
 547.040039062 684.56640625 597.924804688 661.00390625 598 573.603515625 c 2
 598 203.303710938 l 2
 598 52 502.640625 -7.08203125 335.603515625 -7.08203125 c 0
 114.784179688 -7.08203125 51 126.853515625 51 217.103515625 c 0
 51 303.995117188 71.7919921875 332.5625 161.954101562 332.5625 c 0
 233.625976562 332.5625 271.735351562 305.276367188 271.735351562 261.954101562 c 0
 271.735351562 241.966796875 266.184570312 217.044921875 266.184570312 199.053710938 c 0
EndSplineSet
EndChar

StartChar: K
Encoding: 43 75 69
GlifName: K_
Width: 721
Flags: W
HStem: -0.246094 21G<141.648 217.287 507.782 594.089> 259.654 150.65<300.796 405.736>
VStem: 66 234.75<47.8471 259.654 415.511 646.25> 433.1 231.15<32.4884 236.465 448.947 647.712>
LayerCount: 2
Back
Fore
SplineSet
528.549804688 329.002929688 m 5
 589.5 321.525390625 664.25 262.951171875 664.25 160.75390625 c 4
 664.25 27.3544921875 641.228515625 -0.24609375 546.950195312 -0.24609375 c 4
 468.61328125 -0.24609375 433.099609375 31.9541015625 433.099609375 98.654296875 c 4
 433.099609375 247.580078125 405.809570312 259.654296875 354.099609375 259.654296875 c 6
 300.75 259.654296875 l 5
 300.75 149.25390625 l 6
 300.75 38.8544921875 255.723632812 -0.24609375 178.849609375 -0.24609375 c 4
 104.446289062 -0.24609375 66 35.404296875 66 142.354492188 c 6
 66 558.654296875 l 6
 66 641.454101562 93.29296875 684.567382812 166.200195312 684.567382812 c 4
 237.783203125 684.567382812 296.150390625 672.50390625 296.150390625 575.904296875 c 4
 296.150390625 518.404296875 295 488.50390625 295 451.704101562 c 4
 295 427.5546875 314.646484375 410.3046875 355.25 410.3046875 c 4
 412.170898438 410.3046875 427.349609375 442.50390625 427.349609375 582.8046875 c 4
 427.349609375 650.654296875 460.864257812 684.567382812 544.650390625 684.567382812 c 4
 637.700195312 684.567382812 658.5 651.8046875 658.5 565.5546875 c 4
 658.5 407.491210938 590.650390625 336.634765625 528.549804688 329.002929688 c 5
EndSplineSet
EndChar

StartChar: P
Encoding: 48 80 70
GlifName: P_
Width: 700
VWidth: 0
Flags: W
HStem: 0 685<104.747 259.437> 206 131.069<303.364 390.294> 556.704 128.296<303.1 398.543>
VStem: 61 242.266<48.1607 206 337.069 556.704> 429.085 230.915<375.201 529.4>
LayerCount: 2
Back
Fore
SplineSet
303.40625 150.303710938 m 2x78
 303.40625 38.8662109375 260.801757812 0 180.797851562 0 c 0
 102.174804688 0 61 32.201171875 61 142.657226562 c 2
 61 564.86328125 l 2
 61 651.669921875 115 685 180.797851562 685 c 2x98
 358.672851562 685 l 2
 532.583007812 685 660 590.576171875 660 433.901367188 c 0
 660 287.66796875 525.23828125 206 359.756835938 206 c 2
 303.364257812 206 l 1
 303.40625 150.303710938 l 2x78
429.084960938 448.5 m 0
 429.084960938 546.201171875 389.28476844 556.704101562 303.099609375 556.704101562 c 1
 303.265625 337.069335938 l 1x78
 373.325038629 337.448242188 429.084960938 359.689453125 429.084960938 448.5 c 0
EndSplineSet
EndChar

StartChar: R
Encoding: 50 82 71
GlifName: R_
Width: 720
Flags: W
HStem: 0 21G<136.738 212.266 515.749 594.978> 247.488 149.512<291 409.069> 570 114<290.691 414.21>
VStem: 60 230.801<48.9802 247.488 397 568.635> 442.389 226.611<39.6389 215.129> 444.354 214.465<429.019 541.908>
LayerCount: 2
Back
Fore
SplineSet
291 150.303710938 m 2xf8
 291 46 250.391601562 0 174.139648438 0 c 0
 99.3359375 0 60.58203125 32.203125 60 142.657226562 c 2
 60 564.86328125 l 2
 60 646 109.484375 684 174.139648438 684 c 2
 383.94140625 684 l 2
 548.880859375 684 658.818359375 599.200195312 658.818359375 478.524414062 c 0xf4
 658.818359375 389.651367188 623.969726562 339.630859375 539.232421875 315.668945312 c 1
 598.263671875 312.467773438 669 252.544921875 669 161 c 0
 669 26.4501953125 634.442382812 0 555.513671875 0 c 0
 475.984375 0 442.388671875 32.8857421875 442.388671875 99.3837890625 c 0
 442.388671875 227.108398438 407.174234019 247.836914062 346.291015625 247.836914062 c 2
 291 247.48828125 l 1
 291 150.303710938 l 2xf8
444.353515625 486.22265625 m 0
 444.353515625 551.728573863 397.961861621 570 290.69140625 570 c 1
 290.80078125 397 l 1
 388.758887963 397 444.353515625 416.233514026 444.353515625 486.22265625 c 0
EndSplineSet
EndChar

StartChar: B
Encoding: 34 66 72
GlifName: B_
Width: 733
Flags: W
HStem: 0.790039 134.987<304 422.269> 308.777 103.53<304 416.102> 565.308 118.692<303.891 420.882>
VStem: 73 231<138.327 308.777 412.308 565.308> 444.553 204.447<439.315 542.721> 457.553 216.447<168.895 279.925>
LayerCount: 2
Back
Fore
SplineSet
581.12890625 355.818359375 m 1xf8
 638.635055897 321.641601562 674 273.431640625 674 208.588867188 c 0xf4
 674 105.440429688 593.959960938 0.7900390625 418.672851562 0.7900390625 c 2
 187.020507812 0.7900390625 l 2
 108.397460938 0.7900390625 73 32.9931640625 73 143.447265625 c 2
 73 565.653320312 l 2
 73 632 110 684 187.020507812 684 c 6
 416.272460938 684 l 2
 546.118767104 683.083356476 649 606.564193668 649 491.530273438 c 4
 649 420 624.23212769 386.843437942 581.12890625 355.818359375 c 1xf8
457.552734375 225 m 0
 457.552734375 290.505917613 411.161080371 308.77734375 303.890625 308.77734375 c 1
 304 135.77734375 l 1
 401.958106713 135.77734375 457.552734375 155.010857776 457.552734375 225 c 0
444.552734375 491.530273438 m 0xf8
 444.552734375 549.217141808 402.085870317 565.307617188 303.890625 565.307617188 c 1
 304 412.307617188 l 1
 393.664829537 412.307617188 444.552734375 429.385455196 444.552734375 491.530273438 c 0xf8
EndSplineSet
EndChar

StartChar: S
Encoding: 51 83 73
GlifName: S_
Width: 694
Flags: W
HStem: -6.51953 167.271<220.99 486.982> 567.692 123.839<320.951 459.316>
VStem: 53.7002 258.169<479.553 560.106>
LayerCount: 2
Back
Fore
SplineSet
341.51953125 691.53125 m 0
 508.825195312 691.53125 629.115234375 608.063476562 629.115234375 538.581054688 c 0
 629.115234375 508.567382812 605.780273438 493.521484375 586.25 493.521484375 c 0
 540.049804688 493.521484375 458.623046875 567.692382812 370.51953125 567.692382812 c 0
 335.734375 567.692382812 311.869140625 556.327148438 311.869140625 520.180664062 c 0
 311.869140625 467.9921875 404.6875 435.536132812 506.51953125 376 c 0
 613.388671875 316.01953125 646 266.540039062 646 200.48046875 c 0
 646 104.338867188 600.834960938 -6.51953125 367.30078125 -6.51953125 c 0
 176.87109375 -6.51953125 42.51953125 94.6376953125 42.51953125 160.939453125 c 0
 42.51953125 187.985351562 59.82421875 213.6328125 100.07421875 213.6328125 c 0
 151.671875 213.6328125 241.775390625 160.751953125 329.669921875 160.751953125 c 0
 354.7890625 160.751953125 374.51953125 168.95703125 374.51953125 192.430664062 c 0
 374.51953125 233.584960938 317.024414062 246.578125 167.51953125 332 c 0
 91.2734375 375.564453125 53.7001953125 451.405273438 53.7001953125 502 c 0
 53.7001953125 610 152.473632812 691.53125 341.51953125 691.53125 c 0
EndSplineSet
EndChar

StartChar: V
Encoding: 54 86 74
GlifName: V_
Width: 752
Flags: W
HStem: -6.51953 169.163<310.926 434.24>
VStem: 43.7051 245.373<200.465 597.668> 453.627 245.373<199.337 603.201>
LayerCount: 2
Back
Fore
SplineSet
372.252929688 162.643554688 m 0
 443.393554688 162.643554688 453.626953125 200.392578125 453.626953125 278.162109375 c 0
 453.626953125 347.532226562 455.013671875 476.806640625 455.013671875 581.55078125 c 0
 455.013671875 650.013671875 482.993164062 683.869140625 568.314453125 683.869140625 c 0
 674.1640625 683.869140625 699 625.569335938 699 335.569335938 c 0
 699 78.1181640625 508.887695312 -6.51953125 374.135742188 -6.51953125 c 0
 238.526367188 -6.51953125 43.705078125 78.1181640625 43.705078125 335.569335938 c 0
 43.705078125 625.569335938 71.736328125 683.869140625 185.890625 683.869140625 c 0
 262.553710938 683.869140625 287.69140625 650.013671875 287.69140625 581.55078125 c 0
 287.69140625 476.612304688 289.078125 347.100585938 289.078125 279.220703125 c 0
 289.078125 203.756835938 295.186523438 162.643554688 372.252929688 162.643554688 c 0
EndSplineSet
EndChar

StartChar: N
Encoding: 46 78 75
GlifName: N_
Width: 773
VWidth: 0
Flags: W
HStem: -0.24707 21G<124.713 177.944 572.321 637.816>
VStem: 67 163<20.2768 301.616> 545.286 160.395<380.143 661.616>
LayerCount: 2
Back
Fore
SplineSet
706 95.0205078125 m 2
 705.963867188 37.6416015625 671.6328125 -0.24609375 604 -0.24609375 c 0
 540.641601562 -0.24609375 484.611328125 62.33984375 413 129 c 2
 230 301.616210938 l 1
 230 84.853515625 l 2
 230 16 202.938476562 -0.2470703125 152.950195312 -0.2470703125 c 0
 96.4755859375 -0.2470703125 67 22.7548828125 67 87.1533203125 c 2
 67 570.3671875 l 2
 67 647.997070312 109.33203125 684.56640625 178.861328125 684.56640625 c 0
 229.94140625 684.56640625 252.38671875 670.305664062 291.561523438 632.252929688 c 2
 545.286132812 380.142578125 l 1
 545.434570312 598 l 2
 545.474609375 656.575195312 577.38671875 684.002929688 624.861328125 684.002929688 c 0
 681.440429688 684.002929688 705.641601562 659.817382812 705.680664062 598.903320312 c 2
 706 95.0205078125 l 2
EndSplineSet
EndChar

StartChar: U
Encoding: 53 85 76
GlifName: U_
Width: 737
Flags: W
HStem: -5.68359 168.6<307.578 426.352>
VStem: 58 230.589<181.92 637.35> 442.913 231.087<184.702 647.215>
LayerCount: 2
Back
Fore
SplineSet
673.857421875 564.6171875 m 2
 674 267 l 2
 674 74 590.267578125 -5.68359375 366 -5.68359375 c 0
 150.393554688 -5.68359375 58 86.9052734375 58 267 c 2
 58 565.4921875 l 2
 58 636 105.638671875 684.56640625 168.666015625 684.56640625 c 0
 236.890625 684.56640625 288.588867188 670.766601562 288.588867188 573.603515625 c 2
 288.588867188 247.56640625 l 2
 290.692382812 182.530273438 318.055664062 162.916015625 366 162.916015625 c 0
 435.420898438 162.916015625 442.913085938 201.069335938 442.913085938 247.56640625 c 2
 442.913085938 574.6328125 l 2
 442.913085938 670.421875 495.314453125 684.56640625 557.922851562 684.56640625 c 0
 633.021484375 684.56640625 673.815429688 652.358398438 673.857421875 564.6171875 c 2
EndSplineSet
EndChar

StartChar: D
Encoding: 36 68 77
GlifName: D_
Width: 720
VWidth: 0
Flags: W
HStem: 0 135.556<298.829 374.965> 544.933 139.317<298.55 375.83>
VStem: 68 230.829<137.537 544.933> 433.596 240.404<207.121 474.949>
LayerCount: 2
Back
Fore
SplineSet
328.895507812 684.25 m 2
 534.45703125 684.25 674 558.849609375 674 346.150390625 c 0
 674 181.606445312 598.544921875 0 379.095703125 0 c 2
 181.990234375 0 l 2
 103.366210938 0 68.58203125 32.203125 68 142.657226562 c 2
 68 564.86328125 l 2
 68 654 114.098632812 684.25 181.990234375 684.25 c 2
 328.895507812 684.25 l 2
298.829101562 135.555664062 m 1
 381.1640625 135.555664062 433.595703125 178.204101562 433.595703125 349.599609375 c 0
 433.595703125 508.41015625 377.8046875 543.630859375 298.549804688 544.932617188 c 1
 298.829101562 135.555664062 l 1
EndSplineSet
EndChar

StartChar: M
Encoding: 45 77 78
GlifName: M_
Width: 949
VWidth: 0
Flags: W
LayerCount: 2
Back
Fore
SplineSet
657 366.016601562 m 1
 657 103.81640625 l 2
 658.261908502 24.4768316677 707.07421875 0.31640625 759.518554688 0.31640625 c 0
 821.535042412 0.31640625 884.574687412 19.6376953125 885 99.216796875 c 2
 885 533.916015625 l 2
 885 640.67578125 827.265196731 685.6328125 738.505859375 685.6328125 c 0
 674.806640625 685.6328125 631.865234375 664.017578125 605.868164062 614.416015625 c 0
 463.96875 326 l 1
 329.518554688 619.016601562 l 0
 311.765625 653.462890625 285.391601562 686.6328125 218.505859375 686.6328125 c 0
 104.158203125 686.6328125 66 630.883789062 66 531.616210938 c 2
 66 95.7666015625 l 2
 66.40625 16.1875 95.01171875 0.31640625 149.958007812 0.31640625 c 0
 200.697265625 0.31640625 227.716796875 23.85546875 227.716796875 83.1162109375 c 2
 227.618164062 366.016601562 l 1
 344.418945312 155 l 2
 385.418945312 85 408.418945312 50.916015625 455.418945312 50.916015625 c 0
 488.418945312 50.916015625 510.383789062 66.5087890625 532.418945312 110 c 2
 657 366.016601562 l 1
EndSplineSet
EndChar

StartChar: C
Encoding: 35 67 79
GlifName: C_
Width: 783
Flags: W
HStem: -6.51953 188.905<388.66 539.95> 547.98 143.477<362.686 461.814>
VStem: 51.1895 252.961<271.586 473.277> 472.846 225.26<444.151 536.207>
LayerCount: 2
Back
Fore
SplineSet
472.845703125 497.106445312 m 0
 472.845703125 524.454101562 446.87109375 547.98046875 413.947265625 547.98046875 c 0
 346.850966043 547.98046875 304.150390625 456.8359375 304.150390625 369.965820312 c 0
 304.150390625 263.955078125 368.125976562 182.385742188 470.385742188 182.385742188 c 0
 578.900390625 182.385742188 627.095703125 274.501953125 678.950195312 274.501953125 c 0
 710.518554688 274.501953125 733 244.702148438 733 220.78515625 c 0
 733 156.022460938 624.575195312 -6.51953125 416.051757812 -6.51953125 c 0
 208.55859375 -6.51953125 51.189453125 118.650390625 51.189453125 340.970703125 c 0
 51.189453125 559.62109375 195.591796875 691.45703125 402.251953125 691.45703125 c 0
 564.46875 691.45703125 698.10546875 600.33203125 698.10546875 483.767578125 c 0
 698.10546875 403.181640625 638.688476562 310.732421875 539.799804688 310.732421875 c 0
 492.205508194 310.732421875 436.036132812 337.229492188 436.036132812 395.90625 c 0
 436.036132812 432.337890625 472.845703125 467.950195312 472.845703125 497.106445312 c 0
EndSplineSet
EndChar

StartChar: G
Encoding: 39 71 80
GlifName: G_
Width: 782
Flags: W
HStem: -6.51953 155.342<366.498 468.672> 201.957 133<421.426 481.181> 547.98 143.477<360.107 449.655>
VStem: 51.0576 257.513<223.657 473.458> 452.03 253.994<454.713 542.553>
LayerCount: 2
Back
Fore
SplineSet
452.030273438 516.65625 m 0
 452.030273438 535.056640625 442.955078125 547.98046875 410.715820312 547.98046875 c 0
 363.764648438 547.98046875 308.5703125 505.033203125 308.5703125 344.15625 c 0
 308.5703125 195.806640625 371.880859375 148.822265625 425.120117188 148.822265625 c 0
 454.966796875 148.822265625 481.180664062 167.369306456 481.180664062 201.95703125 c 1
 431.708007812 201.95703125 405.5703125 231.461112741 405.5703125 262.506835938 c 0
 405.5703125 308.506835938 426.15625 334.95703125 489.51953125 334.95703125 c 2
 610.7109375 334.95703125 l 2
 680.740234375 334.95703125 733 311.15162524 733 221.90625 c 0
 733 100.439267041 598 -6.51953125 436 -6.51953125 c 0
 215.375943755 -6.51953125 51.0576171875 118.650390625 51.0576171875 340.970703125 c 0
 51.0576171875 559.62109375 195.950195312 691.45703125 409.01953125 691.45703125 c 0
 627.325195312 691.45703125 706.024414062 606.356445312 706.024414062 517.806640625 c 0
 706.024414062 474.006835938 681.848632812 407.40625 554.3203125 407.40625 c 0
 465.76953125 407.40625 452.030273438 422.428710938 452.030273438 516.65625 c 0
EndSplineSet
EndChar

StartChar: Q
Encoding: 49 81 81
GlifName: Q_
Width: 805
Flags: W
HStem: -250.309 390.117<368.432 658.709> -250.309 203.55<549.87 713.158> 543.277 146.947<356.793 450.764>
VStem: 51.5098 247.945<215.029 462.85> 506.196 246.804<208.336 463.123>
LayerCount: 2
Back
Fore
SplineSet
506.196289062 337.340820312 m 0xb8
 506.196289062 435.337890625 472.71875 543.27734375 403.979492188 543.27734375 c 0
 334.5078125 543.27734375 299.455078125 433.993164062 299.455078125 337.340820312 c 0
 299.455078125 241.604492188 332.883789062 139.80859375 403.979492188 139.80859375 c 0
 476.615234375 139.80859375 506.196289062 240.270507812 506.196289062 337.340820312 c 0xb8
670.208984375 -46.7587890625 m 0x78
 720.744140625 -49.32421875 746.848632812 -74.3583984375 746.848632812 -144.508789062 c 0
 746.848632812 -231.909179688 692.059570312 -250.30859375 625.359375 -250.30859375 c 0xb8
 500 -250.30859375 422.402495199 -194.692236413 385 -156 c 0
 356 -126 330 -66 324.62890625 0.8583984375 c 1
 168.05078125 30.3359375 51.509765625 148.782226562 51.509765625 337.340820312 c 0
 51.509765625 558.108398438 202.193359375 690.224609375 403.979492188 690.224609375 c 0
 605.629882812 690.224609375 753 558.108398438 753 337.340820312 c 0
 753 156.780273438 648.38671875 40.509765625 502.701171875 5.087890625 c 1
 539.948242188 -36.08984375 616.1640625 -44.015625 670.208984375 -46.7587890625 c 0x78
EndSplineSet
EndChar

StartChar: W
Encoding: 55 87 82
GlifName: W_
Width: 1020
VWidth: 0
Flags: W
HStem: -4.23926 161.163<314.358 396.413 626.332 705.787>
VStem: 52 235.373<220.126 605.667> 396.386 230.31<159.37 621.693> 732.258 236.523<221.887 607.428>
LayerCount: 2
Back
Fore
SplineSet
663.184570312 156.923828125 m 0
 717.435115623 156.923828125 732.2578125 216.077148438 732.2578125 337.943359375 c 0
 733.645507812 582.83203125 l 0
 733.645507812 651.294921875 760.574542156 685.150390625 842.696289062 685.150390625 c 0
 937.444335938 685.150390625 968.78125 632.283203125 968.78125 371.811523438 c 0
 968.78125 88.3701171875 795.969726562 -4.2392578125 676.56640625 -4.2392578125 c 0
 625.244140625 -4.2392578125 565.626953125 12.3935546875 513.962890625 53.1357421875 c 1
 462.541015625 11.1123046875 402.690429688 -6 350.930664062 -6 c 0
 229.600585938 -6 52 86.609375 52 370.049804688 c 0
 52 630.521484375 83.119140625 683.389648438 176.935546875 683.389648438 c 0
 259.058188315 683.389648438 285.986328125 649.534179688 285.986328125 581.0703125 c 0
 287.373046875 337.240234375 l 0
 287.373046875 219.376953125 298.961612117 155.163085938 360.547851562 155.163085938 c 0
 392.004882812 155.163085938 404.017578125 180.61328125 408.561523438 232.518554688 c 1
 400.758524372 269.984375 396.385742188 366.474609375 396.385742188 414.361328125 c 0
 396.385742188 631.377929688 413.32225783 662.150390625 507.794921875 662.150390625 c 0
 624.644517466 662.150390625 626.6953125 610.971679688 626.6953125 412.600585938 c 0
 626.6953125 363.0234375 622.042728741 265.234375 613.76953125 226.807617188 c 1
 618.591796875 181.028320312 631.041992188 156.923828125 663.184570312 156.923828125 c 0
EndSplineSet
EndChar

StartChar: Z
Encoding: 58 90 83
GlifName: Z_
Width: 757
VWidth: 0
Flags: W
HStem: 0 161.591<315.045 676.43> 522 162.566<93.9201 397.145>
LayerCount: 2
Back
Fore
SplineSet
598.958984375 161.952148438 m 2
 679.458984375 161.952148438 700.8671875 136.973632812 700.8671875 82.6083984375 c 0
 700.8671875 11.087890625 656.515625 0 557.743164062 0 c 2
 183.497070312 0 l 2
 127.355280053 0 59.984375 55.271484375 59.984375 125.47265625 c 0
 59.984375 204.018554688 83.378099994 227.953271176 141.672851562 290.37109375 c 1
 397.14453125 522.438476562 l 1
 194 522 l 2
 106.405770631 522 67.0732421875 544.922347586 67.0732421875 606.6796875 c 0
 67.0732421875 668.457840116 105.764445605 684.521831291 164 684.56640625 c 2
 572.943359375 685 l 2
 657.951167607 684.973063209 685 618.610351562 685 585.067382812 c 0
 685 499.01953125 661.835858308 487.653953554 607.0078125 431.360351562 c 1
 315.044921875 161.590820312 l 1
 598.958984375 161.952148438 l 2
EndSplineSet
EndChar

StartChar: Y
Encoding: 57 89 84
GlifName: Y_
Width: 711
VWidth: 0
Flags: W
HStem: 0 21G<314.558 390.461>
VStem: 239.329 230.671<46.2955 300.492>
LayerCount: 2
Back
Fore
SplineSet
470 150.303710938 m 2
 470 38.8662109375 428.961914062 0 351.959960938 0 c 0
 277.155273438 0 240.345703125 32.205078125 239.329101562 142.657226562 c 2
 237.834960938 305.060546875 l 1
 83.568359375 484.791015625 l 2
 57.6669921875 514.967773438 42 541.083984375 42 568.099609375 c 0
 42 599.77734375 54.7099609375 632.920898438 84.0341796875 654.890625 c 0
 106.778320312 671.930664062 129.659179688 684.659179688 154.868164062 684.659179688 c 0
 178.458007812 684.659179688 205.879882812 675.594726562 231.717773438 645.649414062 c 2
 354.301757812 503.579101562 l 1
 455.803710938 623.443359375 l 2
 493.56640625 668.038085938 532.81640625 684.129882812 565.418945312 684.129882812 c 0
 588.779296875 684.129882812 612.279296875 679.530273438 631.53125 660.27734375 c 0
 658.008789062 633.798828125 673.016601562 608.485351562 673.016601562 580.75 c 0
 673.016601562 550.250976562 651.02734375 520.12109375 614.364257812 475.6953125 c 2
 470 300.4921875 l 1
 470 150.303710938 l 2
EndSplineSet
EndChar

StartChar: X
Encoding: 56 88 85
GlifName: X_
Width: 763
Flags: W
HStem: 0 20.4697G<160.016 190.029 582.833 609.279>
LayerCount: 2
Back
Fore
SplineSet
232.698242188 340.400390625 m 1
 96.1982421875 473.411132812 l 2
 69.10546875 501.8984375 54.6298828125 529.704101562 54.6298828125 556.719726562 c 0
 54.6298828125 588.3984375 69.3408203125 619.09765625 96.6640625 643.51171875 c 0
 123.100585938 667.133789062 149.697265625 684.780273438 178.998046875 684.780273438 c 0
 202.587890625 684.780273438 230.490234375 676.11328125 255.84765625 645.76953125 c 2
 384.180664062 482.200195312 l 1
 490.283203125 623.563476562 l 2
 526.989257812 669.008789062 567.295898438 684.25 599.8984375 684.25 c 0
 627.323242188 684.25 653.444335938 672.962890625 677.510742188 648.897460938 c 0
 703.989257812 622.419921875 718.99609375 597.106445312 718.99609375 569.370117188 c 0
 718.99609375 538.87109375 700.17578125 505.4921875 660.34375 464.315429688 c 2
 541.598632812 351.900390625 l 1
 677.427734375 210.838867188 l 2
 703.8046875 181.268554688 718.99609375 154.545898438 718.99609375 127.530273438 c 0
 718.99609375 95.8515625 704.28515625 65.15234375 676.961914062 40.73828125 c 0
 650.525390625 17.1162109375 623.930664062 -0.5302734375 594.627929688 -0.5302734375 c 0
 571.038085938 -0.5302734375 542.802734375 7.8623046875 517.778320312 38.48046875 c 2
 389.4453125 205.5 l 1
 283.342773438 60.6865234375 l 2
 247.21484375 14.783203125 206.330078125 0 173.727539062 0 c 0
 146.303710938 0 120.544921875 12.072265625 96.115234375 36.501953125 c 0
 69.63671875 62.98046875 54.6298828125 88.2939453125 54.6298828125 116.030273438 c 0
 54.6298828125 146.528320312 74.4189453125 178.705078125 113.282226562 221.083984375 c 2
 232.698242188 340.400390625 l 1
EndSplineSet
EndChar

StartChar: exclam
Encoding: 1 33 88
GlifName: exclam
Width: 349
VWidth: 0
Flags: W
HStem: -6.51953 151.982<91.3897 262.821> 185.421 506<112.994 235.598>
VStem: 62.5293 229.04<21.222 119.88 414.868 665.572> 96.3496 156.4<201.873 434.16>
LayerCount: 2
Back
Fore
SplineSet
293 601.984375 m 0xd0
 293 663.821289062 260.372070312 691.420898438 169.197265625 691.420898438 c 0
 77.8623046875 691.420898438 56.099609375 652.321289062 56.099609375 590.912109375 c 0
 56.099609375 494.756835938 96.349609375 362.9296875 96.349609375 266.546875 c 0
 96.349609375 211.576171875 113.830078125 185.420898438 172.041992188 185.420898438 c 0
 229.28125 185.420898438 252.75 209.40234375 252.75 263.62109375 c 0
 252.75 361.780273438 293 500.694335938 293 601.984375 c 0xd0
62.529296875 69.3798828125 m 0xe0
 62.529296875 126.568359375 117.661132812 145.462890625 173.119140625 145.462890625 c 0
 238.942382812 145.462890625 291.569335938 129.515625 291.569335938 69.3798828125 c 0
 291.569335938 17.7626953125 245.26953125 -6.51953125 173.119140625 -6.51953125 c 0
 101.950195312 -6.51953125 62.529296875 26.23828125 62.529296875 69.3798828125 c 0xe0
EndSplineSet
EndChar

StartChar: exclamdown
Encoding: 103 161 89
GlifName: exclamdown
Width: 341
VWidth: 0
Flags: W
HStem: -6.51953 506<114.685 220.922> 539.438 151.982<84.8204 256.252>
VStem: 55.96 229.04<565.022 663.679> 61.0303 215.051<19.3289 258.864> 101.28 134.551<250.741 485.186>
LayerCount: 2
Back
Fore
SplineSet
276.081054688 82.9169921875 m 0xd0
 276.081054688 21.080078125 246.180664062 -6.51953125 162.627929688 -6.51953125 c 0
 80.5810546875 -6.51953125 61.0302734375 32.580078125 61.0302734375 93.9892578125 c 0xd0
 61.0302734375 190.14453125 101.280273438 321.971679688 101.280273438 418.354492188 c 0
 101.280273438 473.325195312 116.104492188 499.48046875 165.47265625 499.48046875 c 0
 215.372070312 499.48046875 235.831054688 475.499023438 235.831054688 421.280273438 c 0xc8
 235.831054688 323.12109375 276.081054688 184.20703125 276.081054688 82.9169921875 c 0xd0
55.9599609375 615.521484375 m 0xe0
 55.9599609375 558.333007812 111.091796875 539.438476562 166.549804688 539.438476562 c 0
 232.373046875 539.438476562 285 555.385742188 285 615.521484375 c 0
 285 667.138671875 238.700195312 691.420898438 166.549804688 691.420898438 c 0
 95.380859375 691.420898438 55.9599609375 658.663085938 55.9599609375 615.521484375 c 0xe0
EndSplineSet
EndChar

StartChar: question
Encoding: 31 63 90
GlifName: question
Width: 577
VWidth: 0
Flags: W
HStem: -6.51953 151.982<171.14 342.571> 586.078 105.343<240.834 298.039>
VStem: 23.5635 216.345<507.033 585.074> 142.279 229.04<21.222 119.88> 320.75 205.25<410.074 564.875>
LayerCount: 2
Back
Fore
SplineSet
526 511.408203125 m 4xe8
 526 631.62109375 428.83203125 691.420898438 257.158203125 691.420898438 c 4
 88.53515625 691.420898438 23.5634765625 639.944335938 23.5634765625 567.716796875 c 4
 23.5634765625 526.024414062 56.392578125 454.529296875 169.098632812 454.529296875 c 4
 216.11328125 454.529296875 255.153320312 459.110351562 255.153320312 506.377929688 c 4
 255.153320312 528.724609375 239.908203125 548.081054688 239.908203125 561.303710938 c 4
 239.908203125 576.1328125 245.591796875 586.078125 265.782226562 586.078125 c 4
 299.372070312 586.078125 320.75 536.342773438 320.75 488.939453125 c 4
 320.75 366.110351562 186.920898438 308.412109375 186.920898438 230.271484375 c 4
 186.920898438 192.298828125 214.450195312 178.521484375 259.561523438 178.521484375 c 4
 338.401367188 178.521484375 526 327.663085938 526 511.408203125 c 4xe8
142.279296875 69.3798828125 m 0xd0
 142.279296875 126.568359375 197.411132812 145.462890625 252.869140625 145.462890625 c 0
 318.692382812 145.462890625 371.319335938 129.515625 371.319335938 69.3798828125 c 0
 371.319335938 17.7626953125 325.01953125 -6.51953125 252.869140625 -6.51953125 c 0
 181.701171875 -6.51953125 142.279296875 26.23828125 142.279296875 69.3798828125 c 0xd0
EndSplineSet
EndChar

StartChar: questiondown
Encoding: 133 191 91
GlifName: questiondown
Width: 583
VWidth: 0
Flags: W
HStem: -7.39258 105.343<255.271 312.476> 538.565 151.982<185.576 357.008>
VStem: 38 216.345<98.9538 176.995> 156.716 229.04<564.148 662.806> 335.187 205.25<119.153 273.954>
LayerCount: 2
Back
Fore
SplineSet
540.436523438 172.620117188 m 0xe8
 540.436523438 52.4072265625 443.268554688 -7.392578125 271.594726562 -7.392578125 c 0
 102.971679688 -7.392578125 38 44.083984375 38 116.311523438 c 0
 38 158.00390625 70.8291015625 229.499023438 183.53515625 229.499023438 c 0
 230.549804688 229.499023438 269.58984375 224.91796875 269.58984375 177.650390625 c 0
 269.58984375 155.303710938 254.344726562 135.947265625 254.344726562 122.724609375 c 0
 254.344726562 107.895507812 260.028320312 97.9501953125 280.21875 97.9501953125 c 0
 313.80859375 97.9501953125 335.186523438 147.685546875 335.186523438 195.088867188 c 0
 335.186523438 317.91796875 201.357421875 375.616210938 201.357421875 453.756835938 c 0
 201.357421875 491.729492188 228.88671875 505.506835938 273.998046875 505.506835938 c 0
 352.837890625 505.506835938 540.436523438 356.365234375 540.436523438 172.620117188 c 0xe8
156.715820312 614.6484375 m 0xd0
 156.715820312 557.459960938 211.84765625 538.565429688 267.305664062 538.565429688 c 0
 333.12890625 538.565429688 385.755859375 554.512695312 385.755859375 614.6484375 c 0
 385.755859375 666.265625 339.456054688 690.547851562 267.305664062 690.547851562 c 0
 196.137695312 690.547851562 156.715820312 657.790039062 156.715820312 614.6484375 c 0xd0
EndSplineSet
EndChar

StartChar: quoteleft
Encoding: 463 8216 92
GlifName: quoteleft
Width: 320
VWidth: 0
Flags: W
HStem: 376.343 151.983<156.556 237.318>
VStem: 35 230.189<409.269 502.143>
LayerCount: 2
Back
Fore
SplineSet
265.189453125 452.243164062 m 0
 265.189453125 509.430664062 212.358398438 528.326171875 156.899414062 528.326171875 c 0
 156.78515625 528.326171875 156.670898438 528.326171875 156.555664062 528.326171875 c 1
 179.798828125 564.473632812 202.29296875 579.702148438 260.181640625 608.01953125 c 0
 272.44921875 614.020507812 274.767578125 626.737304688 274.767578125 636.42578125 c 0
 274.767578125 657.842773438 259.586914062 673.31640625 236.25 673.31640625 c 0
 175.712890625 673.31640625 35 605.8828125 35 471.9765625 c 0
 35 398.018554688 93.556640625 376.342773438 156.899414062 376.342773438 c 0
 228.068359375 376.342773438 265.189453125 409.1015625 265.189453125 452.243164062 c 0
EndSplineSet
EndChar

StartChar: quoteright
Encoding: 464 8217 93
GlifName: quoteright
Width: 330
VWidth: 0
Flags: W
HStem: 521.333 151.983<80.682 161.444>
VStem: 52.8105 230.189<547.516 640.39>
LayerCount: 2
Back
Fore
SplineSet
52.810546875 597.416015625 m 4
 52.810546875 540.228515625 105.641601562 521.333007812 161.100585938 521.333007812 c 4
 161.21484375 521.333007812 161.329101562 521.333007812 161.444335938 521.333007812 c 5
 138.201171875 485.185546875 115.70703125 469.95703125 57.818359375 441.639648438 c 4
 45.55078125 435.638671875 43.232421875 422.921875 43.232421875 413.233398438 c 4
 43.232421875 391.81640625 58.4130859375 376.342773438 81.75 376.342773438 c 4
 142.287109375 376.342773438 283 443.776367188 283 577.682617188 c 4
 283 651.640625 224.443359375 673.31640625 161.100585938 673.31640625 c 4
 89.931640625 673.31640625 52.810546875 640.557617188 52.810546875 597.416015625 c 4
EndSplineSet
EndChar

StartChar: quotedblleft
Encoding: 466 8220 94
GlifName: quotedblleft
Width: 601
VWidth: 0
Flags: W
HStem: 376.343 151.983<161.557 242.319 441.007 521.768>
VStem: 40 230.19<409.269 502.143> 319.45 230.189<409.269 502.143>
LayerCount: 2
Back
Fore
SplineSet
270.190429688 452.243164062 m 0
 270.190429688 509.430664062 217.358398438 528.326171875 161.900390625 528.326171875 c 0
 161.78515625 528.326171875 161.670898438 528.326171875 161.556640625 528.326171875 c 1
 184.799804688 564.473632812 207.29296875 579.69921875 265.182617188 608.01953125 c 0
 277.44921875 614.020507812 279.768554688 626.737304688 279.768554688 636.42578125 c 0
 279.768554688 657.842773438 264.586914062 673.31640625 241.25 673.31640625 c 0
 180.713867188 673.31640625 40 605.8828125 40 471.9765625 c 0
 40 398.018554688 98.556640625 376.342773438 161.900390625 376.342773438 c 0
 233.069335938 376.342773438 270.190429688 409.1015625 270.190429688 452.243164062 c 0
549.639648438 452.243164062 m 0
 549.639648438 509.430664062 496.80859375 528.326171875 441.350585938 528.326171875 c 0
 441.235351562 528.326171875 441.12109375 528.326171875 441.006835938 528.326171875 c 1
 464.249023438 564.473632812 486.743164062 579.69921875 544.6328125 608.01953125 c 0
 556.899414062 614.020507812 559.21875 626.737304688 559.21875 636.42578125 c 0
 559.21875 657.842773438 544.037109375 673.31640625 520.700195312 673.31640625 c 0
 460.163085938 673.31640625 319.450195312 605.8828125 319.450195312 471.9765625 c 0
 319.450195312 398.018554688 378.006835938 376.342773438 441.350585938 376.342773438 c 0
 512.518554688 376.342773438 549.639648438 409.1015625 549.639648438 452.243164062 c 0
EndSplineSet
EndChar

StartChar: quotedblright
Encoding: 467 8221 95
GlifName: quotedblright
Width: 609
VWidth: 0
Flags: W
HStem: 521.333 151.983<80.2317 160.993 359.681 440.443>
VStem: 52.3604 230.189<547.516 640.39> 331.81 230.19<547.516 640.39>
LayerCount: 2
Back
Fore
SplineSet
331.809570312 597.416015625 m 0
 331.809570312 540.228515625 384.641601562 521.333007812 440.099609375 521.333007812 c 0
 440.21484375 521.333007812 440.329101562 521.333007812 440.443359375 521.333007812 c 1
 417.200195312 485.185546875 394.70703125 469.959960938 336.817382812 441.639648438 c 0
 324.55078125 435.638671875 322.231445312 422.921875 322.231445312 413.233398438 c 0
 322.231445312 391.81640625 337.413085938 376.342773438 360.75 376.342773438 c 0
 421.286132812 376.342773438 562 443.776367188 562 577.682617188 c 0
 562 651.640625 503.443359375 673.31640625 440.099609375 673.31640625 c 0
 368.930664062 673.31640625 331.809570312 640.557617188 331.809570312 597.416015625 c 0
52.3603515625 597.416015625 m 0
 52.3603515625 540.228515625 105.19140625 521.333007812 160.649414062 521.333007812 c 0
 160.764648438 521.333007812 160.87890625 521.333007812 160.993164062 521.333007812 c 1
 137.750976562 485.185546875 115.256835938 469.959960938 57.3671875 441.639648438 c 0
 45.1005859375 435.638671875 42.78125 422.921875 42.78125 413.233398438 c 0
 42.78125 391.81640625 57.962890625 376.342773438 81.2998046875 376.342773438 c 0
 141.836914062 376.342773438 282.549804688 443.776367188 282.549804688 577.682617188 c 0
 282.549804688 651.640625 223.993164062 673.31640625 160.649414062 673.31640625 c 0
 89.4814453125 673.31640625 52.3603515625 640.557617188 52.3603515625 597.416015625 c 0
EndSplineSet
EndChar

StartChar: quotesinglbase
Encoding: 465 8218 96
GlifName: quotesinglbase
Width: 331
VWidth: 0
Flags: W
HStem: -6.9834 151.983<81.4078 162.081>
VStem: 53.4473 230.189<19.1995 112.074>
LayerCount: 2
Back
Fore
SplineSet
53.447265625 69.099609375 m 0
 53.447265625 11.7528071405 106.44774933 -6.9833984375 162.081054688 -6.9833984375 c 1
 138.837890625 -43.130859375 116.34375 -58.359375 58.455078125 -86.6767578125 c 0
 46.1875 -92.677734375 43.869140625 -105.39453125 43.869140625 -115.083007812 c 0
 43.869140625 -136.5 59.0498046875 -151.973632812 82.38671875 -151.973632812 c 0
 142.923828125 -151.973632812 283.63671875 -84.5400390625 283.63671875 49.3662109375 c 0
 283.63671875 123.32421875 225.080078125 145 161.737304688 145 c 0
 90.568359375 145 53.447265625 112.241210938 53.447265625 69.099609375 c 0
EndSplineSet
EndChar

StartChar: quotedblbase
Encoding: 468 8222 97
GlifName: quotedblbase
Width: 601
VWidth: 0
Flags: W
HStem: -6.51953 151.983<74.1831 154.855 353.633 434.306>
VStem: 46.2227 230.189<19.6634 112.538> 325.672 230.19<19.6634 112.538>
LayerCount: 2
Back
Fore
SplineSet
325.671875 69.5634765625 m 0
 325.671875 12.216674328 378.673334375 -6.51953125 434.305664062 -6.51953125 c 1
 411.0625 -42.6669921875 388.568359375 -57.892578125 330.6796875 -86.212890625 c 0
 318.413085938 -92.2138671875 316.09375 -104.930664062 316.09375 -114.619140625 c 0
 316.09375 -136.036132812 331.275390625 -151.509765625 354.612304688 -151.509765625 c 0
 415.1484375 -151.509765625 555.862304688 -84.076171875 555.862304688 49.830078125 c 0
 555.862304688 123.788085938 497.305664062 145.463867188 433.961914062 145.463867188 c 0
 362.79296875 145.463867188 325.671875 112.705078125 325.671875 69.5634765625 c 0
46.22265625 69.5634765625 m 0
 46.22265625 12.2166734851 99.2231378311 -6.51953125 154.85546875 -6.51953125 c 1
 131.61328125 -42.6669921875 109.118164062 -57.892578125 51.2294921875 -86.212890625 c 0
 38.962890625 -92.2138671875 36.6435546875 -104.930664062 36.6435546875 -114.619140625 c 0
 36.6435546875 -136.036132812 51.8251953125 -151.509765625 75.162109375 -151.509765625 c 0
 135.69921875 -151.509765625 276.412109375 -84.076171875 276.412109375 49.830078125 c 0
 276.412109375 123.788085938 217.85546875 145.463867188 154.51171875 145.463867188 c 0
 83.34375 145.463867188 46.22265625 112.705078125 46.22265625 69.5634765625 c 0
EndSplineSet
EndChar

StartChar: parenleft
Encoding: 8 40 102
GlifName: parenleft
Width: 434
Flags: W
VStem: 65 237.609<146.551 493.403>
LayerCount: 2
Back
Fore
SplineSet
302.609375 320.903320312 m 0
 302.609375 121.946289062 371.196289062 -21.4169921875 371.196289062 -98.59765625 c 0
 371.196289062 -138.84765625 345.547851562 -156.153320312 318.502929688 -156.153320312 c 0
 218.008789062 -156.153320312 65 40.548828125 65 320.071289062 c 0
 65 598.921875 218.258789062 795.657226562 318.708984375 795.657226562 c 0
 345.754882812 795.657226562 371.40234375 778.3515625 371.40234375 738.1015625 c 0
 371.40234375 660.861328125 302.609375 517.384765625 302.609375 320.903320312 c 0
EndSplineSet
EndChar

StartChar: braceleft
Encoding: 91 123 104
GlifName: braceleft
Width: 549
Flags: W
HStem: -158 151.377<362.297 454.426> 648.332 151.667<362.297 454.472>
VStem: 142.58 219.717<-6.62305 242.217 397.575 648.332>
LayerCount: 2
Back
Fore
SplineSet
362.296875 648.33203125 m 1
 424.133789062 648.33203125 484 666.330078125 484 724.409179688 c 0
 484 767.55078125 446.87890625 799.999023438 375.7109375 799.999023438 c 2
 267.610351562 799.999023438 l 2
 167.55859375 799.999023438 142.580078125 769.258789062 142.580078125 689.909179688 c 2
 142.580078125 395.1171875 l 1
 91.572265625 386.94140625 65.14453125 357.931640625 65.14453125 321.530273438 c 0
 65.14453125 275.161132812 99.876953125 253.966796875 142.580078125 247.607421875 c 1
 142.580078125 -48.201171875 l 2
 142.580078125 -127.55078125 167.55859375 -158 267.610351562 -158 c 2
 375.7109375 -158 l 2
 446.87890625 -158 484 -125.842773438 484 -82.701171875 c 0
 484 -24.6220703125 423.990234375 -6.623046875 362.296875 -6.623046875 c 1
 362.296875 205.291015625 337.30078125 309.84765625 288.43359375 320.380859375 c 1
 337.30078125 332.555664062 362.296875 430.5625 362.296875 648.33203125 c 1
EndSplineSet
EndChar

StartChar: bracketleft
Encoding: 59 91 106
GlifName: bracketleft
Width: 478
Flags: W
HStem: -158.601 151.979<326.446 417.813> 649.021 150.979<326.446 417.813>
LayerCount: 2
Back
Fore
SplineSet
105.580078125 -48.2001953125 m 2
 105.580078125 -127.549804688 130.557617188 -158.032226562 230.610351562 -158.032226562 c 2
 338.709960938 -158.600585938 l 2
 409.87890625 -158.600585938 447 -125.841796875 447 -82.7001953125 c 0
 447 -24.62109375 388.165039062 -6.6220703125 326.446289062 -6.6220703125 c 1
 326.446289062 649.021484375 l 1
 388.165039062 649.021484375 447 667.020507812 447 725.099609375 c 0
 447 767.672851562 409.87890625 800 338.709960938 800 c 2
 230.610351562 800 l 2
 130.557617188 800 105.580078125 769.23046875 105.580078125 690.599609375 c 2
 105.580078125 -48.2001953125 l 2
EndSplineSet
EndChar

StartChar: bar
Encoding: 92 124 108
GlifName: bar
Width: 339
VWidth: 0
Flags: W
HStem: -72.8311 795.212<90.446 248.35>
VStem: 61 219<-40.8267 693.219>
LayerCount: 2
Back
Fore
SplineSet
280 28.0224609375 m 1052,0,-1
280 28.0224609375 m 2,1,-1
 280 -40.630859375 241.791992188 -72.8310546875 170.04296875 -72.8310546875 c 0,4,-1
 98.29296875 -72.8310546875 61.2470703125 -51.78515625 61 20.3759765625 c 2,7,-1
 61 633.482421875 l 2,8,-1
 61 697.818359375 107.9765625 722.380859375 170.04296875 722.380859375 c 0,11,-1
 232.88671875 722.380859375 279.645507812 712.4296875 279.681640625 642.46875 c 2,14,-1
 280 28.0224609375 l 2,1,-1
EndSplineSet
EndChar

StartChar: slash
Encoding: 15 47 109
GlifName: slash
Width: 546
VWidth: 0
Flags: W
HStem: -16.6328 702.466<207.36 369.36>
LayerCount: 2
Back
Fore
SplineSet
290.540039062 619.661132812 m 2
 272.250976562 664.596679688 249.946289062 685.833007812 207.360351562 685.833007812 c 0
 145.890625 685.833007812 74.853515625 638.719726562 74.853515625 587.200195312 c 0
 74.853515625 573.787109375 79.228515625 560.758789062 85.7548828125 544.557617188 c 2
 289.491210938 37.2998046875 l 2
 304.896484375 -0.54296875 328.551757812 -16.6328125 369.360351562 -16.6328125 c 0
 430.3671875 -16.6328125 505 25.63671875 505 76.2001953125 c 0
 505 87.0830078125 501.947265625 98.6171875 496.546875 111.8828125 c 2
 290.540039062 619.661132812 l 2
EndSplineSet
EndChar

StartChar: endash
Encoding: 461 8211 110
GlifName: endash
Width: 650
VWidth: 0
Flags: W
HStem: 201.58 144.9<80.1039 571.055>
VStem: 61 527<219.01 327.416>
LayerCount: 2
Back
Fore
SplineSet
491.9140625 346.48046875 m 2
 564.494140625 346.48046875 588 324.99609375 588 267.962890625 c 0
 588 217.74609375 554.41015625 201.580078125 482.55078125 201.580078125 c 2
 142.083007812 201.580078125 l 2
 81.6767578125 201.580078125 61 229.274414062 61 271.842773438 c 0
 61 311.912109375 78.8564453125 346.48046875 148.329101562 346.48046875 c 2
 491.9140625 346.48046875 l 2
EndSplineSet
EndChar

StartChar: emdash
Encoding: 462 8212 111
GlifName: emdash
Width: 823
VWidth: 0
Flags: W
HStem: 201.58 144.9<58.6561 765.054>
LayerCount: 2
Back
Fore
SplineSet
685.9140625 346.48046875 m 2
 758.49023438 346.48046875 782 324.99609375 782 267.962890625 c 0
 782 217.74609375 748.40625 201.580078125 676.55078125 201.580078125 c 2
 120.633789062 201.580078125 l 2
 60.2314453126 201.580078125 39.55078125 229.274414062 39.55078125 271.842773438 c 0
 39.55078125 311.912109375 57.4111328126 346.48046875 126.879882812 346.48046875 c 2
 685.9140625 346.48046875 l 2
EndSplineSet
EndChar

StartChar: bullet
Encoding: 471 8226 112
GlifName: bullet
Width: 329
VWidth: 0
Flags: W
HStem: 143.435 206.032<86.8082 247.572>
VStem: 44.9111 237.089<179.071 309>
LayerCount: 2
Back
Fore
SplineSet
44.9111328125 243.666992188 m 0
 44.9111328125 168.327148438 102.791015625 143.434570312 163.55078125 143.434570312 c 0
 234.916992188 143.434570312 282 165.6484375 282 249.416992188 c 0
 282 317.458007812 241.385742188 349.466796875 162.400390625 349.466796875 c 0
 85.185546875 349.466796875 44.9111328125 303.803710938 44.9111328125 243.666992188 c 0
EndSplineSet
EndChar

StartChar: periodcentered
Encoding: 125 183 113
GlifName: periodcentered
Width: 315
VWidth: 0
Flags: W
HStem: 157.959 151.983<72.3317 237.756>
VStem: 44.46 217.54<183.542 282.83>
LayerCount: 2
Back
Fore
SplineSet
44.4599609375 234.041992188 m 0
 44.4599609375 176.854492188 97.2919921875 157.958984375 152.75 157.958984375 c 0
 218.573242188 157.958984375 262 173.90625 262 234.041992188 c 0
 262 285.66015625 224.900390625 309.942382812 152.75 309.942382812 c 0
 81.5810546875 309.942382812 44.4599609375 277.18359375 44.4599609375 234.041992188 c 0
EndSplineSet
EndChar

StartChar: asterisk
Encoding: 10 42 114
GlifName: asterisk
Width: 568
VWidth: 0
Flags: W
VStem: 211.771 144.899<700.577 826.469>
LayerCount: 2
Back
Fore
SplineSet
211.770507812 747.327148438 m 2
 211.770507812 819.909179688 233.25390625 843.413085938 290.2890625 843.413085938 c 0
 340.50390625 843.413085938 356.669921875 809.826171875 356.669921875 737.963867188 c 2
 356.669921875 700.576171875 l 1
 415.709960938 721.513671875 l 2
 437.892578125 729.379882812 455.958984375 733.591796875 470.91015625 733.591796875 c 0
 505.208007812 733.591796875 538 700.731445312 538 653.663085938 c 0
 538 622.241210938 510.135742188 601.169921875 456.469726562 582.1484375 c 2
 417.0390625 568.173828125 l 1
 461.500976562 504.672851562 l 2
 476.935546875 482.629882812 483.587890625 464.3828125 483.587890625 448.962890625 c 0
 483.587890625 414.509765625 442.912109375 377.541992188 406.509765625 377.541992188 c 0
 385.790039062 377.541992188 365.122070312 389.692382812 344.41015625 419.272460938 c 2
 282.780273438 507.287109375 l 1
 221.151367188 419.272460938 l 2
 200.508789062 389.791015625 179.911132812 377.541015625 159.259765625 377.541015625 c 0
 123.442382812 377.541015625 81.9697265625 413.999023438 81.9697265625 447.813476562 c 0
 81.9697265625 463.474609375 88.2392578125 482.080078125 104.060546875 504.672851562 c 2
 149.096679688 568.9921875 l 1
 111.975585938 582.1484375 l 2
 58.3095703125 601.169921875 30.4453125 622.241210938 30.4453125 653.663085938 c 0
 30.4453125 700.401367188 63.1552734375 733.59375 97.16015625 733.59375 c 0
 112.184570312 733.59375 130.366210938 729.4453125 152.735351562 721.513671875 c 2
 211.770507812 700.577148438 l 1
 211.770507812 747.327148438 l 2
EndSplineSet
EndChar

StartChar: dagger
Encoding: 469 8224 115
GlifName: dagger
Width: 532
VWidth: 0
Flags: W
HStem: -0.24707 21G<233.067 302.027> 472 145.051<60.2654 163.914 373.914 480.101>
VStem: 163.914 210<44.879 472 617.051 699.791>
LayerCount: 2
Back
Fore
SplineSet
373.9140625 150.057617188 m 2
 373.9140625 44 336.887695312 -0.2470703125 267.166992188 -0.2470703125 c 0
 198.967773438 -0.2470703125 163.9140625 31.9560546875 163.9140625 142.41015625 c 2
 163.9140625 472 l 1
 86.034789992 472 37.9140625 478.066683909 37.9140625 542.262695312 c 0
 37.9140625 602.140938229 79.6746191897 616.723175142 163.9140625 617.05078125 c 1
 163.9140625 706.43359375 208.221679688 737 267.166992188 737 c 0
 333.58090038 737 373.9140625 719.050648269 373.9140625 616.900390625 c 1
 458.444630426 616.900390625 499 608.981933891 499 538.3828125 c 0
 499 480.191463825 452.341955555 472 373.9140625 472 c 1
 373.9140625 150.057617188 l 2
EndSplineSet
EndChar

StartChar: daggerdbl
Encoding: 470 8225 116
GlifName: daggerdbl
Width: 532
VWidth: 0
Flags: W
HStem: -0.24707 21G<231.802 301.759> 147.617 144.9<60.1992 163.914 373.914 480.1> 472 145.051<60.2654 163.914 373.914 480.101>
VStem: 163.914 210<44.1626 147.617 292.518 472 617.051 699.791>
LayerCount: 2
Back
Fore
SplineSet
499 538.3828125 m 0
 499 480.191463825 452.341955555 472 373.9140625 472 c 1
 373.9140625 292.517578125 l 1
 458.444630426 292.517578125 499 284.599121391 499 214 c 0
 499 155.806150961 452.337342593 147.6171875 373.907470543 147.6171875 c 1
 373.341566885 43.3208049847 336.350517558 -0.2470703125 267.166992188 -0.2470703125 c 0
 196.437163203 -0.2470703125 163.9140625 34.9367232937 163.9140625 147.6171875 c 1
 86.034789992 147.6171875 37.9140625 153.683871409 37.9140625 217.879882812 c 0
 37.9140625 277.607903194 79.4599636196 292.517578125 163.9140625 292.517578125 c 1
 163.9140625 472 l 1
 86.034789992 472 37.9140625 478.066683909 37.9140625 542.262695312 c 0
 37.9140625 602.140938229 79.6746191897 616.723175142 163.9140625 617.05078125 c 1
 163.9140625 706.43359375 208.221679688 737 267.166992188 737 c 0
 333.58090038 737 373.9140625 719.050648269 373.9140625 616.900390625 c 1
 458.444630426 616.900390625 499 608.981933891 499 538.3828125 c 0
EndSplineSet
EndChar

StartChar: section
Encoding: 109 167 117
GlifName: section
Width: 800
VWidth: 0
Flags: W
HStem: -95.5195 167.271<211.148 468.391> 695.712 123.839<427.034 562.292>
VStem: 44.1807 241.287<375.565 447.053> 179 238.8<608.377 686.042>
LayerCount: 2
Back
Fore
SplineSet
179 578.31640625 m 1xd0
 179 706.78515625 258.654296875 819.55078125 447.700195312 819.55078125 c 0
 615.005859375 819.55078125 724.46484375 736.083007812 724.46484375 666.600585938 c 0
 724.46484375 636.586914062 701.129882812 621.541015625 681.599609375 621.541015625 c 0
 637.665039062 621.541015625 560.232421875 695.711914062 476.450195312 695.711914062 c 0
 441.665039062 695.711914062 417.799804688 684.346679688 417.799804688 648.200195312 c 0xd0
 417.799804688 596.01171875 504.948929298 576.202663193 601 516 c 0
 716.329858903 443.713823482 763.443186612 413.669307278 763.443186612 316.000006155 c 0
 763.443186612 226.292956155 697.223329049 162.27928268 646.48046875 144 c 1
 647.465945476 133.220909705 647.83263017 122.533157942 647.83263017 112.000003955 c 0
 647.83263017 -0.59201922707 578.999967077 -95.51953125 357.78125 -95.51953125 c 0
 167.3515625 -95.51953125 33 5.6376953125 33 71.939453125 c 0
 33 98.9853515625 50.3046875 124.6328125 90.5546875 124.6328125 c 0
 140.271484375 124.6328125 227.090820312 71.751953125 311.78125 71.751953125 c 0
 336.900390625 71.751953125 356.630859375 79.95703125 356.630859375 103.430664062 c 0
 356.630859375 144.584960938 300.831154721 148.975208456 155.73046875 231.880859375 c 0
 79.484375 275.4453125 44.1806640625 324.215820312 44.1806640625 395.594726562 c 0xe0
 44.1806640625 503 119 547 179 578.31640625 c 1xd0
516.005859375 325.140625 m 0
 516.005859375 339.099063558 503.923071784 347.974655496 476 364.140625 c 0
 380.999994916 419.140561861 351.940782479 449.181640625 315 449.181640625 c 0
 295.598577964 449.181640625 285.467773438 437.345043796 285.467773438 418.140625 c 0xe0
 285.467773438 368.951312631 393.673322066 292 468 292 c 0
 493.652510553 292 516.005859375 301.811050049 516.005859375 325.140625 c 0
EndSplineSet
EndChar

StartChar: paragraph
Encoding: 124 182 118
GlifName: paragraph
Width: 1000
VWidth: 0
Flags: W
HStem: 556 128<880.248 970.258>
VStem: 21 549.05<291.597 515.612>
LayerCount: 2
Back
Fore
SplineSet
355 117.779296875 m 1
 355 38.208984375 374.549804688 0.01953125 456.59765625 0.01953125 c 0
 540.150390625 0.01953125 570.049804688 25.9453125 570.049804688 106.70703125 c 2
 570.049804688 556 l 1
 665.198242188 556 l 1
 665.198242188 117.779296875 l 2
 665.198242188 38.208984375 684.748046875 0.01953125 766.795898438 0.01953125 c 0
 850.348632812 0.01953125 880.248046875 25.9453125 880.248046875 106.70703125 c 2
 880.248046875 556 l 1
 944.622070312 556 981.952148438 562.544921875 981.952148438 613.919921875 c 0
 981.952148438 665.546246498 965.154296875 683.737464719 902.1015625 684 c 2
 355.912109375 684 l 2
 160.26636785 684 21 593.587411072 21 391.831054688 c 0
 21 208.592929356 194.701933132 117.779296875 355 117.779296875 c 1
EndSplineSet
EndChar

StartChar: tm_LLA
Encoding: 365 2995 119
GlifName: uni0B_B_3
Width: 1556
VWidth: 0
Flags: W
HStem: -6.19922 77.8975<329.477 510.281> 235.396 73.3584<463.859 509.881> 378 124<952.15 1149.95 1365 1525.92> 378.925 143.075<364.961 576.165>
VStem: 50.043 221.938<161.293 298.41> 311.795 140.905<114.65 228.886> 519.934 140.843<76.756 231.34> 737.052 215.099<28.3028 222.944> 1149.95 215.05<28.3028 378>
AnchorPoint: "Anchor-1" 1515 0 basechar 0
AnchorPoint: "Anchor-0" 846 0 basechar 0
LayerCount: 2
Back
Fore
SplineSet
741.12890625 424.634765625 m 1xdf80
 741.12890625 424.634765625 758 502 834.481445312 502 c 2
 1462.75097656 502 l 2
 1519.35839844 502 1536 485.555664062 1536 437.482421875 c 0
 1536 387.428710938 1506.45117188 378 1457.00097656 378 c 2
 1365.00097656 378 l 1
 1365.00097656 107 l 2
 1365.00097656 26.2392578125 1335.10058594 0.3134765625 1251.54785156 0.3134765625 c 0
 1169.50097656 0.3134765625 1149.95117188 38.5029296875 1149.95117188 118.072265625 c 2
 1149.95117188 378 l 1
 952.150390625 378 l 1xef80
 952.150390625 107 l 2
 952.150390625 26.2392578125 921.04296875 0.3134765625 838.698242188 0.3134765625 c 0
 748.041992188 0.3134765625 737.100585938 50.8828125 737.051757812 116 c 0
 737.051757812 272.116210938 617.026367188 378.924804688 463.3515625 378.924804688 c 0
 372.770507812 378.924804688 271.98046875 326.724609375 271.98046875 228.784179688 c 0
 271.98046875 175.357421875 287.241210938 138.362304688 316.142578125 113.71875 c 1
 313.296875 125.534179688 311.794921875 138.19921875 311.794921875 151.682617188 c 0
 311.794921875 249.62890625 386.541015625 308.75390625 486.879882812 308.75390625 c 0
 587.245117188 308.75390625 660.776367188 249.62890625 660.776367188 151.682617188 c 0
 660.776367188 45.0458984375 576.958007812 -6.19921875 464.04296875 -6.19921875 c 0
 196.092773438 -6.19921875 50.04296875 90 50.04296875 266 c 0
 50.04296875 433 206.416992188 522 456.04296875 522 c 0
 633.04296875 522 741.12890625 424.634765625 741.12890625 424.634765625 c 1xdf80
519.93359375 152.798828125 m 0
 519.93359375 192.381835938 509.608398438 235.395507812 487.500976562 235.395507812 c 0
 464.6640625 235.395507812 452.700195312 191.87890625 452.700195312 152.841796875 c 0
 452.700195312 113.8203125 463.819335938 71.6982421875 487.184570312 71.6982421875 c 0
 510.549804688 71.6982421875 519.93359375 113.236328125 519.93359375 152.798828125 c 0
EndSplineSet
EndChar

StartChar: tm_VA
Encoding: 367 2997 120
GlifName: uni0B_B_5
Width: 1339
VWidth: 0
Flags: W
HStem: -6.19922 77.8975<329.676 510.499> -0.0664062 125.351<895.944 1033.95> 235.396 73.3584<464.058 510.081> 378 143.876<354.873 582.409>
VStem: 50.2422 221.937<157.471 305.804> 311.994 140.905<114.649 228.886> 520.133 140.842<76.9147 231.34> 730.524 165.42<126.33 230.012> 1033.95 215.05<125.284 464.369>
AnchorPoint: "Anchor-1" 1211 -3 basechar 0
AnchorPoint: "Anchor-0" 817 0 basechar 0
LayerCount: 2
Back
Fore
SplineSet
520.1328125 152.798828125 m 0xbf80
 520.1328125 192.381835938 509.807617188 235.395507812 487.700195312 235.395507812 c 0
 464.86328125 235.395507812 452.899414062 191.87890625 452.899414062 152.841796875 c 0
 452.899414062 113.8203125 464.018554688 71.6982421875 487.383789062 71.6982421875 c 0
 510.748046875 71.6982421875 520.1328125 113.236328125 520.1328125 152.798828125 c 0xbf80
463.549804688 378 m 0
 372.96875 378 272.178710938 340.329101562 272.178710938 228.784179688 c 0
 272.178710938 175.357421875 287.439453125 138.361328125 316.341796875 113.717773438 c 1
 313.49609375 125.533203125 311.994140625 138.19921875 311.994140625 151.682617188 c 0
 311.994140625 249.62890625 386.739257812 308.75390625 487.079101562 308.75390625 c 0
 587.443359375 308.75390625 660.974609375 249.62890625 660.974609375 151.682617188 c 0
 660.974609375 45.7841796875 577.279296875 -6.19921875 464.2421875 -6.19921875 c 0xbf80
 196.291992188 -6.19921875 50.2421875 94 50.2421875 254 c 0
 50.2421875 448 215.073242188 521.875976562 464.700195312 521.875976562 c 0
 767.987304688 521.875976562 894.916992188 333.444335938 895.944335938 125.284179688 c 1
 1033.95019531 125.284179688 l 1
 1033.95019531 384.424804688 l 2
 1033.95019531 463.995117188 1060.19433594 502 1142.2421875 502 c 0
 1225.79492188 502 1249 451.258789062 1249 370.497070312 c 2
 1249 109.924804688 l 2
 1249 11.755859375 1191.98925781 -0.06640625 1119.40039062 -0.06640625 c 2
 833.850585938 -0.06640625 l 2x7f80
 766.049804688 -0.06640625 730.524414062 51.2861328125 730.524414062 130 c 0
 730.524414062 172.350585938 717.5078125 378 463.549804688 378 c 0
EndSplineSet
EndChar

StartChar: tm_LA
Encoding: 364 2994 121
GlifName: uni0B_B_2
Width: 1238
VWidth: 0
Flags: W
HStem: -6.19922 77.8975<329.625 510.43> -0.0664062 150.256<915.118 975.416> 235.396 73.3584<464.007 510.03> 378.925 143.075<365.109 584.217>
VStem: 50.1914 221.938<161.293 298.41> 311.943 140.905<114.65 228.886> 520.082 140.843<76.756 231.34> 980.425 207.575<153.913 306.675>
AnchorPoint: "Anchor-1" 1108 0 basechar 0
AnchorPoint: "Anchor-0" 646 -2 basechar 0
LayerCount: 2
Back
Fore
SplineSet
737.200195312 152.883789062 m 0x7f
 693.474609375 307.2890625 617.174804688 378.924804688 463.5 378.924804688 c 0
 372.918945312 378.924804688 272.12890625 326.724609375 272.12890625 228.784179688 c 0
 272.12890625 175.357421875 287.389648438 138.362304688 316.291015625 113.71875 c 1
 313.4453125 125.534179688 311.943359375 138.19921875 311.943359375 151.682617188 c 0
 311.943359375 249.62890625 386.689453125 308.75390625 487.028320312 308.75390625 c 0
 587.393554688 308.75390625 660.924804688 249.62890625 660.924804688 151.682617188 c 0
 660.924804688 45.0458984375 577.106445312 -6.19921875 464.19140625 -6.19921875 c 0xbf
 196.241210938 -6.19921875 50.19140625 90 50.19140625 266 c 0
 50.19140625 433 206.565429688 522 456.19140625 522 c 0
 725.43359375 522 845.305664062 377.626953125 891.299804688 226.354492188 c 0
 902.692382812 188.884765625 920.049804688 150.189453125 944.200195312 150.189453125 c 0
 961.103515625 150.189453125 980.424804688 160.422851562 980.424804688 197.734375 c 0
 980.424804688 259.637695312 941.385742188 335.537109375 941.385742188 426.408203125 c 0
 941.385742188 470.4296875 975.703125 501.798828125 1043.09960938 501.798828125 c 0
 1118.95800781 501.798828125 1188 438.18359375 1188 246.607421875 c 0
 1188 60.7685546875 1063.57617188 -0.06640625 960.299804688 -0.06640625 c 0
 849.899414062 -0.06640625 770.486328125 35.3408203125 737.200195312 152.883789062 c 0x7f
520.08203125 152.798828125 m 0
 520.08203125 192.381835938 509.756835938 235.395507812 487.649414062 235.395507812 c 0
 464.8125 235.395507812 452.848632812 191.87890625 452.848632812 152.841796875 c 0
 452.848632812 113.8203125 463.967773438 71.6982421875 487.333007812 71.6982421875 c 0
 510.698242188 71.6982421875 520.08203125 113.236328125 520.08203125 152.798828125 c 0
EndSplineSet
EndChar

StartChar: tm_BAE
Encoding: 360 2990 122
GlifName: uni0B_A_E_
Width: 917
VWidth: 0
Flags: W
HStem: -0.0947266 125.263<304.649 411.6 538.1 646.184> 377.159 124.841<553.329 632.277>
VStem: 89.5996 215.05<125.108 474.519> 411.6 126.5<125.168 362.014> 646.184 220.816<128.503 360.01>
AnchorPoint: "Anchor-1" 744.6 0 basechar 0
AnchorPoint: "Anchor-0" 620 0 basechar 0
LayerCount: 2
Back
Fore
SplineSet
538.099609375 125.16796875 m 1
 646.18359375 125.213867188 l 1
 646.200195312 291 l 2
 646.200195312 352.215820312 624.349609375 377.159179688 592.149414062 377.159179688 c 0
 555.349609375 377.159179688 538.099609375 346.200195312 538.099609375 291 c 2
 538.099609375 125.16796875 l 1
304.649414062 125.108398438 m 1
 411.599609375 125.12890625 l 1
 411.599609375 315.05859375 l 2
 411.599609375 433.508789062 500.704101562 502 616.299804688 502 c 0
 730.008789062 502 867 441.166015625 867 255.326171875 c 0
 867 63.75 797.958007812 -0.0947265625 722.099609375 -0.0947265625 c 2
 198.849609375 -0.0947265625 l 2
 136.75 -0.0947265625 89.599609375 45.189453125 89.599609375 112.822265625 c 2
 89.599609375 384.749023438 l 2
 89.599609375 464.319335938 109.149414062 502.508789062 191.197265625 502.508789062 c 0
 274.75 502.508789062 304.649414062 476.583007812 304.649414062 395.821289062 c 2
 304.649414062 125.108398438 l 1
EndSplineSet
EndChar

StartChar: tm_YA
Encoding: 361 2991 123
GlifName: uni0B_A_F_
Width: 970
VWidth: 0
Flags: W
HStem: -5.98047 156.142<286.324 358.735> -0.0625 125.271<552.967 674.95>
VStem: 59.752 219.368<155.227 461.158> 367.032 219.368<155.92 461.158> 674.95 215.05<125.349 473.587>
AnchorPoint: "Anchor-1" 895 6 basechar 0
AnchorPoint: "Anchor-0" 499 0 basechar 0
LayerCount: 2
Back
Fore
SplineSet
322.359375 150.161132812 m 0xb8
 364.594726562 150.161132812 367.032226562 183.29296875 367.032226562 251.549804688 c 0
 367.032226562 288.348632812 368.23828125 356.924804688 368.23828125 412.487304688 c 0
 368.23828125 472.01953125 396.271484375 501.4609375 481.759765625 501.4609375 c 0
 567.250976562 501.4609375 586.400390625 462.576171875 586.400390625 271 c 0
 586.400390625 211.84765625 573.703125 163.7265625 552.966796875 125.208007812 c 1
 674.950195312 125.348632812 l 1
 674.950195312 383.81640625 l 2
 674.950195312 463.38671875 694.5 501.576171875 776.547851562 501.576171875 c 0
 860.100585938 501.576171875 890 475.650390625 890 394.888671875 c 2
 890 109.896484375 l 2
 890 19.556640625 838.786132812 0.16796875 775.942382812 0.16796875 c 2
 380.0390625 -0.0625 l 1x78
 360.844726562 -4.08984375 341.895507812 -5.98046875 323.99609375 -5.98046875 c 0
 213.033203125 -5.98046875 59.751953125 66.7529296875 59.751953125 271 c 0
 59.751953125 462.576171875 78.90234375 501.4609375 164.391601562 501.4609375 c 0
 249.881835938 501.4609375 277.9140625 472.01953125 277.9140625 412.487304688 c 0
 277.9140625 356.9453125 279.120117188 288.396484375 279.120117188 252.469726562 c 0
 279.120117188 186.2421875 279.123046875 150.161132812 322.359375 150.161132812 c 0xb8
EndSplineSet
EndChar

StartChar: tm_RRA
Encoding: 363 2993 124
GlifName: uni0B_B_1
Width: 983
VWidth: 0
Flags: W
HStem: -242.207 164.015<345.358 619.808> -223.972 162.449<222.501 558.748> 345.878 155.956<313.021 383.703 618.486 693.309>
VStem: 82.8516 218.162<52.1281 333.468> 391.338 218.159<52.1641 340.088> 721.85 211.15<60.5263 314.972>
AnchorPoint: "Anchor-1" 803.5 0 basechar 0
AnchorPoint: "Anchor-0" 496 0 basechar 0
LayerCount: 2
Back
Fore
SplineSet
345.458984375 345.877929688 m 0xbc
 386.786132812 345.877929688 390.021484375 317.583007812 390.021484375 275 c 2
 391.337890625 88.97265625 l 2
 391.337890625 29.4404296875 419.37109375 0 504.860351562 0 c 0
 592.44140625 0 609.497070312 63.5703125 609.497070312 256 c 0
 609.497070312 302.641601562 610.251953125 345.877929688 652.509765625 345.877929688 c 0
 701.862304688 345.877929688 721.849609375 290.284179688 721.849609375 200.583984375 c 0
 721.849609375 67.3701171875 674.3828125 -78.1923828125 540.5 -78.1923828125 c 0xbc
 516.053710938 -78.1923828125 490.6484375 -75.2333984375 464.528320312 -71.90625 c 0
 408.841796875 -64.8134765625 360.403320312 -61.5224609375 318.478515625 -61.5224609375 c 0
 141.380859375 -61.5224609375 80.5 -104.1015625 80.5 -166.75390625 c 0
 80.5 -215.841796875 117.854492188 -253.448242188 168.978515625 -253.448242188 c 0
 226.408203125 -253.448242188 246.147460938 -223.971679688 368 -223.971679688 c 0x7c
 415.775390625 -223.971679688 501.802734375 -242.20703125 581.900390625 -242.20703125 c 0
 852.551757812 -242.20703125 933 36.4677734375 933 178.68359375 c 0
 933 358.159179688 863.887695312 502.01953125 654.145507812 502.01953125 c 0
 606.430664062 502.01953125 550.890625 484.791992188 503.078125 457.216796875 c 1
 454.440429688 488.533203125 396.734375 501.833984375 347.095703125 501.833984375 c 0
 236.1328125 501.833984375 82.8515625 441.11328125 82.8515625 255.274414062 c 0
 82.8515625 63.6982421875 102.001953125 0 187.491210938 0 c 0
 272.981445312 0 301.013671875 29.4404296875 301.013671875 88.97265625 c 2
 302.219726562 267.990234375 l 2
 302.219726562 330 320.5 345.877929688 345.458984375 345.877929688 c 0xbc
EndSplineSet
EndChar

StartChar: tm_SHA
Encoding: 368 2998 125
GlifName: uni0B_B_6
Width: 1154
VWidth: 0
Flags: W
HStem: 0.0273438 150.142<271.536 342.708 790.878 872.232> 376.451 125.596<568.445 649.878 776.378 884.463>
VStem: 45.0293 219.368<156.304 461.745> 352.31 219.368<156.304 376.451> 649.878 126.5<165.235 376.398> 884.478 220.8<163.312 370.34>
AnchorPoint: "Anchor-1" 1038 -6 basechar 0
AnchorPoint: "Anchor-0" 608 0 basechar 0
LayerCount: 2
Back
Fore
SplineSet
776.377929688 223.654296875 m 2
 776.377929688 188.774414062 785.577148438 150.168945312 836.177734375 150.168945312 c 0
 863.814453125 150.168945312 884.477539062 174.841796875 884.477539062 212.154296875 c 2
 884.462890625 376.349609375 l 1
 776.377929688 376.3984375 l 1
 776.377929688 223.654296875 l 2
307.63671875 150.168945312 m 0
 349.872070312 150.168945312 352.309570312 183.490234375 352.309570312 252.13671875 c 2
 353.515625 413.07421875 l 2
 353.515625 472.606445312 381.548828125 502.046875 467.037109375 502.046875 c 2
 960.377929688 501.654296875 l 2
 1036.23632812 501.654296875 1105.27734375 463.163085938 1105.27734375 271.586914062 c 0
 1105.27734375 66.912109375 968.28515625 -0.0869140625 854.577148438 -0.0869140625 c 0
 738.982421875 -0.0869140625 649.877929688 68.404296875 649.877929688 186.854492188 c 2
 649.877929688 376.436523438 l 1
 568.4453125 376.451171875 l 1
 570.764648438 347.990234375 571.677734375 313.430664062 571.677734375 271.586914062 c 0
 571.677734375 66.9033203125 420.294921875 0.02734375 309.2734375 0.02734375 c 0
 198.310546875 0.02734375 45.029296875 66.9033203125 45.029296875 271.586914062 c 0
 45.029296875 463.163085938 64.1796875 502.046875 149.668945312 502.046875 c 0
 235.159179688 502.046875 263.19140625 472.606445312 263.19140625 413.07421875 c 2
 264.397460938 253.056640625 l 2
 264.397460938 186.454101562 264.400390625 150.168945312 307.63671875 150.168945312 c 0
EndSplineSet
EndChar

StartChar: tm_LLLA
Encoding: 366 2996 126
GlifName: uni0B_B_4
Width: 917
VWidth: 0
Flags: W
HStem: -264.25 113.25<239.471 396.914> -175 123.316<548.676 608.3 711.3 777.866> 395.601 106.841<553.471 628.887>
VStem: 89.5996 215.05<-147.155 -61.7476 385.19 474.961> 411.6 126.4<-43.6142 -0.0947266 300 381.341> 646.184 220.816<128.868 366.662>
AnchorPoint: "Anchor-1" 738 0 basechar 0
AnchorPoint: "Anchor-0" 613 0 basechar 0
LayerCount: 2
Back
Fore
SplineSet
538 125.16796875 m 1x3c
 538 300 l 2
 538 362 554.349609375 395.600585938 591.149414062 395.600585938 c 0
 623.349609375 395.600585938 646.200195312 369 646.200195312 300 c 2
 646.18359375 125.213867188 l 1
 538 125.16796875 l 1x3c
304.649414062 -110 m 0
 303.3359375 -65.33203125 274.75 -40 191.197265625 -40 c 0
 109.149414062 -40 89.599609375 -72 89.599609375 -126 c 0
 89.599609375 -202.790039062 170.864257812 -264.25 309.799804688 -264.25 c 0xbc
 407.096679688 -264.25 477.186523438 -229.365234375 516.265625 -175 c 1
 711.299804688 -175 l 2
 758.28125 -173.6953125 789.299804688 -165 789.299804688 -111.19921875 c 0
 789.299804688 -68.19921875 767.899414062 -51 735.299804688 -51 c 0
 715.283203125 -51 634.909179688 -51.68359375 608.299804688 -51.68359375 c 0x7c
 560.337890625 -51.68359375 546.225585938 -45.603515625 542.624023438 -0.0947265625 c 1
 722.099609375 -0.0947265625 l 2
 797.958007812 -0.0947265625 867 64.19140625 867 255.767578125 c 0
 867 441.607421875 730.008789062 502.44140625 616.299804688 502.44140625 c 0
 500.704101562 502.44140625 411.599609375 433.950195312 411.599609375 315.5 c 2
 411.599609375 125.12890625 l 1
 304.649414062 125.108398438 l 1
 304.649414062 396.262695312 l 2
 304.649414062 477.024414062 274.75 502.950195312 191.197265625 502.950195312 c 0
 109.149414062 502.950195312 89.599609375 464.760742188 89.599609375 385.190429688 c 2
 89.599609375 112.822265625 l 2
 89.599609375 45.19140625 136.75 -0.0947265625 198.849609375 -0.0947265625 c 2
 410.837890625 -0.0947265625 l 1
 410.602539062 -66.4736328125 l 2
 410.602539062 -114 398.66015625 -151 352.649414062 -151 c 0xbc
 323.649414062 -151 305.649414062 -144 304.649414062 -110 c 0
EndSplineSet
EndChar

StartChar: tm_SSA
Encoding: 369 2999 127
GlifName: uni0B_B_7
Width: 1615
VWidth: 0
Flags: W
HStem: -5.78223 77.8975<329.776 510.564> 0.351562 125.325<883.395 1098.24 1237.39 1339.95> 200.506 72.1484<1039.13 1092.73> 235.812 73.3584<464.157 510.18> 385.218 136.782<361.521 579.81> 436.207 73.3584<1040.47 1086.49>
VStem: 50.3418 221.938<156.754 307.303> 312.094 140.905<115.067 229.303> 520.232 140.843<77.2691 231.757> 717.816 165.578<125.677 248.584> 888.406 140.905<276.954 429.697> 1098.24 139.15<-182.05 0.169922 125.603 201.237 329.349 428.931> 1339.95 215.05<125.484 285.251>
AnchorPoint: "Anchor-1" 1157 0 basechar 0
AnchorPoint: "Anchor-0" 933 0 basechar 0
LayerCount: 2
Back
Fore
SplineSet
1237.38769531 224.48828125 m 1x03f8
 1237.38769531 125.538085938 l 1
 1339.95019531 125.484375 l 1
 1339.95019531 285.250976562 l 1
 1317.56738281 262.868164062 1285.51171875 240.583984375 1237.38769531 224.48828125 c 1x03f8
520.232421875 153.215820312 m 0
 520.232421875 192.798828125 509.907226562 235.8125 487.799804688 235.8125 c 0
 464.962890625 235.8125 452.999023438 192.295898438 452.999023438 153.258789062 c 0
 452.999023438 114.237304688 464.118164062 72.115234375 487.483398438 72.115234375 c 0x93f8
 510.848632812 72.115234375 520.232421875 113.653320312 520.232421875 153.215820312 c 0
1096.54492188 353.609375 m 0
 1096.54492188 393.192382812 1086.21972656 436.20703125 1064.11328125 436.20703125 c 0
 1041.27539062 436.20703125 1029.31152344 392.689453125 1029.31152344 353.65234375 c 0
 1029.31152344 323.533203125 1036.34179688 272.654296875 1061.44433594 272.654296875 c 0x27f8
 1089.03613281 272.654296875 1096.54492188 313.3046875 1096.54492188 353.609375 c 0
1555 395.651367188 m 2
 1555 110.079101562 l 2
 1555 19.7392578125 1503.78613281 0.3515625 1440.94238281 0.3515625 c 2
 1237.38769531 0.169921875 l 1
 1237.38769531 -118.44921875 l 2
 1237.38769531 -167.897460938 1218.97460938 -197.44921875 1166.08789062 -197.44921875 c 0
 1117.54199219 -197.44921875 1098.23730469 -180.80078125 1098.23730469 -124.19921875 c 2
 1098.23730469 0.23046875 l 1
 821.299804688 0.3515625 l 2x67f8
 753.654296875 0.380859375 717.81640625 50.28125 717.81640625 129 c 0
 717.81640625 180.678710938 712.821289062 385.217773438 463.650390625 385.217773438 c 0
 373.068359375 385.217773438 272.279296875 345.830078125 272.279296875 229.201171875 c 0
 272.279296875 175.774414062 287.540039062 138.779296875 316.440429688 114.135742188 c 1
 313.595703125 125.951171875 312.09375 138.616210938 312.09375 152.099609375 c 0
 312.09375 250.045898438 386.838867188 309.170898438 487.178710938 309.170898438 c 0
 587.54296875 309.170898438 661.075195312 250.045898438 661.075195312 152.099609375 c 0
 661.075195312 45.91015625 577.150390625 -5.7822265625 464.341796875 -5.7822265625 c 0x9bf8
 196.391601562 -5.7822265625 50.341796875 105.2890625 50.341796875 244.151367188 c 0
 50.341796875 412.71875 209.227539062 522 449.849609375 522 c 0
 754.768554688 522 882.372070312 333.692382812 883.39453125 125.676757812 c 1x4bf8
 954.953125 125.659179688 1028.93164062 125.631835938 1098.23730469 125.602539062 c 1
 1098.23730469 201.237304688 l 1
 1087.10839844 200.755859375 1075.53222656 200.505859375 1063.48828125 200.505859375 c 0
 959.669921875 200.505859375 888.40625 256.061523438 888.40625 352.493164062 c 0
 888.40625 450.440429688 963.15234375 509.565429688 1063.4921875 509.565429688 c 0
 1163.85644531 509.565429688 1237.38769531 450.440429688 1237.38769531 352.493164062 c 2
 1237.38769531 327.747070312 l 1
 1271.14257812 356.360351562 1297.08691406 394.848632812 1331.97949219 440.243164062 c 0
 1362.49121094 479.938476562 1382.35449219 502.334960938 1441.84179688 502.334960938 c 0
 1520.28613281 502.334960938 1555 478.815429688 1555 395.651367188 c 2
EndSplineSet
EndChar

StartChar: uni0BB8
Encoding: 370 3000 128
GlifName: uni0B_B_8
Width: 1549
VWidth: 0
Flags: W
HStem: -7.07031 155.103<1212.48 1280.92> -6.30371 77.8975<328.976 509.763> 0.636719 21G<766.5 851.99> 235.291 73.3584<463.357 509.38> 347.615 155.956<931.042 989.304> 393.418 128.723<361.256 581.33>
VStem: 49.541 218.5<156.407 308.399> 311.293 140.905<126.533 228.781> 519.432 140.843<76.7474 231.235> 704.605 218.162<40.9364 281.575> 1006.14 191.563<160.739 335.101> 1286.82 212.176<151.532 338.872>
AnchorPoint: "Anchor-1" 1439 0 basechar 0
AnchorPoint: "Anchor-0" 800 0 basechar 0
LayerCount: 2
Back
Fore
SplineSet
519.431640625 152.694335938 m 0x53f0
 519.431640625 192.27734375 509.106445312 235.291015625 487 235.291015625 c 0
 464.162109375 235.291015625 452.198242188 191.774414062 452.198242188 152.737304688 c 0
 452.198242188 113.715820312 463.318359375 71.59375 486.682617188 71.59375 c 0
 510.047851562 71.59375 519.431640625 113.131835938 519.431640625 152.694335938 c 0x53f0
1006.13574219 243.647460938 m 0
 1006.13574219 311.973632812 986.791015625 347.615234375 961.462890625 347.615234375 c 0
 929.291015625 347.615234375 923.973632812 322.922851562 923.973632812 242.727539062 c 0
 923.973632812 206.801757812 922.767578125 138.251953125 922.767578125 82.7099609375 c 0
 922.767578125 23.177734375 894.735351562 0.63671875 809.245117188 0.63671875 c 0x3bf0
 723.755859375 0.63671875 704.60546875 38.435546875 704.60546875 230.01171875 c 0
 704.60546875 248.696289062 706.190429688 266.116210938 709.13671875 282.3359375 c 1
 659.48046875 336.412109375 581.4609375 393.41796875 473.19921875 393.41796875 c 0
 373.076171875 393.41796875 268.041015625 352.578125 268.041015625 226.379882812 c 0
 268.041015625 186.37890625 284.12890625 151.813476562 313.278320312 125.518554688 c 1
 311.970703125 133.829101562 311.29296875 142.51953125 311.29296875 151.578125 c 0
 311.29296875 249.524414062 386.0390625 308.649414062 486.37890625 308.649414062 c 0
 586.743164062 308.649414062 660.274414062 249.524414062 660.274414062 151.578125 c 0
 660.274414062 45.3874666265 576.349011528 -6.3037109375 463.541015625 -6.3037109375 c 4
 195.591796875 -6.3037109375 49.541015625 104.766601562 49.541015625 243.629882812 c 0
 49.541015625 451.83984375 207.549804688 522.140625 434.099609375 522.140625 c 0x57f0
 611.188476562 522.140625 721.133789062 448.83203125 759.897460938 417.641601562 c 1
 813.946289062 480.08984375 896.23046875 503.571289062 953.44140625 503.571289062 c 0
 1144.34179688 503.571289062 1197.69921875 370.46484375 1197.69921875 224.197265625 c 0
 1197.69921875 165.4296875 1226.44921875 148.032226562 1250.59960938 148.032226562 c 0
 1267.50390625 148.032226562 1286.82421875 158.264648438 1286.82421875 195.576171875 c 0
 1286.82421875 265.69140625 1258.13574219 323.201171875 1258.13574219 426.126953125 c 0
 1258.13574219 470.147460938 1292.453125 501.517578125 1359.84960938 501.517578125 c 0
 1435.70800781 501.517578125 1499 458.508789062 1499 244.450195312 c 0
 1499 58.611328125 1358.01757812 -7.0703125 1254.74121094 -7.0703125 c 0x9bf0
 1069.59179688 -7.0703125 1006.13574219 98.7294921875 1006.13574219 243.647460938 c 0
EndSplineSet
EndChar

StartChar: uni0BB9
Encoding: 371 3001 129
GlifName: uni0B_B_9
Width: 1880
VWidth: 0
Flags: W
HStem: -234.04 182.05<143.11 1515.6> -6.37305 77.8965<329.721 510.526> -0.240234 125.35<895.989 979.296> 235.221 73.3584<464.103 510.126> 351.754 155.955<1200.78 1276.67 1512.07 1577.9> 384.626 137.076<362.038 582.501>
VStem: 50.2871 221.938<156.162 306.744> 312.039 140.905<114.475 228.711> 520.178 140.843<76.5811 231.165> 730.569 165.42<125.109 239.007> 975.602 218.398<125.109 346.212> 1283 219.25<45.7446 345.752> 1604.6 225.4<52.815 326.121>
AnchorPoint: "Anchor-1" 1679 0 basechar 0
AnchorPoint: "Anchor-0" 1375 0 basechar 0
LayerCount: 2
Back
Fore
SplineSet
520.177734375 152.624023438 m 0xd3f8
 520.177734375 192.20703125 509.852539062 235.220703125 487.745117188 235.220703125 c 0
 464.908203125 235.220703125 452.944335938 191.704101562 452.944335938 152.666992188 c 0
 452.944335938 113.645507812 464.063476562 71.5234375 487.428710938 71.5234375 c 0
 510.793945312 71.5234375 520.177734375 113.061523438 520.177734375 152.624023438 c 0xd3f8
463.595703125 384.625976562 m 0xb7f8
 373.014648438 384.625976562 272.224609375 345.239257812 272.224609375 228.609375 c 0
 272.224609375 175.182617188 287.485351562 138.1875 316.38671875 113.543945312 c 1
 313.541015625 125.359375 312.0390625 138.024414062 312.0390625 151.5078125 c 0
 312.0390625 249.454101562 386.784179688 308.579101562 487.124023438 308.579101562 c 0
 587.489257812 308.579101562 661.020507812 249.454101562 661.020507812 151.5078125 c 0
 661.020507812 44.8703392698 577.202952361 -6.373046875 464.287109375 -6.373046875 c 4
 196.336914062 -6.373046875 50.287109375 104.697265625 50.287109375 243.559570312 c 0
 50.287109375 412.305664062 215.119140625 521.702148438 464.745117188 521.702148438 c 0xd7f8
 768.032226562 521.702148438 894.961914062 333.26953125 895.989257812 125.109375 c 1
 979.295898438 125.109375 l 1
 976.635742188 161.787109375 975.6015625 206.610351562 975.6015625 261.149414062 c 0
 975.6015625 446.989257812 1128.8828125 507.708984375 1239.84570312 507.708984375 c 0
 1289.48339844 507.708984375 1347.19042969 494.409179688 1395.82714844 463.091796875 c 1
 1443.63964844 490.66796875 1499.18066406 501.895507812 1546.89550781 501.895507812 c 0
 1759.83398438 501.895507812 1830 360.559570312 1830 176.559570312 c 0
 1830 -116.713867188 1715.75390625 -234.040039062 1457.75390625 -234.040039062 c 0
 1014.86621094 -234.040039062 387.2421875 -234.040039062 339.467773438 -234.040039062 c 0
 217.614257812 -234.040039062 197.875976562 -254.373046875 140.4453125 -254.373046875 c 0
 89.322265625 -254.373046875 51.9677734375 -215.116210938 51.9677734375 -163.877929688 c 0
 51.9677734375 -92.42578125 112.84765625 -51.990234375 289.9453125 -51.990234375 c 0
 331.87109375 -51.990234375 800.545898438 -51.990234375 860.345703125 -51.990234375 c 0
 886.677734375 -51.990234375 1420.09863281 -51.990234375 1444.54589844 -51.990234375 c 0
 1571.04589844 -51.990234375 1604.59960938 68.5029296875 1604.59960938 206.459960938 c 0
 1604.59960938 296.159179688 1584.00078162 351.75390625 1545.25878906 351.75390625 c 0
 1518.99884685 351.75390625 1502.25 337 1502.25 255.3359375 c 0
 1502.25 42.9775390625 1483.10058594 -0.125 1397.61035156 -0.125 c 0
 1312.12109375 -0.125 1283 29.31640625 1283 88.8486328125 c 2
 1283 274.786132812 l 2
 1283 326.602539062 1280.44433594 351.75390625 1238.20898438 351.75390625 c 0xbbf8
 1194.97265625 351.75390625 1194 324.28515625 1194 273.866210938 c 2
 1194 64.1591796875 l 2
 1194 16.0869140625 1176.05273438 -0.240234375 1119.44628906 -0.240234375 c 2
 833.895507812 -0.240234375 l 2
 766.204101562 -0.240234375 730.569335938 26.7919921875 730.569335938 105.559570312 c 0
 730.569335938 183.875 717.802734375 384.625976562 463.595703125 384.625976562 c 0xb7f8
EndSplineSet
EndChar

StartChar: tm_NNA
Encoding: 355 2979 130
GlifName: uni0B_A_3
Width: 1876
VWidth: 0
Flags: W
HStem: -6.97363 79.3682<240.373 384.082 751.388 817.521 1187.48 1253.19> -0.0400391 21G<1531.67 1614.47> 235.312 73.3584<337.427 383.231> 376.543 125.457<1343.65 1471.1 1686.15 1844.87> 378.201 134.799<909.323 1082.63> 381.406 140.594<354.874 645.08>
VStem: 50.3975 275.652<137.915 342.307> 393.283 140.843<76.5745 231.257> 590.602 144.906<86.3046 247.761> 832.694 138<84.287 237.501> 1026.69 144.906<86.3046 229.313> 1268.79 138<88.9584 222.848> 1471.1 215.05<27.9494 376.543>
AnchorPoint: "Anchor-1" 1832.4 0 basechar 0
AnchorPoint: "Anchor-0" 993.397 0 basechar 0
LayerCount: 2
Back
Fore
SplineSet
777.471679688 280.188476562 m 1xa3f8
 748.001953125 244.013671875 735.5078125 197.290039062 735.5078125 144.84375 c 0
 735.5078125 107.279296875 754.986328125 72.39453125 783.229492188 72.39453125 c 0
 813.005859375 72.39453125 832.694335938 107.279296875 832.694335938 144.84375 c 0
 832.694335938 204.79296875 811.42578125 248.4921875 777.471679688 280.188476562 c 1xa3f8
1217.33691406 263.6328125 m 1
 1189.62109375 232.668945312 1171.60058594 193.165039062 1171.60058594 144.84375 c 0
 1171.60058594 107.279296875 1191.07910156 72.39453125 1219.32226562 72.39453125 c 0
 1249.09863281 72.39453125 1268.78710938 110.69140625 1268.78710938 144.84375 c 0
 1268.78710938 190.053710938 1248.80273438 230.487304688 1217.33691406 263.6328125 c 1
393.283203125 152.715820312 m 0
 393.283203125 192.298828125 382.958007812 235.3125 360.8515625 235.3125 c 0
 338.013671875 235.3125 326.049804688 191.795898438 326.049804688 152.758789062 c 0
 326.049804688 113.737304688 337.168945312 71.615234375 360.534179688 71.615234375 c 0
 383.899414062 71.615234375 393.283203125 113.153320312 393.283203125 152.715820312 c 0
1686.15039062 106.647460938 m 2
 1686.15039062 25.8857421875 1656.25 -0.0400390625 1572.69824219 -0.0400390625 c 0
 1490.65039062 -0.0400390625 1471.10058594 38.1494140625 1471.10058594 117.719726562 c 2
 1471.10058594 376.54296875 l 1
 1420.00097656 376.54296875 l 2x73f8
 1395.45214844 376.54296875 1367.99609375 372.56640625 1340.53613281 364.516601562 c 1
 1381.37597656 309.291992188 1406.78710938 244.25 1406.78710938 173.59375 c 0
 1406.78710938 71.8955078125 1324.08886719 -6.9736328125 1219.32226562 -6.9736328125 c 0
 1109.93847656 -6.9736328125 1026.69433594 64.34375 1026.69433594 173.59375 c 0
 1026.69433594 249.615234375 1048.19335938 313.024414062 1085.07324219 363.61328125 c 1
 1054.41601562 373.096679688 1022.77734375 378.201171875 992.614257812 378.201171875 c 0xabf8
 960.811523438 378.201171875 932.452148438 375.657226562 907.274414062 370.850585938 c 1
 946.845703125 318.920898438 970.694335938 253.745117188 970.694335938 173.59375 c 0
 970.694335938 57.4443359375 887.99609375 -6.9736328125 783.229492188 -6.9736328125 c 0
 673.845703125 -6.9736328125 590.6015625 64.34375 590.6015625 173.59375 c 0
 590.6015625 247.520507812 611.127929688 311.6796875 646.430664062 364.4453125 c 1
 590.421875 377.658203125 529.392578125 381.40625 474.897460938 381.40625 c 0
 387.501953125 381.40625 307.166992188 354.689453125 266.338867188 287.7890625 c 1
 293.08984375 301.419921875 325.090820312 308.670898438 360.23046875 308.670898438 c 0
 460.594726562 308.670898438 534.125976562 249.545898438 534.125976562 151.599609375 c 0
 534.125976562 45.3991629276 453.200650227 -8.4892578125 337.392578125 -8.4892578125 c 0
 144.53515625 -8.4892578125 50.3974609375 112.797851562 50.3974609375 233.79296875 c 0
 50.3974609375 450.8203125 251.693359375 522 481.897460938 522 c 0xa7f8
 581.119140625 522 686.640625 504.833007812 774.149414062 465.875976562 c 1
 838.342773438 496.615234375 914.548828125 513 994.694335938 513 c 0x2bf8
 1067.41210938 513 1145.88964844 494.350585938 1214.65136719 462.05859375 c 1
 1277.40820312 488.203125 1351.34375 502 1429.20019531 502 c 2
 1782.75 502 l 2
 1839.75 502 1856 485.56640625 1856 437.494140625 c 0
 1856 387.44140625 1825.95019531 376.54296875 1777 376.54296875 c 2
 1686.15039062 376.54296875 l 1x33f8
 1686.15039062 106.647460938 l 2
EndSplineSet
EndChar

StartChar: tm_NNNA
Encoding: 358 2985 131
GlifName: uni0B_A_9
Width: 1447
VWidth: 0
Flags: W
HStem: -4.7666 79.3682<238.953 383.308 750.537 816.669> 235.312 73.3584<336.192 382.38> 377 125.207<923.021 1042.1 1257.15 1415.87> 382.82 139.18<364.784 653.478>
VStem: 49.5459 275.652<139.934 336.627> 392.432 140.843<76.6728 231.257> 589.75 144.906<88.5117 230.001> 831.843 138<86.4941 239.461> 1042.1 215.051<28.4149 377>
AnchorPoint: "Anchor-1" 1410 0 basechar 0
AnchorPoint: "Anchor-0" 791.546 0 basechar 0
LayerCount: 2
Back
Fore
SplineSet
555.580078125 239.489257812 m 1280,0,-1
683.580078125 239.489257812 m 1280,1,-1
787.73828125 271.06640625 m 1,2,-1
 753.325195312 237.619140625 734.65625 195.327148438 734.65625 147.05078125 c 0,5,-1
 734.65625 109.486328125 754.134765625 74.6015625 782.377929688 74.6015625 c 0,8,-1
 812.154296875 74.6015625 831.842773438 109.486328125 831.842773438 147.05078125 c 0,11,-1
 831.842773438 200.157226562 815.15234375 240.51171875 787.73828125 271.06640625 c 1,2,-1
1029 502.20703125 m 2,14,-1
 1353.75 502.20703125 l 2,15,-1
 1406 502.20703125 1427 487.397460938 1427 438.372070312 c 0,18,-1
 1427 388.319335938 1396.95019531 377 1348 377 c 2,21,-1
 1257.15039062 377 l 1,22,-1
 1257.15039062 107.111328125 l 2,23,-1
 1257.15039062 26.3525390625 1227.25 0.4248046875 1143.69726562 0.4248046875 c 0,26,-1
 1061.65039062 0.4248046875 1042.09960938 38.6162109375 1042.09960938 118.18359375 c 2,29,-1
 1042.09960938 377.421875 l 1,30,-1
 997.658203125 377.360351562 960.545898438 377 921.176757812 364.078125 c 1,33,-1
 952.137695312 320.077148438 969.842773438 240.920898438 969.842773438 175.80078125 c 0,36,-1
 969.842773438 59.6513671875 887.14453125 -4.7666015625 782.377929688 -4.7666015625 c 0,39,-1
 672.994140625 -4.7666015625 589.75 66.55078125 589.75 175.80078125 c 0,42,-1
 589.75 242.467773438 614.772460938 318.483398438 656.19140625 363.224609375 c 1,45,-1
 597.352539062 378.581054688 532.00390625 382.8203125 474.045898438 382.8203125 c 0,48,-1
 384.62890625 382.8203125 302.603515625 340.919921875 262.71875 286.344726562 c 1,51,-1
 290.018554688 300.907226562 323.018554688 308.670898438 359.37890625 308.670898438 c 0,54,-1
 459.743164062 308.670898438 533.274414062 249.545898438 533.274414062 151.599609375 c 0,57,-1
 533.274414062 44.9618613208 449.455768144 -6.2822265625 336.541015625 -6.2822265625 c 0,60,-1
 143.68359375 -6.2822265625 49.5458984375 115.004882812 49.5458984375 236 c 0,63,-1
 49.5458984375 437.254882812 250.684570312 522 481.045898438 522 c 0,66,-1
 600.056640625 522 714.677734375 502.512695312 802.977539062 457.520507812 c 1,69,-1
 856.545898438 485 916.545898438 502.20703125 1029 502.20703125 c 2,14,-1
392.431640625 152.715820312 m 0,72,-1
 392.431640625 192.298828125 382.106445312 235.3125 360 235.3125 c 0,75,-1
 337.162109375 235.3125 325.198242188 191.795898438 325.198242188 152.758789062 c 0,78,-1
 325.198242188 113.737304688 336.317382812 71.615234375 359.682617188 71.615234375 c 0,81,-1
 383.047851562 71.615234375 392.431640625 113.153320312 392.431640625 152.715820312 c 0,72,-1
EndSplineSet
EndChar

StartChar: zero
Encoding: 16 48 132
GlifName: zero
Width: 660
VWidth: 0
Flags: W
HStem: -5.79102 146.191<292.777 363.069> 520.869 146.947<296.263 362.946>
VStem: 35 219.795<194.169 464.791> 401.837 219.653<186.6 467.428>
LayerCount: 2
Back
Fore
SplineSet
401.836914062 326.432617188 m 0
 401.836914062 418.95703125 378.298828125 520.869140625 329.969726562 520.869140625 c 0
 280.004882812 520.869140625 254.794921875 417.6875 254.794921875 326.432617188 c 0
 254.794921875 236.270507812 278.838867188 140.400390625 329.969726562 140.400390625 c 0
 381.040039062 140.400390625 401.836914062 235.013671875 401.836914062 326.432617188 c 0
329.969726562 -5.791015625 m 0
 166.880859375 -5.791015625 35 79.1826171875 35 326.432617188 c 0
 35 589.783203125 161.102539062 667.81640625 329.969726562 667.81640625 c 0
 498.400390625 667.81640625 621.490234375 571.3828125 621.490234375 326.432617188 c 0
 621.490234375 79.1826171875 492.637695312 -5.791015625 329.969726562 -5.791015625 c 0
EndSplineSet
EndChar

StartChar: one
Encoding: 17 49 133
GlifName: one
Width: 434
VWidth: 0
Flags: W
HStem: 0.530273 666.432<180.202 329.832> 515.552 151.979<58.3702 140.203>
VStem: 142.251 229.488<46.8249 515.552>
LayerCount: 2
Back
Fore
SplineSet
371.739257812 150.833984375 m 2xa0
 371.739257812 39.396484375 331.1328125 0.5302734375 254.880859375 0.5302734375 c 0xa0
 180.076171875 0.5302734375 142.858398438 32.7333984375 142.250976562 143.1875 c 2
 140.203125 515.551757812 l 1
 83.783203125 515.551757812 30 533.55078125 30 591.629882812 c 0
 30 634.772460938 67.12109375 667.530273438 138.2890625 667.530273438 c 0x60
 176.506835938 667.530273438 213.52734375 666.961914062 246.389648438 666.961914062 c 0
 346.44140625 666.961914062 371.357421875 636.48046875 371.419921875 557.129882812 c 2
 371.739257812 150.833984375 l 2xa0
EndSplineSet
EndChar

StartChar: two
Encoding: 18 50 134
GlifName: two
Width: 582
VWidth: 0
Flags: W
HStem: -5.91992 191.92<350.65 517.584> 519.63 148.351<249.619 308.934>
VStem: 32.9912 513.009<22.0742 158.145> 37.5264 204.141<424.356 515.237> 314.53 228.533<361.42 515.115>
LayerCount: 2
Back
Fore
SplineSet
350.650390625 186 m 1xd8
 461.875976562 186 l 2
 517.25 186 546 156.307617188 546 91.830078125 c 0
 546 22.640625 517.076171875 -5.919921875 425.076171875 -5.919921875 c 2
 153.67578125 -5.919921875 l 2
 66.228515625 -5.919921875 32.9912109375 7.5166015625 32.9912109375 91.953125 c 0xe0
 32.9912109375 130.4765625 43.228515625 155.202148438 82.3291015625 181.65234375 c 0
 274.318359375 311.528320312 314.530273438 348.172851562 314.530273438 464.430664062 c 0
 314.530273438 509.280273438 296.276367188 519.629882812 280.17578125 519.629882812 c 0
 258.326171875 519.629882812 241.666992188 502.379882812 241.666992188 454.401367188 c 0
 241.666992188 399.915039062 198.885742188 394.6328125 147.3671875 394.6328125 c 0
 57.763671875 394.6328125 37.5263671875 433.379882812 37.5263671875 516.180664062 c 0
 37.5263671875 599.440429688 119.17578125 667.98046875 270.975585938 667.98046875 c 0
 435.716796875 667.98046875 543.063476562 612.034179688 543.063476562 460.98046875 c 0
 543.063476562 295.685546875 452 236 350.650390625 186 c 1xd8
EndSplineSet
EndChar

StartChar: three
Encoding: 19 51 135
GlifName: three
Width: 586
VWidth: 0
Flags: W
HStem: -6.30176 198.7<115.604 321.84> 280.219 132.317<140.536 316.06> 499.968 168.039<110.857 306.725>
VStem: 318.368 214.541<419.991 553.582> 329.868 222.132<132.682 269.225>
LayerCount: 2
Back
Fore
SplineSet
318.368164062 450.885742188 m 0xf0
 318.368164062 490.580078125 274.409179688 499.967773438 226.549804688 499.967773438 c 0
 190.1015625 499.967773438 159.3203125 493.002929688 127.650390625 493.002929688 c 0
 79.900390625 493.002929688 55.8896484375 521.69140625 55.8896484375 579.466796875 c 0
 55.8896484375 635.806640625 123.591796875 668.006835938 264.5 668.006835938 c 0
 453.100585938 668.006835938 532.909179688 597.856445312 532.909179688 509.306640625 c 0xf0
 532.909179688 456.567382812 515.200195312 397.362304688 447.094726562 350.606445312 c 1
 520.795898438 311.354492188 552 277.006835938 552 189.607421875 c 0
 552 75.7568359375 456.004882812 -6.3017578125 300.150390625 -6.3017578125 c 0
 101.200195312 -6.3017578125 30.58984375 36.462890625 30.58984375 112.556640625 c 0
 30.58984375 186.540039062 65.8603515625 200.009765625 106.950195312 200.009765625 c 0
 143.732421875 200.009765625 181.190429688 192.3984375 220.799804688 192.3984375 c 0
 278.723632812 192.3984375 329.868164062 201.138671875 329.868164062 232.385742188 c 0xe8
 329.868164062 266.606445312 309.350585938 280.21875 230.315429688 280.21875 c 0
 155.565429688 280.21875 124.200195312 294.649414062 124.200195312 350.606445312 c 0
 124.200195312 394.842773438 155.33984375 412.536132812 205.850585938 412.536132812 c 0
 318.172851562 412.536132812 318.368164062 427.08984375 318.368164062 450.885742188 c 0xf0
EndSplineSet
EndChar

StartChar: four
Encoding: 20 52 136
GlifName: four
Width: 680
VWidth: 0
Flags: W
HStem: 0.530273 667<382.022 530.121>
LayerCount: 2
Back
Fore
SplineSet
342.416015625 288.780273438 m 1
 210.875 288.780273438 l 1
 344.872070312 502 l 1
 342.416015625 288.780273438 l 1
455.607421875 0.5302734375 m 0
 531.23828125 0.5302734375 571.888671875 38.765625 572.4609375 148.125 c 1
 623.536132812 151.830078125 647.122070312 165.732421875 647.122070312 217.88671875 c 0
 647.122070312 265.552734375 630.666015625 287.975585938 572.354492188 292.778320312 c 1
 572.146484375 557.129882812 l 2
 572.083984375 636.48046875 547.168945312 666.961914062 447.116210938 666.961914062 c 0
 414.25390625 666.961914062 397.83984375 667.530273438 359.622070312 667.530273438 c 0
 307.77734375 667.530273438 256.252929688 649.130859375 217.057617188 591.629882812 c 0
 188.458984375 549.674804688 142.400390625 484.74609375 57.3037109375 352.430664062 c 0
 38.3525390625 322.963867188 30 296.654296875 30 258.129882812 c 0
 30 197.180664062 66.50390625 146.65625 157.584960938 146.65625 c 0
 200.26953125 146.65625 271.673828125 146.693359375 342.981445312 146.7265625 c 1
 342.981445312 36.8408546044 378.977980823 0.5302734375 455.607421875 0.5302734375 c 0
EndSplineSet
EndChar

StartChar: seven
Encoding: 23 55 137
GlifName: seven
Width: 590
VWidth: 0
Flags: W
HStem: 505.457 161.859<47.7373 269.201>
VStem: 28.7412 535.16<524.741 642.257>
LayerCount: 2
Back
Fore
SplineSet
107.876953125 105.583007812 m 0
 107.876953125 41.1259765625 145.703125 0.5302734375 220.5078125 0.5302734375 c 0
 296.759765625 0.5302734375 320.596405066 12.6143035836 337.366210938 113.23046875 c 0
 355.766601562 223.629882812 390.708961217 343.229605102 514.564453125 479.958007812 c 0
 546.256835938 514.944335938 563.901367188 531.133789062 563.901367188 569.658203125 c 0
 563.901367188 654.09375 523.762542773 667.974649744 436.317382812 667.530273438 c 0
 394.232217154 667.31640625 248.624175008 667.31640625 140 667.31640625 c 0
 63.2177861179 667.31640625 28.7412109375 656.135424271 28.7412109375 584.799804688 c 0
 28.7412109375 530.434570312 50.1484375 505.45703125 130.6484375 505.45703125 c 0
 182.412074021 505.45703125 269.263671875 505.939453125 269.263671875 505.939453125 c 1
 269.263671875 505.939453125 107.876953125 289.583007812 107.876953125 105.583007812 c 0
EndSplineSet
EndChar

StartChar: six
Encoding: 22 54 138
GlifName: six
Width: 608
VWidth: 0
Flags: W
HStem: -10.0488 124.111<284.819 349.715> 323.133 97.8389<286.208 417.614> 498.748 177.931<302.85 449.223>
VStem: 33.5439 231.921<169.669 387.548> 368.863 204.752<129.045 306.041>
LayerCount: 2
Back
Fore
SplineSet
368.86328125 215.015625 m 0
 368.86328125 266.830078125 352.926630811 323.1328125 318.80859375 323.1328125 c 0
 283.803912942 323.1328125 265.46484375 266.172851562 265.46484375 215.075195312 c 0
 265.46484375 166.49917768 282.524414182 114.0625 318.369140625 114.0625 c 0
 354.395505758 114.0625 368.86328125 165.767293264 368.86328125 215.015625 c 0
253.462890625 405.087890625 m 1
 288.5 415.901367188 322.114257812 420.971679688 353.512695312 420.971679688 c 0
 481.71484375 420.971679688 573.615234375 340.522755397 573.615234375 229.9375 c 0
 573.615234375 80.1322100087 473.551757812 -10.048828125 327.063476562 -10.048828125 c 0
 90.4746093751 -10.048828125 33.5439453125 164.271420845 33.5439453125 310.4375 c 0
 33.5439453125 520.849365504 128.173828125 676.678710938 378.813476562 676.678710938 c 0
 483.620117188 676.678710938 569.171875 627.624746041 569.171875 554.487304688 c 0
 569.171875 511.465820312 540.299804688 466.603515625 490.36328125 466.603515625 c 0
 452.01171875 466.603515625 424.994140625 498.748046875 370.762695312 498.748046875 c 0
 316.095703125 498.748046875 263.553710938 458.585265975 253.462890625 405.087890625 c 1
EndSplineSet
EndChar

StartChar: five
Encoding: 21 53 139
GlifName: five
Width: 595
VWidth: 0
Flags: W
HStem: -5.63086 184.213<123.551 316.979>
VStem: 55.1943 480.257<515.166 642.487> 329.123 226.732<192.904 262.575>
LayerCount: 2
Back
Fore
SplineSet
474.501953125 505.890625 m 2xa0
 519.3515625 505.890625 535.451171875 526.578125 535.451171875 578.340820312 c 0
 535.451171875 649.649414062 516.1328125 666.890625 453.801757812 666.890625 c 0
 372.08984375 666.890625 251.462890625 666.890625 169.751953125 666.890625 c 0
 80.0517578125 666.890625 55.1943359375 636.990234375 55.1943359375 584.16015625 c 2xc0
 55.4423828125 405.090820312 l 2
 55.4423828125 313 70.5085617843 289.686523438 141 289.686523438 c 0
 272.790610479 289.686523438 329.123046875 266.875547424 329.123046875 233.569335938 c 0
 329.123046875 190.599520733 296.674804688 178.58203125 238.751953125 178.58203125 c 0
 200.635803201 178.58203125 146.599787006 201.193359375 111.205078125 201.193359375 c 0
 70.115234375 201.193359375 41.744140625 177.798558821 41.744140625 103.390625 c 0
 41.744140625 32.3212890625 96.1473953609 -5.630859375 261.751953125 -5.630859375 c 0
 465.369140625 -5.630859375 555.85546875 85.8115234375 555.85546875 234.490234375 c 0
 555.85546875 318.653320312 522.39417428 385.391276709 450.950195312 413.890625 c 0
 392.276367188 437.295898438 339.951171875 440.859375 268.216796875 440.859375 c 1
 269.501953125 505.890625 l 1
 474.501953125 505.890625 l 2xa0
EndSplineSet
EndChar

StartChar: nine
Encoding: 25 57 140
GlifName: nine
Width: 604
VWidth: 0
Flags: W
HStem: -9.49902 172.931<176.823 305.55> 240.208 97.8398<188.603 314.888> 552.117 124.012<251.723 314.368>
VStem: 33.54 199.002<356.615 536.041> 335.94 237.671<267.632 488.898>
LayerCount: 2
Back
Fore
SplineSet
232.541992188 446.1640625 m 0
 232.541992188 394.350585938 248.479492188 338.047851562 282.596679688 338.047851562 c 0
 317.6015625 338.047851562 335.940429688 395.006835938 335.940429688 446.104492188 c 0
 335.940429688 497.084960938 318.880859375 552.1171875 283.036132812 552.1171875 c 0
 247.009765625 552.1171875 232.541992188 497.8515625 232.541992188 446.1640625 c 0
353.692382812 256.092773438 m 1
 318.655273438 245.278320312 285.041015625 240.208007812 253.642578125 240.208007812 c 0
 125.440429688 240.208007812 33.5400390625 329.37468565 33.5400390625 451.942382812 c 0
 33.5400390625 591.884765625 133.603515625 676.12890625 280.091796875 676.12890625 c 0
 516.680664062 676.12890625 573.611328125 494.138671875 573.611328125 341.541992188 c 0
 573.611328125 139.86328125 481.818359375 -9.4990234375 238.692382812 -9.4990234375 c 0
 133.884765625 -9.4990234375 48.333984375 39.5546875 48.333984375 112.692382812 c 0
 48.333984375 155.713867188 77.2060546875 200.576171875 127.142578125 200.576171875 c 0
 165.493164062 200.576171875 192.51171875 163.431640625 246.7421875 163.431640625 c 0
 296.5859375 163.431640625 344.4921875 203.165526699 353.692382812 256.092773438 c 1
EndSplineSet
EndChar

